<svg xmlns="http://www.w3.org/2000/svg" aria-hidden="true" style="position:absolute;width:0;height:0;overflow:hidden"><defs><symbol id="surf" viewBox="0 0 41 32"><path fill="currentColor" d="M39.732 29.241a.297.297 0 0 1-.025.057l.001-.002a.111.111 0 0 1-.037.048l-.023.034.001-.002-.011.016-.041.049a.836.836 0 0 1-.111.094l-.003.002a.777.777 0 0 1-.03.018l-.007.004-.009.005a.518.518 0 0 1-.101.046l-.003.001a.135.135 0 0 1-.024.008h-.002l-.009.001h-.009a.549.549 0 0 1-.15.021c-.071 0-.095.011-.095.011-.029.033-.081.203-.115.309l-.003.011c-.122.395-.378 1.218-1.411 1.218-.884 0-1.323-.592-1.644-1.025l-.003-.003c-.301-.409-.415-.52-.641-.52-.227 0-.339.111-.641.519l-.003.003c-.321.433-.76 1.025-1.645 1.025-.884 0-1.323-.593-1.644-1.025l-.002-.003c-.301-.408-.416-.519-.641-.519s-.339.111-.641.52c-.32.433-.76 1.029-1.647 1.029-.885 0-1.324-.592-1.645-1.025l-.002-.003c-.301-.408-.415-.519-.641-.519s-.339.111-.641.519c-.32.433-.759 1.029-1.647 1.029-.883 0-1.322-.592-1.643-1.025l-.003-.003c-.301-.408-.415-.519-.641-.519-.224 0-.338.111-.641.52-.32.434-.76 1.029-1.647 1.029-.883 0-1.323-.592-1.644-1.025l-.002-.003c-.301-.408-.415-.519-.641-.519-.224 0-.339.111-.641.521-.32.433-.76 1.029-1.647 1.029h-.008a.934.934 0 0 1-.707-.323l-.001-.001c-.437-.503-.349-1.36-.169-2.718l.003-.023c.064-.491.163-1.24.13-1.605-1.171.231-2.833 2.6-3.695 4.323a.625.625 0 0 1-.56.348l-.037-.001a.626.626 0 0 1-.551-.41l-.001-.004c-.144-.402-1.377-3.983-.095-5.963.48-.74 1.257-1.167 2.251-1.231.864-.057 1.259-.291 1.334-.476.05-.123-.03-.333-.205-.535-.467-.537-1.511-.967-2.7-.641-1.647.449-3.495 2.679-4.117 4.969-.218.805-.453 2.296.437 3.219a.637.637 0 0 1-.013.895.62.62 0 0 1-.887-.013c-.983-1.017-1.248-2.593-.748-4.434.647-2.387 2.695-5.229 5-5.857 1.717-.469 3.229.177 3.969 1.027.513.587.667 1.263.423 1.855-.211.514-.801 1.15-2.413 1.256-.6.04-1.019.256-1.281.66-.529.816-.407 2.264-.167 3.419.941-1.523 2.592-3.737 4.301-3.683.276.01.525.13.701.34s.262.48.293.815c1.154-.771 2.838-1.533 6.162-1.872-3.603-14.73 3.17-23.022 3.477-23.387l.007-.007a.258.258 0 0 1 .105-.097l.001-.001.059-.035.013-.008a.49.49 0 0 1 .039-.022.577.577 0 0 1 .086-.029l.004-.001.022-.006a.58.58 0 0 1 .142-.018l.093.003c.185 0 .359.081.478.223.307.363 7.047 8.613 3.509 23.272 9.253.547 10.385 4.273 10.429 4.436l.003.021.009.062c.003.022.007.044.007.067V29.015l.001.005v.006a.166.166 0 0 1-.003.032v-.001.006a.483.483 0 0 1-.014.095l.001-.003-.007.031-.003.011-.002.007c-.004.017-.009.03-.014.044l.001-.003zm-13.86-2.876h1.621c3.57-11.782.211-19.725-1.621-22.878v22.878zM24.618 3.653c-1.847 3.267-5.03 11.159-1.529 22.712h1.529V3.653zm13.115 25.96.003-.01c.073-.237.199-.627.507-.9-.694-.887-2.885-2.706-9.242-3.037a42.706 42.706 0 0 1-.45 1.525.63.63 0 0 1-.597.441h-5.328a.628.628 0 0 1-.596-.437l-.001-.004c-.058-.136-.201-.61-.337-1.087l-.081-.333c-4.031.383-5.473 1.403-6.575 2.264l-.015.111-.023.179c-.061.462-.155 1.173-.136 1.553.114-.068.23-.207.419-.463l.002-.003c.321-.433.76-1.025 1.645-1.025.884 0 1.323.592 1.644 1.025l.003.003c.301.408.415.519.641.519s.339-.111.641-.519l.003-.003c.321-.433.76-1.025 1.645-1.025.884 0 1.323.592 1.644 1.025l.002.003c.303.408.417.519.641.519.226 0 .339-.111.641-.519.32-.433.759-1.028 1.647-1.028.883 0 1.323.592 1.643 1.025l.003.003c.303.41.417.521.643.521s.339-.111.641-.519l.002-.003c.321-.433.76-1.025 1.646-1.025.883 0 1.323.592 1.644 1.025l.002.003c.301.408.415.519.641.519s.34-.111.643-.52c.32-.434.76-1.029 1.647-1.029.885 0 1.324.592 1.645 1.025l.002.003c.303.408.417.519.641.519.071 0 .095-.011.095-.011.029-.033.081-.203.115-.309z" style="fill:var(--color1, currentColor)"/><path fill="#222532" d="m39.708 29.296-.293-.159.505.416-.212-.257zm.024-.055-.309-.127-.004.011-.004.011.317.105zm-.023.055.299.148-.511-.405.212.257zm-.038.049-.186-.276-.058.039-.038.06.282.177zm-.022.032zm-.011.016.261.207.007-.008.006-.009-.274-.19zm-.041.048.237.235.007-.007.005-.006-.249-.222zm-.039.038-.223-.248-.007.007-.007.007.237.235zm-.05.043.186.277.005-.004.006-.004-.197-.269zm-.023.015zm-.024.015.15.298.012-.006.011-.007-.173-.285zm-.014.007h-.001zm-.01.006zm-.033.017-.14-.302-.005.002-.005.003.15.297zm-.019.009zm-.022.008zm-.018.007.118.312.003-.001-.12-.311zm-.012.005zm-.012.005zm-.014.004-.073-.325-.009.003.082.323zm-.009.001v-.333h-.001l.001.333zm-.008 0-.081-.323h-.003l.084.323zm-.247.032-.134-.305-.069.031-.049.057.253.217zm-.114.31zm-.003.01zm-3.055.193zm-.002-.003-.269.197.001.001.267-.199zm-1.282-.002zm-.003.004-.267-.199.267.198zm-3.289 0 .268-.199-.268.198zm-.002-.004-.269.198h.001l.268-.198zm-1.283.002zm-3.292.003zm-.002-.003-.269.198.001.001.268-.199zm-1.283 0zm-3.29.003zm-.002-.003-.268.198v.001l.268-.199zm-1.282.002zm-3.291.002zm-.002-.002zm-1.283.001zm-2.362.704.253-.217-.001-.001-.251.219zm-.17-2.718zm.004-.023zm.13-1.605.332-.029-.033-.369-.363.071.065.327zm-3.696 4.323-.298-.149-.001.001.299.148zm-.597.346.042-.331-.011-.002h-.011l-.019.333zm-.552-.414.314-.112v-.001l-.313.113zm-.095-5.964zm2.251-1.231zm1.334-.476zm-.205-.535zm-2.7-.64zm-4.117 4.969zm.437 3.219zm-.012.895zm-.888-.013.24-.231-.24.231zm-.748-4.434zm5-5.858zm3.97 1.027zm.423 1.855zm-2.413 1.256v.001zm-1.28.66-.28-.182v.001l.28.181zm-.167 3.418-.327.068.171.82.44-.713-.284-.175zm4.301-3.683.011-.333h-.001l-.011.333zm.7.34-.255.213v.001l.255-.214zm.294.815-.332.031.052.557.465-.31-.185-.277zm6.162-1.872.033.332.381-.039-.091-.372-.324.08zM24.764 1.14l-.237-.235-.01.01-.009.01.255.215zm.007-.007zm.01-.009-.247-.225-.011.013-.011.013.268.199zm.058-.055.217.253.01-.009.01-.01-.237-.235zm.04-.034zm.058-.034zm.014-.008.163.291.007-.004.007-.005-.177-.282zm.039-.022-.131-.307-.006.003.137.304zm.091-.03-.047-.33-.017.003L25 .618l.081.323zm.022-.006.107.316.003-.001-.109-.315zm0 0-.107-.316-.003.001.109.315zm.01-.004L25.04.606l-.009.002-.009.003.092.32zm.132-.014.011-.333h-.011v.333zm.093.003-.011.333h.011V.92zm.478.223-.255.213.001.001.255-.215zm3.509 23.272-.324-.078-.093.387.398.024.02-.333zm10.428 4.436.324-.08-.002-.007-.322.087zm.004.021.33-.05-.003-.015-.003-.015-.324.08zm.009.062.33-.047v-.004l-.33.051zm.007.071-.332.031.001.007.331-.037zm0 .005-.331.037v.003l.331-.041zm.001.005zm0 .016zm-.003.02v.001zm0 .005-.331-.042-.001.009-.001.009.332.023zm0 .002zm-.008.065-.327-.069-.001.007-.001.008.329.054zm-.002.015zm-.003.012-.325-.073v.001l.325.073zm-.007.031.32.094.001-.007.002-.007-.323-.081zm-.004.011-.32-.095-.001.003.321.091zm-.002.007-.321-.091.32.091zm-12.252-2.834v.333h.247l.072-.237-.319-.097zm-1.621 0h-.333v.333h.333v-.333zm0-22.878.288-.168-.621-1.069v1.237h.333zm-1.254 22.878v.333h.333v-.333h-.333zm0-22.712h.333V2.386l-.623 1.103.29.164zm-1.529 22.712-.319.097.072.237h.247v-.333zm14.647 3.238.318.099.155-.497-.516.068.043.331zm-.003.01zm.002-.01-.318-.099-.155.497.516-.068-.043-.33zm.508-.9.221.249.235-.208-.193-.247-.263.205zm-9.242-3.036.017-.333-.268-.013-.071.258.321.089zm-.45 1.525zm-6.522 0zm-.418-1.421.321-.09-.075-.269-.277.027.031.332zm-6.576 2.264-.205-.263-.107.084-.018.135.331.044zm-.014.111zm-.024.179-.33-.046v.002l.33.044zm-.136 1.553-.333.017.027.553.476-.283-.17-.287zm.419-.463-.268-.198-.001.001.269.197zm.002-.003zm3.289 0zm.003.003zm1.282 0zm.003-.003zm3.289 0zm.002.003zm1.283 0 .268.199v-.001l-.268-.198zm3.29-.003h.001zm.002.003zm1.284.002zm.002-.004zm3.29 0zm.002.004.268-.198v-.001l-.268.199zm1.284-.002zm3.292-.003zm.002.003zm.737.508.135.305.069-.031.049-.057-.253-.217zm2.383-.468a.815.815 0 0 0 .047-.109l-.633-.209-.001.004.001-.002.587.317zm-.504-.416zm.36.582c.099-.067.14-.157.151-.177l-.597-.296c-.009.018.013-.039.075-.08l.372.553zm.063-.05a.493.493 0 0 0 .033-.049l-.565-.355-.011.016.001-.001.542.389zm-.008.012.008-.011-.542-.389-.008.012-.005.008.547.38zm-.066.08.053-.064-.523-.414a.54.54 0 0 1-.029.035l.001-.001.497.444zm-.065.064c.023-.02.041-.04.053-.051l-.473-.469-.025.025.445.496zm-.076.064a.648.648 0 0 0 .089-.077l-.473-.469-.003.003-.008.006.395.537zm-.041.028.03-.02-.372-.553-.017.011.359.562zm-.031.018.031-.019-.359-.561-.013.009-.003.002.345.57zm-.026.015.003-.002-.3-.595-.029.015.004-.002.321.584zm-.006.004.007-.005-.321-.584-.011.007.325.582zm-.056.029c.025-.012.046-.024.055-.029l-.325-.582-.008.005-.002.001c-.001.001-.001.001 0 0l.281.605zm-.036.015a.324.324 0 0 0 .049-.022l-.003.002-.3-.595.007-.003.247.619zm-.032.012.032-.012-.249-.619-.009.004-.003.001.229.627zm-.012.005.012-.005-.229-.626-.025.009.241.621zm.002 0 .002-.001-.006.003-.236-.624-.028.012.268.61zm-.026.01.026-.011-.268-.611-.002.001.005-.002.239.623zm-.06.018a.359.359 0 0 0 .063-.019l-.003.001-.239-.623a.135.135 0 0 1 .032-.009h.001l.145.65zm-.082.01s.042.001.09-.011l-.163-.647c.042-.01.078-.009.073-.009v.667zm-.002 0h.001v-.667h-.001v.667zm.074-.01c-.037.009-.069.009-.072.009l-.002-.667c-.009 0-.045 0-.088.011l.163.647zm-.232.031a.941.941 0 0 0 .235-.031l-.168-.645a.276.276 0 0 1-.066.01v.667zm-.095-.323.134.305h-.001l-.004.002-.005.002-.017.006-.007.002a.087.087 0 0 1-.019.005h-.001.015v-.667h-.002a.791.791 0 0 0-.19.024l.005-.001-.036.012.003-.001-.005.003-.003.001-.001.001h-.001l.133.305zm.204.408c.035-.116.061-.192.089-.267l-.012.038.002-.004a.225.225 0 0 1-.03.042l-.507-.433c-.045.053-.071.115-.079.133l-.039.101a4.506 4.506 0 0 0-.062.193l.637.197zm-.003.011.003-.01-.637-.198-.003.01.637.198zm-1.73 1.453c.621 0 1.037-.255 1.305-.583.254-.311.364-.676.424-.87l-.637-.197c-.063.201-.142.447-.304.645-.148.181-.377.338-.789.338v.667zm-1.912-1.16c.316.426.845 1.16 1.912 1.16v-.667c-.701 0-1.05-.45-1.377-.891l-.535.397zm-.002-.004.002.003.536-.397-.003-.003-.535.397zm-.373-.385c.028 0 .038.003.041.004a.12.12 0 0 1 .037.025c.058.049.139.145.293.355l.537-.395c-.147-.199-.273-.363-.403-.472a.747.747 0 0 0-.492-.184h-.016.001v.667zm-.373.384c.155-.21.236-.307.295-.355a.141.141 0 0 1 .036-.024h.001a.112.112 0 0 1 .032-.004h.01v-.667a.75.75 0 0 0-.506.183c-.13.109-.257.272-.403.47l.535.397zm-.003.003.002-.003-.535-.397-.002.003.535.397zm-1.913 1.16c1.068 0 1.597-.733 1.913-1.16l-.535-.397c-.327.44-.675.891-1.378.891v.667zm-1.912-1.16c.316.427.845 1.16 1.912 1.16v-.667c-.701 0-1.05-.45-1.376-.89l-.536.397zm-.002-.003.003.003.535-.397-.003-.003-.535.397zm-.374-.384c.028 0 .038.003.041.004a.12.12 0 0 1 .037.025c.059.049.14.145.294.355l.537-.396c-.147-.199-.273-.362-.404-.471a.746.746 0 0 0-.491-.183h-.015.001v.667zm-.373.385c.155-.21.237-.307.296-.356a.13.13 0 0 1 .037-.024h.001a.123.123 0 0 1 .04-.004v-.667a.743.743 0 0 0-.505.184c-.13.109-.257.272-.404.471l.536.396zm-1.915 1.164c1.069 0 1.6-.737 1.915-1.164l-.537-.395c-.325.44-.675.893-1.378.893v.667zm-1.913-1.16c.317.427.845 1.16 1.913 1.16v-.667c-.702 0-1.051-.451-1.377-.891l-.535.397zm-.002-.004.003.003.535-.397-.003-.003-.535.397zm-.373-.384h.007c.012 0 .024.002.036.005h-.001a.12.12 0 0 1 .037.025c.059.049.14.145.294.354l.537-.395c-.147-.199-.273-.362-.403-.471a.746.746 0 0 0-.491-.183h-.016.001v.667zm-.374.384c.155-.21.237-.307.295-.355a.126.126 0 0 1 .036-.024h.001a.112.112 0 0 1 .032-.004h.009v-.667a.743.743 0 0 0-.505.184c-.13.109-.257.271-.404.47l.536.397zm-1.914 1.164c1.071 0 1.6-.737 1.914-1.164l-.536-.395c-.325.44-.674.893-1.378.893v.667zm-1.912-1.16c.316.426.845 1.16 1.912 1.16v-.667c-.701 0-1.05-.45-1.376-.891l-.536.397zm-.002-.004.002.003.535-.397-.002-.003-.535.397zm-.373-.384c.028 0 .038.003.041.005a.12.12 0 0 1 .037.025c.059.049.14.145.294.354l.537-.395c-.147-.199-.273-.362-.404-.471a.746.746 0 0 0-.491-.183h-.016.001v.667zm-.373.386c.155-.211.237-.307.295-.356a.134.134 0 0 1 .037-.025h.001a.104.104 0 0 1 .032-.004h.009v-.667a.745.745 0 0 0-.505.184c-.13.109-.257.273-.405.472l.537.396zm-1.915 1.163c1.069 0 1.6-.737 1.915-1.163l-.537-.396c-.325.44-.675.893-1.378.893v.667zm-1.911-1.16c.316.427.845 1.16 1.911 1.16v-.667c-.7 0-1.049-.45-1.376-.89l-.535.397zm-.003-.003.003.003.535-.397-.002-.003-.536.397zm-.373-.384c.029 0 .039.003.041.005a.125.125 0 0 1 .038.025c.058.049.139.145.293.355l.537-.396c-.147-.199-.273-.362-.403-.471a.747.747 0 0 0-.492-.184h-.015.001v.667zm-.374.385c.155-.21.237-.307.296-.356a.13.13 0 0 1 .037-.024h.001a.121.121 0 0 1 .034-.005h.007v-.667a.74.74 0 0 0-.505.185c-.131.109-.257.272-.405.471l.537.396zm-1.914 1.164c1.069 0 1.6-.737 1.915-1.164l-.537-.396c-.325.44-.675.893-1.378.893v.667zm-.968-.44c.234.27.577.44.96.44h.009v-.667h-.009a.6.6 0 0 1-.454-.208l-.001-.001-.505.435zm-.248-2.98c-.089.673-.16 1.253-.149 1.731.011.48.105.913.398 1.249l.503-.437c-.145-.167-.225-.413-.235-.827-.01-.417.053-.943.144-1.628l-.661-.088zm.003-.023-.003.023.661.087.003-.023-.661-.087zm.129-1.532c.013.148 0 .398-.029.693-.04.401-.075.688-.116.974l.016-.135.661.087c.032-.245.073-.56.103-.861.028-.293.048-.6.029-.816l-.664.059zm-3.066 4.443a15.84 15.84 0 0 1 1.694-2.662c.327-.408.656-.762.968-1.025.318-.268.589-.417.8-.458l-.129-.655c-.375.074-.75.308-1.1.603-.357.3-.716.69-1.059 1.118-.687.857-1.33 1.9-1.77 2.78l.596.299zm-.858.532a.96.96 0 0 0 .859-.533l-.597-.296a.292.292 0 0 1-.261.163v.667zm-.079-.004c.037.005.071.004.08.004v-.667h-.009l.013.001-.084.661zm-.824-.633c.13.363.463.613.847.635l.039-.666a.293.293 0 0 1-.257-.191l-.001-.002-.628.224zm-.061-6.257c-.709 1.097-.705 2.593-.537 3.801.17 1.226.523 2.246.599 2.457l.627-.225a11.902 11.902 0 0 1-.557-2.255l-.008-.068c-.164-1.177-.135-2.463.437-3.347l-.56-.362zm2.509-1.383c-1.083.071-1.964.541-2.509 1.383l.56.363c.414-.64 1.089-1.021 1.993-1.08l-.044-.665zm1.047-.268c.013-.034.001.025-.189.103-.173.071-.45.139-.858.165l.044.665c.456-.03.808-.107 1.067-.214.242-.1.465-.25.553-.469l-.617-.251zm-.147-.19a.703.703 0 0 1 .127.196.14.14 0 0 1 .011.038v.001c0 .001-.001-.017.01-.045l.617.251a.666.666 0 0 0-.015-.483 1.378 1.378 0 0 0-.247-.397l-.502.439zm-2.361-.539c1.072-.294 1.982.104 2.36.538l.503-.438c-.556-.638-1.735-1.101-3.039-.743l.177.643zm-3.884 4.735c.298-1.095.891-2.183 1.609-3.05.723-.873 1.543-1.486 2.274-1.685l-.175-.643c-.917.251-1.845.977-2.612 1.903-.773.933-1.414 2.105-1.739 3.301l.643.175zm.356 2.9c-.369-.383-.518-.895-.541-1.436s.081-1.078.185-1.464l-.643-.174c-.113.42-.235 1.031-.208 1.667s.206 1.33.727 1.87l.48-.463zm-.018 1.364a.972.972 0 0 0 .019-1.364l-.481.462a.305.305 0 0 1-.006.426l.468.475zm-1.362-.018a.955.955 0 0 0 1.36.02l-.465-.477a.29.29 0 0 1-.415-.005l-.48.463zm-.829-4.754c-.519 1.91-.263 3.623.829 4.753l.48-.463c-.873-.904-1.148-2.342-.667-4.115l-.643-.175zm5.233-6.091c-1.245.339-2.388 1.264-3.293 2.381-.908 1.121-1.604 2.469-1.941 3.711l.643.175c.311-1.145.961-2.411 1.815-3.465.857-1.058 1.891-1.869 2.95-2.158l-.175-.643zm4.309 1.129c-.823-.945-2.467-1.632-4.309-1.129l.175.643c1.593-.434 2.974.171 3.631.925l.503-.438zm.48 2.2c.303-.737.094-1.543-.48-2.2l-.502.438c.451.517.549 1.061.366 1.509l.617.253zm-2.699 1.462c.845-.055 1.453-.252 1.887-.525.438-.276.682-.62.813-.937l-.617-.253a1.34 1.34 0 0 1-.551.626c-.317.199-.81.373-1.576.424l.044.665zm-1.023.509c.191-.293.499-.474 1.023-.509l-.044-.665c-.677.045-1.205.298-1.539.811l.56.363zm-.12 3.17c-.117-.564-.203-1.19-.197-1.766.005-.585.104-1.075.317-1.405l-.56-.362c-.315.487-.418 1.129-.424 1.761-.006.64.089 1.316.212 1.907l.653-.135zm3.985-3.949c-.997-.031-1.924.593-2.683 1.347-.771.763-1.435 1.723-1.911 2.495l.567.35c.465-.753 1.097-1.661 1.813-2.371.729-.721 1.482-1.176 2.193-1.153l.021-.667zm.947.46a1.277 1.277 0 0 0-.944-.46h-.002l-.023.666a.617.617 0 0 1 .457.22l.511-.427zm.369.997c-.035-.373-.135-.718-.37-.998l-.51.429c.115.138.189.333.216.631l.664-.062zm5.796-2.172c-3.368.343-5.107 1.12-6.313 1.926l.371.555c1.101-.735 2.731-1.483 6.01-1.817l-.067-.663zM24.509.925c-.347.413-7.183 8.811-3.546 23.681l.648-.159C18.042 9.858 24.752 1.672 25.02 1.354l-.511-.429zm.055-.052c-.001.001-.019.015-.037.033l.473.469-.016.015-.005.004-.415-.521zm-.05.052a.382.382 0 0 1 .037-.042l.013-.011.415.521a.415.415 0 0 0 .069-.07l.001-.001-.535-.398zm.109-.11a.834.834 0 0 0-.087.084l.492.45a.345.345 0 0 1 .028-.026h.001l-.433-.507zm.07-.056a.551.551 0 0 0-.09.075l.473.469-.011.009-.373-.553zm.08-.049c-.018.011-.049.027-.081.049l.372.553a.663.663 0 0 1 .033-.021l.003-.001-.327-.581zm.014-.007-.013.007.327.581.013-.007-.327-.581zm.066-.036c-.039.017-.071.038-.081.044l.356.564.007-.004.002-.001-.011.005-.273-.608zm.146-.05a.998.998 0 0 0-.146.049l.006-.002.261.613c.012-.005.026-.009.04-.013h.002L25 .617zm-.003.002.003-.001a.22.22 0 0 1 .032-.007h.001l.095.659c.043-.007.08-.02.081-.02l-.213-.632zm-.003.001zm.028-.009-.025.008.212.632.002-.001-.005.001-.185-.64zm.224-.027h-.003a.954.954 0 0 0-.208.023l.006-.001.146.651a.273.273 0 0 1 .059-.007V.583zm.104.003-.093-.003-.023.667.093.003.023-.667zm.722.342a.954.954 0 0 0-.733-.343h-.001v.667c.087 0 .167.037.223.104l.511-.428zm3.578 23.564C33.222 9.695 26.418 1.339 26.071.928l-.509.43c.267.317 6.944 8.46 3.439 22.979l.648.157zm10.426 4.272c-.04-.149-.376-1.19-1.891-2.26-1.51-1.066-4.172-2.147-8.84-2.422l-.04.665c4.585.271 7.116 1.327 8.496 2.302 1.375.971 1.627 1.874 1.631 1.888l.643-.173zm.006.027a.173.173 0 0 1 .005.029v.005c.001.001.001.001 0 0v-.005l-.001-.01a.373.373 0 0 0-.008-.041l.001.003-.647.16c-.002-.007-.005-.017-.006-.026V28.9s0-.001 0 0v.005l.002.011a.365.365 0 0 0 .007.04l-.001-.002.648-.16zm.015.091-.009-.061-.66.1.01.062.659-.1zm.01.117a.72.72 0 0 0-.01-.113l-.66.093.002.014.001.008V29h.667zm-.001-.025.001.025h-.667l.001.035.664-.06zm0-.003-.001-.005-.663.075.001.005.663-.075zm.001.013-.002-.019v.002l-.661.082c0 .001 0 0 0 0l-.001-.007.664-.058zm.001.034v-.001l-.001-.034v.001l-.664.059-.001-.025h.667zm-.001.037.001-.037h-.667v-.012l.665.048zm-.004.037.004-.037-.665-.049v-.003l-.001.006.661.083zm0 .004v-.003l-.661-.083v.004l.661.082zm.001-.016v-.002l-.665-.047v.002l.665.047zm-.014.112a.63.63 0 0 0 .013-.111l-.665-.047-.001.013-.001.008v-.001l.653.138zm-.002.011a.181.181 0 0 0 .004-.022l.001-.004-.658-.109v.003l.653.131zm-.004.019.004-.02-.653-.131-.001.005.651.146zm-.009.038.009-.037-.651-.146-.007.032.002-.008.647.16zm-.007.025.003-.011-.64-.188-.003.011.64.188zm-.001.004.002-.007-.641-.182-.002.008.641.181zm-.027.078c.015-.035.023-.067.027-.078l-.642-.181-.002.006-.001.005.003-.007.617.254zm-12.546-3.337h-1.62v.667h1.62v-.667zM25.585 3.653c1.797 3.093 5.127 10.94 1.59 22.613l.638.193c3.603-11.889.216-19.928-1.652-23.142l-.576.335zm.621 22.711V3.487h-.667v22.878h.667zm-1.254 0V3.653h-.667v22.712h.667zm-1.862.333h1.529v-.667H23.09v.667zm1.239-23.209c-1.881 3.327-5.091 11.313-1.558 22.973l.638-.193c-3.469-11.447-.313-19.245 1.5-22.451l-.58-.328zm13.089 26.015-.003.011.637.197.003-.01-.637-.198zm.361.43zm.244-1.48c-.386.343-.533.817-.605 1.051l.637.198c.075-.241.179-.545.411-.749l-.443-.499zM28.984 26c6.302.327 8.383 2.125 8.997 2.909l.525-.411c-.775-.989-3.075-2.831-9.487-3.164l-.035.665zm-.115 1.292c.164-.52.314-1.031.453-1.537l-.643-.177a33.482 33.482 0 0 1-.529 1.809l.083-.295.636.201zm-.916.675c.42 0 .789-.275.915-.674l-.636-.201a.297.297 0 0 1-.28.209v.667zm-5.327 0h5.327V27.3h-5.327v.667zm-.915-.674a.962.962 0 0 0 .915.673v-.667a.294.294 0 0 1-.279-.206l-.001-.002-.635.201zm-.422-1.432c.131.469.27.946.422 1.431l.636-.199a43.756 43.756 0 0 1-.415-1.411l-.643.179zm-6.05 2.437c.542-.423 1.15-.872 2.111-1.265.965-.395 2.3-.74 4.291-.93l-.063-.663c-2.039.193-3.441.55-4.481.976-1.043.428-1.707.92-2.268 1.357l.41.525zm.112-.11.013-.109-.66-.087a2.148 2.148 0 0 0-.015.112l.661.084zm-.024.183.023-.183-.661-.084c-.015.13-.023.19-.031.249l.009-.075.66.092zm-.133 1.491c-.017-.342.07-1.016.133-1.493l-.661-.088c-.059.447-.16 1.197-.139 1.614l.667-.033zm-.183-.645c-.199.271-.275.347-.32.375l.34.573c.184-.109.339-.311.517-.553l-.537-.395zm.002-.004-.002.003.535.397.003-.003-.536-.397zm1.914-1.16c-1.068 0-1.597.733-1.913 1.16l.536.397c.327-.44.675-.89 1.377-.89v-.667zm1.912 1.16c-.316-.427-.845-1.16-1.912-1.16v.667c.701 0 1.05.45 1.377.89l.535-.397zm.002.003-.002-.003-.535.397.002.003.535-.397zm.373.385h-.007a.134.134 0 0 1-.035-.005h.001a.12.12 0 0 1-.037-.025c-.059-.049-.14-.145-.293-.355l-.537.396c.147.199.273.362.404.471a.747.747 0 0 0 .506.184V29.6zm.373-.385c-.155.21-.236.307-.295.355a.13.13 0 0 1-.037.024h-.001a.121.121 0 0 1-.034.005h-.007v.667a.743.743 0 0 0 .505-.184c.13-.109.257-.272.403-.47l-.535-.397zm.003-.003-.002.003.535.397.002-.003-.535-.397zm1.913-1.16c-1.068 0-1.597.733-1.913 1.16l.535.397c.327-.44.675-.89 1.378-.89v-.667zm1.912 1.16c-.316-.427-.845-1.16-1.912-1.16v.667c.701 0 1.05.45 1.376.89l.536-.397zm.002.003-.002-.003-.536.397.003.003.535-.397zm.374.385h-.006a.127.127 0 0 1-.034-.005h.001a.12.12 0 0 1-.037-.025c-.059-.049-.14-.145-.296-.355l-.535.397c.147.199.274.361.404.47.156.13.317.184.505.184V29.6zm.373-.385c-.155.21-.237.307-.295.355a.13.13 0 0 1-.037.024h-.001a.121.121 0 0 1-.034.005h-.008v.667a.746.746 0 0 0 .506-.184c.13-.109.257-.272.403-.47l-.535-.397zm1.914-1.163c-1.07 0-1.599.737-1.914 1.163l.536.396c.325-.44.674-.893 1.378-.893v-.667zm1.912 1.16c-.316-.427-.845-1.16-1.911-1.16v.667c.7 0 1.049.45 1.376.89l.535-.397zm.003.004-.003-.003-.535.397.002.003.536-.397zm.374.385h-.007a.134.134 0 0 1-.035-.005h.001a.125.125 0 0 1-.038-.025c-.059-.049-.14-.145-.295-.356l-.536.396c.147.2.274.363.405.472a.748.748 0 0 0 .507.184v-.667zm.374-.384c-.155.21-.237.307-.295.355-.023.019-.034.023-.037.025a.112.112 0 0 1-.032.004h-.009v.667a.743.743 0 0 0 .505-.184c.13-.109.257-.271.404-.47l-.536-.397zm.002-.003-.003.003.536.397.002-.003-.535-.397zm1.914-1.16c-1.068 0-1.597.733-1.913 1.16l.535.397c.327-.44.675-.891 1.378-.891v-.667zm1.911 1.16c-.316-.426-.845-1.16-1.911-1.16v.667c.7 0 1.049.45 1.376.891l.535-.397zm.003.003-.003-.003-.535.397.002.003.536-.397zm.373.384h-.007a.134.134 0 0 1-.035-.005h.001a.125.125 0 0 1-.038-.025c-.058-.049-.139-.145-.293-.354l-.537.395c.147.199.273.362.403.471a.747.747 0 0 0 .506.184v-.667zm.375-.385c-.155.211-.237.307-.295.356a.13.13 0 0 1-.037.024h-.001a.121.121 0 0 1-.034.005h-.008v.667a.747.747 0 0 0 .506-.184c.131-.109.257-.273.405-.472l-.536-.396zm1.914-1.164c-1.069 0-1.599.737-1.914 1.163l.536.396c.325-.44.676-.893 1.378-.893v-.667zm1.913 1.16c-.316-.427-.845-1.16-1.913-1.16v.667c.703 0 1.052.45 1.378.89l.535-.397zm.003.003-.003-.003-.535.397.002.003.536-.397zm.373.385h-.006a.134.134 0 0 1-.035-.005h.001a.125.125 0 0 1-.038-.025c-.059-.049-.14-.145-.295-.355l-.536.397c.147.199.275.361.405.47.156.13.317.184.505.184V29.6zm.095.322-.134-.305h.001l.004-.002.005-.002a.155.155 0 0 1 .023-.008h.001a.087.087 0 0 1 .019-.005h.001-.015v.667h.001a.8.8 0 0 0 .191-.024l-.005.001.036-.012-.003.001.005-.002.003-.001h.001v-.001l-.133-.305zm-.204-.408a4.408 4.408 0 0 1-.089.268l.012-.038.006-.009a.192.192 0 0 1 .023-.031l.507.433c.045-.053.07-.115.078-.133.014-.032.027-.068.039-.101.023-.067.047-.141.063-.193l-.637-.197z" style="fill:var(--color2, #222532)"/><path fill="currentColor" stroke="#222532" stroke-width=".667" d="M4.859 20.757c-.08-.097-.807-.937-1.739-.937-.431 0-1.047.179-1.531 1.028l-.541.949h4.68l-.869-1.041z" style="fill:var(--color1, currentColor);stroke:var(--color2, #222532)"/><path fill="currentColor" d="m3.643 23.05.644.068-.081.649c-.237 1.753-2.068 3.603-2.147 3.681l-.848.848-.21-1.187c-.249-1.395-.072-2.468.525-3.188.835-1.008 2.117-.871 2.117-.871zM2.49 24.733a1.373 1.373 0 0 0-.252.501c.133-.201.261-.411.371-.623a1.212 1.212 0 0 0-.118.12l-.001.002z" style="fill:var(--color1, currentColor)"/><path fill="#222532" d="m4.287 23.118.331.041.042-.337-.338-.036-.035.332zm-.644-.068v-.001zm.562.717.331.045v-.003l-.331-.041zm-2.146 3.681.236.236.001-.001-.237-.235zm-.848.848-.328.058.111.63.453-.452-.236-.236zm-.21-1.187zm.525-3.188zm.712 1.314-.32-.093-.036.124.057.116.299-.147zm.252-.502.256.213.002-.002-.258-.211zm-.252.502-.3.147.257.522.321-.485-.277-.184zm.371-.624.296.153-.518-.402.222.249zm1.713-1.825-.645-.068-.07.663.645.068.07-.663zm.214 1.022.082-.649-.662-.083-.081.649.661.083zm-2.24 3.875c.045-.045.536-.541 1.047-1.253.506-.703 1.063-1.658 1.193-2.618l-.661-.089c-.107.793-.584 1.639-1.073 2.318-.482.671-.946 1.14-.98 1.173l.473.469zm-.849.849.848-.848-.471-.472-.848.849.471.471zm-.774-1.365.21 1.187.657-.116-.21-1.187-.657.116zm.596-3.459c-.687.827-.854 2.017-.597 3.46l.656-.118c-.241-1.349-.054-2.304.453-2.916l-.513-.427zm2.374-.659.035-.331H3.67l-.015-.002a2.399 2.399 0 0 0-.176-.006l-.059.001h.003c-.15.003-.358.02-.595.071a2.753 2.753 0 0 0-1.558.927l.513.425c.357-.43.81-.619 1.185-.7a2.439 2.439 0 0 1 .606-.055H3.57l.032.002h.007s0 .001 0 0h-.001l.035-.331zm-1.085 2.278a1.04 1.04 0 0 1 .188-.381l-.511-.428a1.686 1.686 0 0 0-.314.61l-.003.012.64.187zm-.021-.24zm-.224-.63a6.168 6.168 0 0 1-.368.615l.014-.023.555.368c.138-.207.273-.428.39-.654l-.592-.307zm.435.487a.813.813 0 0 1 .083-.085l-.444-.497a1.416 1.416 0 0 0-.153.157l-.002.002.515.423z" style="fill:var(--color2, #222532)"/><path fill="currentColor" d="M8.471 19.527c0 .661-.535 1.2-1.19 1.2a1.196 1.196 0 0 1-1.189-1.195v-.005c0-.661.533-1.199 1.189-1.199.657 0 1.19.538 1.19 1.2zm-1.124 0a.067.067 0 0 0-.065-.067.065.065 0 0 0-.065.065v.001c0 .073.13.073.13 0z" style="fill:var(--color1, currentColor)"/><path fill="#222532" d="M7.281 21.06a1.53 1.53 0 0 0 1.523-1.53v-.003h-.667c0 .48-.388.867-.857.867v.667zm-1.522-1.533v.005a1.53 1.53 0 0 0 1.522 1.529v-.667a.862.862 0 0 1-.855-.862v-.005h-.667zm1.522-1.532a1.53 1.53 0 0 0-1.522 1.529v.005h.667c0-.48.387-.867.855-.867v-.667zm1.524 1.533v-.005c0-.842-.681-1.526-1.523-1.529v.667c.47 0 .857.387.857.867h.667zm-1.524.267H7.28a.267.267 0 0 1-.267-.267h.667a.4.4 0 0 0-.399-.4v.667zm.269-.267a.27.27 0 0 1-.269.267v-.667a.4.4 0 0 0-.398.4h.667zm-.537 0c0-.095.048-.178.114-.227a.257.257 0 0 1 .155-.053c.04 0 .098.011.155.053a.285.285 0 0 1 .113.227h-.667c0 .131.065.24.155.307a.408.408 0 0 0 .489-.001l-.001.001a.384.384 0 0 0 .154-.307v-.001h-.667z" style="fill:var(--color2, #222532)"/></symbol><symbol id="travel" viewBox="0 0 50 32"><path fill="currentColor" d="M48.242 21.601v2.664c.553.113.97.597.97 1.175v.957c0 .582-.417 1.065-.97 1.177v.024h-6.366c-.352 2.172-2.252 3.838-4.544 3.838s-4.191-1.666-4.541-3.838H15.937c-.352 2.172-2.252 3.838-4.544 3.838S7.2 29.768 6.85 27.598l-4.425.002H2.42a1.209 1.209 0 0 1-1.209-1.201v-.958a1.21 1.21 0 0 1 1.214-1.201h.725V13.446c0-3.309 2.72-6 6.063-6l5.595-.004V5.529C8.906 4.972 3.907 3.932 2.393 2.435a.707.707 0 0 1-.128-.846l-.002.004a.73.73 0 0 1 .777-.375l-.004-.001c4.826.855 12.33.97 19.031.97 1.824 0 3.645-.005 5.465-.015l-.282.001c.886-.003 1.745-.006 2.569-.006l6.244.002c4.226 0 6.828-.028 10.203-.191l.031-.001c.33 0 .609.217.702.516l.001.005a.717.717 0 0 1-.339.825l-.004.002c-.487.27-1.093.521-1.81.753v1.471c0 .651-.377 1.213-.924 1.481l-.01.004a1.693 1.693 0 0 1-1.775-.151l-2.347-1.722c-2.989.431-6.689.704-10.943.802v1.481l5.089-.002c3.243 0 6.233 1.073 8.634 2.879l.199.153a14.282 14.282 0 0 1 4.485 5.955l.034.096.006.012.014.032.042.11.036.093.29.744h-.042a13.99 13.99 0 0 1 .608 4.081zm-13.333-5.518H45.51a12.931 12.931 0 0 0-3.422-4.3l-.023-.018H34.91a.246.246 0 0 0-.242.239v3.838c0 .13.111.241.242.241zm8.485-10.546V4.49l.222-.047c-.537.134-1.079.254-1.829.394l1.22.893a.226.226 0 0 0 .254.024l.001-.001a.222.222 0 0 0 .134-.204v-.011zM25.299 3.623c-1.053.003-2.133.007-3.231.007-4.305 0-8.941-.049-13.015-.31 3.913.732 9.54 1.249 16.159 1.249 6.083 0 11.404-.352 15.265-.973-1.316.015-2.738.02-4.412.02l-6.247-.006c-1.133 0-2.331.004-3.578.01l-.941.003zm-9.036 2.036v1.788h11.131V5.992c-.714.01-1.441.016-2.182.016-2.951 0-6.031-.118-8.949-.349zm-8.021 21.22c0 1.72 1.413 3.119 3.152 3.119s3.152-1.398 3.152-3.118-1.413-3.119-3.152-3.119-3.152 1.397-3.152 3.118zm29.091 3.119c1.739 0 3.151-1.398 3.151-3.119s-1.413-3.119-3.151-3.119c-1.739 0-3.151 1.398-3.151 3.119s1.413 3.119 3.151 3.119zm0-7.677c2.291 0 4.193 1.666 4.543 3.838h5.881v-.48h-4.364V24.24h3.394v-2.638a12.53 12.53 0 0 0-.682-4.079H34.908a1.69 1.69 0 0 1-1.697-1.68v-3.839a1.69 1.69 0 0 1 1.697-1.679h4.956c-1.719-.907-3.758-1.44-5.921-1.44H9.212c-2.542 0-4.608 2.047-4.608 4.56v2.638h7.307v1.439H4.604v6.717h.97v1.439H2.665v.48h4.183c.353-2.172 2.253-3.838 4.544-3.838s4.193 1.666 4.543 3.838h16.853c.352-2.172 2.252-3.838 4.543-3.838z" style="fill:var(--color1, currentColor)"/><path fill="#222532" d="m48.242 24.265.081.279.209-.061v-.218h-.291zm0 0-.081-.279.023.564.058-.285zm0 3.309-.058-.285-.233.047v.238h.291zm0 .025v.291h.291v-.291h-.291zm-6.366 0v-.291h-.247l-.04.244.287.047zm-9.086 0 .288-.047-.039-.244h-.248v.291zm-16.853 0v-.291h-.247l-.04.244.287.047zm-9.087 0 .287-.047-.039-.244H6.85v.291zm-3.699 0zm-.726.002v.291h.001v-.291zm.726-3.36v.291h.291v-.291h-.291zM9.213 7.447zm5.595-.004v.291h.291v-.291h-.291zm0-1.913h.291v-.265l-.264-.025-.027.29zM2.393 2.436h.001zm-.13-.842v-.001zm.772-.375zm23.199.96zm1.015-.004zm0 0zm0 0zm0 0h.001zm0 0zm2.569-.006zm6.242.002zm10.205-.191-.012-.291h-.003l.015.291zm.734.521zm-.342.827zm-1.81.753-.09-.277-.201.065v.212h.291zm-.934 2.958zm-1.775-.15zm-2.347-1.722.172-.235-.096-.071-.117.017.042.288zm-10.942.801-.007-.291-.284.007v.284h.291zm0 1.481h-.291v.291h.291v-.291zm5.088-.002zm8.635 2.879.178-.231-.003-.002-.175.233zm.198.153.179-.23h-.001l-.178.23zm4.519 6.051-.271.107.005.013.007.013.26-.131zm.006.012.269-.111-.004-.01-.005-.01-.26.132zm.014.032.274-.097-.003-.008-.003-.007-.269.111zm.041.11-.271.107v.001l.271-.108zm0 0 .272-.105-.001-.004-.271.109zm0 0-.272.105.002.003.27-.108zm0 0 .272-.105-.001-.003-.271.108zm0 0-.272.106.002.003.27-.109zm0 0 .272-.107-.001-.001-.271.108zm.036.093-.273.1.003.006.272-.106zm.29.743v.291h.426l-.155-.396-.271.105zm-.042 0v-.291h-.393l.114.376.278-.085zm-2.124-1.437v.291h.465l-.204-.419-.262.128zm-3.445-4.318.184-.226-.081-.065h-.103v.291zm1.194-6.012zm.135-.216zm-.388.194.173-.235h-.001l-.172.234zm-1.22-.895-.054-.285-.657.125.539.395.173-.235zm1.608-.346h.291v-.37l-.36.087.069.283zm-18.095-.867h.001zm0 0zm-3.231.007-.026-.29.026.581V3.63zm0 0 .027.29-.027-.582v.291zM9.053 3.319l.019-.29-.073.577.053-.286zm31.424.277.047.287-.049-.578.003.291zm-4.414.02zm-6.245-.006zm-3.578.01h.001zm-9.975 2.039.022-.291-.314-.024v.315h.291zm11.13.334h.291v-.295l-.295.004.004.291zm0 1.454v.291h.291v-.291h-.291zm-11.131 0h-.291v.291h.291v-.291zM41.877 26.16l-.287.047.04.244h.247v-.291zm5.882 0v.291h.291v-.291h-.291zm0-.48h.291v-.291h-.291v.291zm-4.364 0h-.291v.291h.291v-.291zm0-1.439v-.291h-.291v.291h.291zm3.394 0v.291h.291v-.291h-.291zm-.682-6.718.275-.095-.068-.196h-.208v.291zm-6.241-7.197v.291l.134-.55-.134.259zm-35.26 5.757h-.291v.291h.291v-.291zm7.307 0h.291v-.291h-.291v.291zm0 1.44v.291h.291v-.291h-.291zm-7.307 0v-.291h-.291v.291h.291zm0 6.718h-.291v.291h.291v-.291zm.97 0h.291v-.291h-.291v.291zm0 1.439v.291h.291v-.291h-.291zm-2.909 0v-.291h-.291v.291h.291zm0 .48h-.291v.291h.291v-.291zm4.183 0v.291h.248l.039-.244-.287-.047zm9.087 0-.287.047.039.244h.248v-.291zm16.853 0v.291h.247l.039-.244-.287-.047zm15.743-1.895v-2.664h-.582v2.664h.582zm-.21.279zm1.18.896c0-.721-.52-1.322-1.202-1.46l-.116.57a.914.914 0 0 1 .737.89h.582zm0 .957v-.957h-.582v.957h.582zm-1.202 1.462a1.498 1.498 0 0 0 1.202-1.462h-.582a.914.914 0 0 1-.731.891l-.006.001.116.57zm.232-.26v-.024h-.582v.024h.582zm-6.657.29h6.366v-.582h-6.366v.582zm-4.543 3.84c2.436 0 4.456-1.771 4.831-4.082l-.574-.093a4.306 4.306 0 0 1-4.257 3.594v.582zm-4.829-4.083c.373 2.312 2.395 4.082 4.829 4.082v-.582c-2.148 0-3.926-1.561-4.254-3.594l-.574.093zm-16.566.244h16.853v-.582H15.938v.582zm-4.544 3.839c2.436 0 4.456-1.771 4.831-4.082l-.574-.093a4.307 4.307 0 0 1-4.257 3.594v.582zm-4.83-4.083c.372 2.311 2.395 4.082 4.83 4.082v-.582c-2.148 0-3.928-1.563-4.256-3.594l-.574.093zm-3.413.244H6.85v-.582h-3.7v.582zm-.724.002.725-.002-.001-.582-.725.002.001.582zM.921 26.399a1.5 1.5 0 0 0 1.505 1.492v-.582h-.005a.918.918 0 0 1-.918-.91H.921zm0-.958v.958h.582v-.958H.921zm1.505-1.491a1.5 1.5 0 0 0-1.505 1.491h.582c0-.499.412-.91.923-.91v-.582zm.725 0h-.725v.582h.725v-.582zm-.29-10.503V24.24h.582V13.447h-.582zm6.352-6.291c-3.501 0-6.353 2.819-6.353 6.29h.582c0-3.145 2.587-5.709 5.772-5.709v-.582zm5.595-.004-5.596.004v.582l5.595-.004v-.582zm-.291-1.622v1.913h.582V5.53h-.582zM2.189 2.642c.418.413 1.055.777 1.842 1.1.793.324 1.76.616 2.857.877 2.195.521 4.936.921 7.893 1.2l.054-.579c-2.943-.277-5.653-.675-7.813-1.188-1.079-.256-2.015-.54-2.77-.849-.76-.31-1.315-.639-1.654-.975l-.409.414zm-.184-1.184c-.208.393-.133.873.184 1.185l.407-.416a.42.42 0 0 1-.077-.499l-.001.002-.514-.272zM3.087.933a1.018 1.018 0 0 0-1.077.518l-.003.005.514.274a.439.439 0 0 1 .467-.225h-.003l.102-.573zm18.979.964c-6.707 0-14.185-.114-18.98-.964l-.102.572c4.856.86 12.387.974 19.082.974v-.582zm4.167-.01c-1.344.007-2.744.01-4.167.01v.582c1.425 0 2.825-.003 4.17-.01l-.003-.582zm1.015-.003-1.015.004.002.582 1.015-.004-.002-.582zm0 0zm0 0zm0 0zm0 0zm0 0h.001zm0 0 .003.582-.002-.582zm2.57-.006c-.824 0-1.683.003-2.57.006l.003.582c.885-.003 1.744-.006 2.567-.006v-.582zm6.242.002-6.242-.002v.582l6.242.002V1.88zm.002 0h-.002v.582h.002V1.88zm10.189-.191c-3.368.163-5.965.191-10.189.191v.582c4.228 0 6.834-.028 10.217-.191l-.028-.582zm1.028.731a1.028 1.028 0 0 0-.983-.732l-.044.001h.002l.022.582h.02c.198 0 .365.129.423.308l.001.003.559-.161zm-.48 1.162a1.008 1.008 0 0 0 .479-1.168l.002.007-.559.162a.426.426 0 0 1-.202.489l-.002.001.281.509zm-1.862.776c.728-.237 1.353-.495 1.862-.776l-.283-.509c-.465.258-1.052.502-1.759.731l.179.554zm.2 1.179V4.082h-.582v1.455h.582zm-1.095 1.762a1.942 1.942 0 0 0 1.096-1.746v-.016.001h-.582c0 .537-.285.998-.773 1.241l.26.521zm-.898.216c.306 0 .611-.074.899-.216l-.26-.521a1.422 1.422 0 0 1-.64.155v.582zm-1.178-.392c.352.259.763.392 1.178.392v-.582a1.4 1.4 0 0 1-.834-.279l-.344.469zm-2.347-1.722 2.347 1.722.344-.469-2.347-1.722-.344.469zm-10.764.858c4.261-.097 7.974-.372 10.977-.805l-.082-.576c-2.973.429-6.662.702-10.908.799l.014.582zm.284 1.19V5.968h-.582v1.481h.582zm4.798-.293-5.089.002v.582l5.089-.002v-.582zm8.81 2.938a14.514 14.514 0 0 0-8.79-2.938h-.021.001v.582a14.03 14.03 0 0 1 8.46 2.822l.349-.465zm.202.155-.199-.153-.356.461.199.154.356-.461zm4.612 6.177c-.993-2.499-2.574-4.583-4.579-6.152l-.032-.024-.358.46a14.003 14.003 0 0 1 4.394 5.834l.033.094.543-.211zm-.006-.015-.006-.011-.519.262.006.012.519-.262zm.022.052-.014-.032-.537.223.014.033.537-.223zm.044.113a2.05 2.05 0 0 1-.032-.078l-.007-.021-.548.194.046.119.541-.213zm0 0v-.001zm0 .003-.542.209.543-.209zm0-.003zm.001.003zm-.001-.003zm.039.101a2.302 2.302 0 0 0-.049-.127l.01.027-.541.213.033.086.547-.2zm.288.739-.291-.745-.541.211.289.744.543-.21zm-.314.395h.042v-.582h-.042v.582zm.899 3.79c0-1.446-.218-2.845-.621-4.165l-.557.17c.378 1.195.595 2.569.595 3.994v.002h.582zm-3.023-5.808H34.909v.582H45.51v-.582zm0 0zm-3.629-3.802a12.607 12.607 0 0 1 3.335 4.148l.033.073.522-.256a13.214 13.214 0 0 0-3.499-4.397l-.024-.019-.367.452zm-6.972.065h7.156v-.582h-7.156v.582zm.049-.051v.003a.052.052 0 0 1-.014.036.049.049 0 0 1-.033.013h-.002v-.582a.536.536 0 0 0-.533.53h.582zm0 3.838v-3.838h-.582v3.838h.582zm-.049-.05h.002c.013 0 .024.005.033.013a.055.055 0 0 1 .014.036v.003h-.582c0 .293.245.53.533.53v-.582zm8.479-9.779a.529.529 0 0 0 .219-.194l.001-.002a.525.525 0 0 0 .077-.274v-.008h-.582l.001-.004a.088.088 0 0 1 .025-.04c.004-.004.005-.004.001-.002l.258.522zm-.555-.049a.547.547 0 0 0 .31.109.53.53 0 0 0 .248-.061l-.003.001-.258-.521c-.004.002-.004.001.001 0l.017-.002c.011 0 .021.002.03.006h-.001c.005.002.005.003 0 0l-.344.468zm-1.219-.894 1.22.894.344-.469-1.22-.893-.344.468zm1.711-.864a31.74 31.74 0 0 1-1.593.343l.109.572a29.929 29.929 0 0 0 1.846-.398l-.224.047-.138-.565zm.36 1.33V4.49h-.582v1.047h.582zM25.301 3.914zm-3.233.007c1.098 0 2.179-.004 3.233-.007l-.002-.582c-1.054.003-2.134.007-3.231.007v.582zm-.026-.581zm-13.007.271c4.084.261 8.728.309 13.034.309v-.582c-4.303 0-8.932-.049-12.996-.309l-.038.582zm16.177.665c-6.606 0-12.214-.516-16.105-1.243L9 3.605c3.933.736 9.579 1.253 16.211 1.253v-.582zm15.219-.969c-3.841.618-9.144.97-15.219.97v.582c6.093 0 11.429-.353 15.312-.977l-.092-.574zm-4.366.599c1.675 0 3.098-.006 4.416-.02l-.007-.582c-1.315.015-2.736.02-4.409.02v.582zm-.002 0h.002v-.582h-.002v.582zM29.818 3.9l6.245.006v-.582l-6.245-.006V3.9zm-3.576.01c1.246-.006 2.444-.01 3.576-.01v-.582c-1.133 0-2.332.004-3.578.01l.002.582zm-.941.003.941-.003-.002-.582-.941.003.002.582zm-.089 1.804c-2.943 0-6.015-.118-8.926-.349l-.046.582c2.927.23 6.013.349 8.972.349v-.582zm2.178-.015c-.713.01-1.439.015-2.178.015v.582c.742 0 1.471-.005 2.186-.015l-.008-.582zm.295 1.745V5.992h-.582v1.455h.582zm-11.422.291h11.131v-.582H16.263v.582zm-.291-2.079v1.788h.582V5.659h-.582zm-4.578 24.049c-1.581 0-2.861-1.271-2.861-2.829h-.582c0 1.884 1.546 3.409 3.442 3.409v-.582zm2.861-2.829c0 1.557-1.28 2.828-2.861 2.828v.582c1.897 0 3.442-1.525 3.442-3.409h-.582zm-2.861-2.828c1.581 0 2.861 1.27 2.861 2.828h.582c0-1.884-1.546-3.409-3.442-3.409v.582zm-2.861 2.828c0-1.557 1.28-2.828 2.861-2.828v-.582c-1.897 0-3.442 1.525-3.442 3.409h.582zm25.358 0c0 1.884 1.546 3.409 3.442 3.409v-.582c-1.581 0-2.861-1.27-2.861-2.828h-.582zm3.442-3.409c-1.897 0-3.442 1.525-3.442 3.409h.582c0-1.557 1.28-2.828 2.861-2.828v-.582zm3.443 3.409c0-1.884-1.546-3.409-3.442-3.409v.582c1.581 0 2.861 1.27 2.861 2.828h.582zm-3.443 3.409c1.897 0 3.442-1.525 3.442-3.409h-.582c0 1.557-1.28 2.828-2.861 2.828v.582zm4.831-4.175c-.373-2.312-2.395-4.082-4.831-4.082v.582c2.148 0 3.928 1.561 4.257 3.594l.574-.093zm5.594-.244h-5.881v.582h5.881v-.582zm-.291-.189v.48h.582v-.48h-.582zm-4.073.29h4.364v-.582h-4.364v.582zm-.291-1.729v1.439h.582v-1.439h-.582zm3.685-.291h-3.394v.582h3.394v-.582zm-.291-2.347v2.638h.582v-2.638h-.582zm-.666-3.986c.43 1.253.666 2.591.666 3.985h.582c0-1.461-.248-2.863-.698-4.175l-.55.189zm-10.922.197h11.197v-.582H34.909v.582zm-1.988-1.97a1.98 1.98 0 0 0 1.988 1.97v-.582a1.4 1.4 0 0 1-1.406-1.389h-.582zm0-3.838v3.838h.582v-3.839h-.582zm1.988-1.971a1.98 1.98 0 0 0-1.988 1.97h.582a1.4 1.4 0 0 1 1.406-1.389v-.582zm4.956 0h-4.956v.582h4.956v-.582zm-5.928-.858c2.089 0 4.06.511 5.795 1.407l.267-.517c-1.758-.928-3.842-1.472-6.053-1.472h-.009v.582zm-24.723 0h24.723v-.582H9.214v.582zm-4.317 4.27c0-2.35 1.934-4.27 4.317-4.27v-.582c-2.7 0-4.899 2.174-4.899 4.851h.582zm0 2.637v-2.638h-.582v2.638h.582zm7.016-.291H4.606v.582h7.307v-.582zm.291 1.73v-1.44h-.582v1.44h.582zm-7.598.291h7.307v-.582H4.606v.582zm.291 6.427v-6.718h-.582v6.717h.582zm.679-.291h-.97v.582h.97v-.582zm.291 1.73v-1.439h-.582v1.439h.582zm-3.2.29h2.909v-.582H2.667v.582zm.291.19v-.48h-.582v.48h.582zm3.892-.291H2.667v.582H6.85v-.582zm4.544-3.838c-2.436 0-4.456 1.771-4.831 4.082l.574.093a4.307 4.307 0 0 1 4.257-3.594v-.582zm4.831 4.082c-.373-2.312-2.395-4.082-4.831-4.082v.582c2.148 0 3.928 1.561 4.257 3.594l.574-.093zm16.564-.244H15.937v.582H32.79v-.582zm4.544-3.838c-2.435 0-4.456 1.771-4.831 4.082l.575.093a4.306 4.306 0 0 1 4.256-3.594v-.582z" style="fill:var(--color2, #222532)"/><path fill="currentColor" d="M23.03 12.005v3.838a1.69 1.69 0 0 1-1.697 1.68h-4.848a1.69 1.69 0 0 1-1.697-1.68v-3.838c0-.926.761-1.68 1.697-1.68h4.849a1.69 1.69 0 0 1 1.697 1.68zm-6.788 0v3.838c0 .132.111.241.242.241h4.849a.245.245 0 0 0 .242-.239v-3.839a.244.244 0 0 0-.242-.239h-4.849a.246.246 0 0 0-.242.239z" style="fill:var(--color1, currentColor)"/><path fill="#222532" d="M23.321 15.843v-3.838h-.582v3.838h.582zm-1.988 1.97a1.98 1.98 0 0 0 1.988-1.97h-.582a1.4 1.4 0 0 1-1.406 1.389v.582zm-4.848 0h4.848v-.582h-4.849v.582zm-1.988-1.97c0 1.09.894 1.97 1.988 1.97v-.582a1.398 1.398 0 0 1-1.406-1.388h-.582zm0-3.838v3.838h.582v-3.838h-.582zm1.988-1.971a1.98 1.98 0 0 0-1.988 1.97h.582a1.4 1.4 0 0 1 1.406-1.389v-.582zm4.848 0h-4.848v.582h4.849v-.582zm1.988 1.971a1.98 1.98 0 0 0-1.981-1.97h-.007v.582a1.4 1.4 0 0 1 1.406 1.389h.582zm-6.788 3.838v-3.838h-.582v3.838h.582zm-.048-.05c.017 0 .027.007.034.013s.015.019.015.039h-.582c0 .296.246.53.533.53v-.582zm4.848 0h-4.848v.582h4.849v-.582zm-.048.05c0-.019.009-.032.015-.038a.049.049 0 0 1 .033-.013h.001v.582a.536.536 0 0 0 .533-.53h-.582zm0-3.838v3.838h.582v-3.838h-.582zm.048.051h-.001a.049.049 0 0 1-.033-.013.054.054 0 0 1-.015-.037v-.002h.582a.535.535 0 0 0-.533-.53v.582zm-4.848 0h4.848v-.582h-4.849v.582zm.048-.051v.002a.056.056 0 0 1-.015.037.049.049 0 0 1-.033.013h-.001v-.582a.536.536 0 0 0-.533.53h.582z" style="fill:var(--color2, #222532)"/><path fill="currentColor" d="M25.697 10.325h4.848a1.69 1.69 0 0 1 1.697 1.679v3.838a1.69 1.69 0 0 1-1.697 1.68h-4.848A1.69 1.69 0 0 1 24 15.842v-3.838c0-.926.761-1.68 1.697-1.68zm4.848 5.758a.245.245 0 0 0 .242-.239v-3.839a.244.244 0 0 0-.242-.239h-4.849a.246.246 0 0 0-.242.239v3.838c0 .13.111.24.242.24h4.848z" style="fill:var(--color1, currentColor)"/><path fill="#222532" d="M30.545 10.034h-4.848v.582h4.849v-.582zm1.988 1.971a1.98 1.98 0 0 0-1.981-1.97h-.007v.582a1.4 1.4 0 0 1 1.406 1.389h.582zm0 3.838v-3.838h-.582v3.838h.582zm-1.988 1.97a1.98 1.98 0 0 0 1.988-1.97h-.582a1.4 1.4 0 0 1-1.406 1.389v.582zm-4.848 0h4.848v-.582h-4.849v.582zm-1.988-1.97c0 1.09.894 1.97 1.988 1.97v-.582a1.398 1.398 0 0 1-1.406-1.388h-.582zm0-3.838v3.838h.582v-3.838h-.582zm1.988-1.971a1.98 1.98 0 0 0-1.988 1.97h.582a1.4 1.4 0 0 1 1.406-1.389v-.582zm4.8 5.809c0-.019.009-.032.015-.038a.049.049 0 0 1 .033-.013h.001v.582a.536.536 0 0 0 .533-.53h-.582zm0-3.838v3.838h.582v-3.838h-.582zm.048.051h-.001a.049.049 0 0 1-.033-.013.054.054 0 0 1-.015-.037v-.002h.582a.535.535 0 0 0-.533-.53v.582zm-4.848 0h4.848v-.582h-4.849v.582zm.048-.051v.002a.056.056 0 0 1-.015.037.049.049 0 0 1-.033.013h-.001v-.582a.536.536 0 0 0-.533.53h.582zm0 3.838v-3.838h-.582v3.838h.582zm-.048-.05h.001c.013 0 .024.005.033.013.009.01.015.022.015.037v.002h-.582c0 .293.245.53.533.53v-.582zm4.848 0h-4.848v.582h4.849v-.582z" style="fill:var(--color2, #222532)"/><path fill="currentColor" d="M35.394 26.879c0-1.059.87-1.92 1.939-1.92s1.939.863 1.939 1.92c0 1.059-.87 1.919-1.939 1.919s-1.939-.86-1.939-1.92zm1.455 0c0 .264.218.48.485.48s.485-.216.485-.48a.483.483 0 0 0-.483-.48h-.002a.483.483 0 0 0-.485.48z" style="fill:var(--color1, currentColor)"/><path fill="#222532" d="M37.333 24.669a2.22 2.22 0 0 0-2.23 2.21h.582a1.64 1.64 0 0 1 1.648-1.629v-.582zm2.231 2.21a2.224 2.224 0 0 0-2.23-2.211v.582c.911 0 1.648.735 1.648 1.629h.582zm-2.231 2.21c1.228 0 2.23-.988 2.23-2.211h-.582a1.64 1.64 0 0 1-1.648 1.629v.582zm-2.23-2.211a2.222 2.222 0 0 0 2.23 2.211v-.582a1.64 1.64 0 0 1-1.648-1.629h-.582zm2.23.19a.192.192 0 0 1-.194-.189h-.582c0 .428.351.771.776.771v-.582zm.194-.189a.192.192 0 0 1-.192.189h-.002v.582a.774.774 0 0 0 .776-.771h-.582zm-.194-.189c.11 0 .194.087.194.189h.582a.774.774 0 0 0-.774-.771h-.002v.582zm-.194.189c0-.101.084-.189.194-.189v-.582a.774.774 0 0 0-.776.771h.582z" style="fill:var(--color2, #222532)"/><path fill="currentColor" d="M9.455 26.879c0-1.059.869-1.92 1.939-1.92s1.939.863 1.939 1.92c0 1.059-.869 1.919-1.939 1.919s-1.939-.863-1.939-1.92zm1.454 0c0 .264.218.48.485.48s.485-.216.485-.48a.483.483 0 0 0-.483-.48h-.002a.483.483 0 0 0-.485.48z" style="fill:var(--color1, currentColor)"/><path fill="#222532" d="M11.394 24.669a2.22 2.22 0 0 0-2.23 2.21h.582a1.64 1.64 0 0 1 1.649-1.629v-.582zm2.23 2.21a2.224 2.224 0 0 0-2.23-2.211v.582c.912 0 1.649.735 1.649 1.629h.582zm-2.23 2.21c1.228 0 2.23-.988 2.23-2.211h-.582a1.64 1.64 0 0 1-1.649 1.629v.582zm-2.23-2.211a2.223 2.223 0 0 0 2.23 2.211v-.582a1.642 1.642 0 0 1-1.649-1.629h-.582zm2.23.19a.192.192 0 0 1-.194-.189h-.582c0 .428.351.771.776.771v-.582zm.194-.189a.192.192 0 0 1-.192.189h-.002v.582a.774.774 0 0 0 .776-.771h-.582zm-.194-.189c.11 0 .194.087.194.189h.582a.774.774 0 0 0-.774-.771h-.002v.582zm-.194.189c0-.101.084-.189.194-.189v-.582a.774.774 0 0 0-.776.771h.582z" style="fill:var(--color2, #222532)"/><path fill="currentColor" stroke="#222532" stroke-width=".582" d="M16.727 24.239h15.03v1.44h-15.03v-1.44z" style="fill:var(--color1, currentColor);stroke:var(--color2, #222532)"/></symbol><symbol id="camp" viewBox="0 0 31 32"><path fill="currentColor" d="M28.025 21.459H22.5a.323.323 0 1 0 0 .646h5.525a.323.323 0 1 0 0-.646zm0 4.101h-6.194a.323.323 0 1 0 0 .646h6.194a.323.323 0 1 0 0-.646zM2.987 23.795h4.995a.324.324 0 1 0 0-.648H2.987a.323.323 0 0 0-.321.323v.001c0 .18.144.324.321.324zM5.163.357a.32.32 0 0 1 .37.061.325.325 0 0 1 .058.376l.001-.002c-.189.37-.3.808-.3 1.271v.003a2.876 2.876 0 0 0 2.867 2.876c.443 0 .871-.103 1.271-.302a.32.32 0 0 1 .37.061.326.326 0 0 1 .059.376l.001-.002a3.493 3.493 0 0 1-3.135 1.96h-.006A3.52 3.52 0 0 1 3.21 3.511V3.5c0-1.37.786-2.557 1.933-3.134l.02-.009zm3.589 5.181c-.177.032-.38.051-.588.051h-.006A3.517 3.517 0 0 1 4.701 1.47a2.85 2.85 0 0 0-.849 2.033v.008a2.875 2.875 0 0 0 2.867 2.877h.008c.793 0 1.509-.325 2.024-.849zm19.274 10.735c.177.001.32.144.32.321v.003l-.013 2.773a.325.325 0 0 1-.227.309l.002-.001a.319.319 0 0 1-.361-.127l-1.873-2.785v2.604a.323.323 0 0 1-.321.323H18.19l-.006.021a2.914 2.914 0 0 1-2.715 2.04l-.007.001h-.037l-.013.001a2.918 2.918 0 0 1-2.778-2.063H5.485a.323.323 0 0 1-.321-.324v-2.603L3.29 19.552a.322.322 0 0 1-.265.14.325.325 0 0 1-.321-.324v-.001l.011-2.895c0-.177.144-.321.321-.322h.001c.177.001.32.145.32.322v.003l-.008 1.833L15.252.613c.12-.178.412-.178.531 0l11.911 17.708.008-1.728c0-.177.144-.321.321-.322h.001zm-12.537 4.834c.545-.021.983-.469.983-1.019 0-.368-.537-1.215-1.021-1.853-.484.639-1.021 1.485-1.021 1.853.001.559.45 1.012 1.008 1.021l.047-.002h.004zm1.623-1.02c0 .096-.012.187-.027.278.367-.405.593-.939.591-1.527 0-.969-1.46-3.032-2.265-4.059-.803 1.027-2.265 3.091-2.265 4.059 0 .637.265 1.213.687 1.627a1.698 1.698 0 0 1-.047-.377v-.001c0-.819 1.18-2.291 1.416-2.579a.331.331 0 0 1 .494-.001c.237.287 1.415 1.76 1.415 2.579zm-1.451-6.028c.271.33 2.659 3.272 2.658 4.779 0 .071-.005.141-.01.21h3.47v-2.133a22.809 22.809 0 0 1-3.213-3.28c-1.141-1.425-2.443-3.437-3.034-5.733-.591 2.295-1.893 4.309-3.035 5.733a22.822 22.822 0 0 1-3.212 3.28v2.133h3.232l-.003-.059c-.003-.05-.007-.1-.007-.151 0-1.507 2.387-4.449 2.659-4.779a.331.331 0 0 1 .494 0zm6.758 4.989h2.813l.002-3.235L15.52 1.374l-9.713 14.44v3.233h2.835v-2.29c0-.101.047-.195.125-.256s6.442-5.09 6.442-11.041c0-.178.145-.323.321-.323s.321.145.321.323c0 5.949 6.36 10.976 6.442 11.041.077.06.126.153.126.257v2.291z" style="fill:var(--color1, currentColor)"/><path fill="currentColor" d="M20.397 22.955a.325.325 0 0 1-.2.414l-.002.001-1.187.395 1.141.325a.324.324 0 0 1 .22.405l.001-.002-.41 1.393a.32.32 0 0 1-.397.217l.002.001-4.085-1.164-3.749 1.25a.318.318 0 0 1-.401-.198l-.001-.002-.473-1.374a.324.324 0 0 1 .2-.412l.002-.001.991-.33-1.19-.339a.324.324 0 0 1-.22-.406l-.001.002.41-1.393a.321.321 0 0 1 .397-.219l-.002-.001 4.134 1.178 3.945-1.315a.32.32 0 0 1 .403.199l.001.002.473 1.374zm-8.824-.728-.228.772 1.791.511 1.353-.451-2.916-.831zm8.087 2.396-1.74-.497-1.355.451 2.867.818.228-.773zm-8.093.092.262.762 7.855-2.619-.262-.762-7.855 2.619z" style="fill:var(--color1, currentColor)"/></symbol><symbol id="shop" viewBox="0 0 15 32"><path fill="currentColor" d="M3.077 12.666c0 8.134 2.919 13.647 3.042 13.878l.121.225h3.074l.121-.225c.124-.231 3.043-5.745 3.043-13.878 0-8.05-3.337-12.393-4.701-12.394-1.364.001-4.701 4.344-4.701 12.393zM7.351 1.408v13.396h.855V1.408c1.094.977 3.418 4.529 3.418 11.258 0 2.246-.236 4.295-.572 6.084-.495-.704-1.404-1.662-3.061-2.609-4.029-2.302-3.98-5.463-3.977-5.597h-.001c.42-5.363 2.366-8.268 3.338-9.137zM4.015 14.907a28.682 28.682 0 0 1-.069-1.521l-.001-.033c.611 1.136 1.695 2.431 3.62 3.532 2.736 1.563 3.204 3.11 3.216 3.149a31.22 31.22 0 0 1-.732 2.705l.064-.229c-.36-.638-.994-1.422-2.115-2.09-3.375-2.009-3.908-4.925-3.983-5.513zm4.191 11.007v-2.991h-.855v2.991H6.76c-.385-.793-1.654-3.631-2.354-7.73.655 1.002 1.646 2.071 3.153 2.97 1.658.987 2.058 2.225 2.142 2.581a23.34 23.34 0 0 1-.905 2.18h-.591z" style="fill:var(--color1, currentColor)"/><path d="M7.778.273V.197v.077zm1.658 26.272zm-.121.224v.077h.046l.022-.041-.068-.037zm-3.074 0-.068.036.022.041h.046v-.077zm-.122-.224zM7.35 1.408l-.025-.073-.052.018v.055h.077zm0 0 .052.057-.076-.13.025.073zm0 13.396h-.076v.077h.077v-.077zm.856 0v.077h.077v-.077h-.077zm0-13.396.051-.057-.128-.114v.172h.077zm2.846 17.343-.063.044.105.15.034-.179-.075-.015zm-3.061-2.609zm-3.977-5.597.077.002.002-.079h-.079v.077zm-.001 0-.076-.006-.006.083h.082v-.077zm-.067 2.808.068-.036-.145.038.077-.002zm.069 1.554-.077.006v.004l.077-.01zm3.551 1.977-.038.067.038-.066zm3.216 3.15zm0 0 .075.018.004-.02-.006-.02-.073.023zm-.669 2.476-.066.038.087.154.054-.169-.074-.023zm-2.115-2.09zm.798 5.495v.076h.132l-.066-.115-.066.038zm-.59 0h-.077v.076h.077v-.077zm.59-.001-.07-.033-.018.036.02.035.066-.038zm.905-2.179.072.026.008-.022-.005-.022-.075.017zm-2.142-2.581h.001zm-3.153-2.97.064-.042-.14.055.076-.013zm2.354 7.73-.07.034.021.043h.049v-.077zm.591 0v.077h.077v-.077h-.077zm0-2.991v-.077h-.077v.077h.077zm.855 0h.077v-.077h-.077v.077zM7.778.197c-.19 0-.406.075-.634.214s-.476.345-.732.615c-.511.54-1.06 1.342-1.566 2.393C3.836 5.522 3 8.631 3 12.667h.154c0-4.014.832-7.102 1.831-9.182.5-1.041 1.04-1.828 1.538-2.354a3.55 3.55 0 0 1 .7-.59c.215-.13.402-.191.554-.191V.196zm4.778 12.469c0-4.035-.837-7.145-1.846-9.249-.505-1.051-1.054-1.852-1.566-2.393a3.665 3.665 0 0 0-.732-.615C8.183.271 7.968.196 7.778.195v.154c.151 0 .338.062.554.191.214.13.452.326.7.59.498.526 1.039 1.313 1.538 2.354.999 2.08 1.831 5.167 1.831 9.182h.154zM9.503 26.581c.127-.236 3.052-5.763 3.052-13.914h-.154c0 8.115-2.913 13.617-3.034 13.841l.135.073zm-.12.225.121-.225-.135-.073-.121.224.135.073zm-3.142.04h3.074v-.154H6.241v.154zm-.189-.264.121.224.135-.073-.121-.225-.135.073zM3 12.666c0 8.151 2.925 13.678 3.052 13.914l.135-.073c-.121-.225-3.034-5.726-3.034-13.842h-.154zM7.274 1.408zm.052-.073zm.076.13zm.026 13.339V1.408h-.154v13.396h.154zm.778-.077h-.855v.154h.855v-.154zM8.129 1.408v13.396h.154V1.408h-.154zm3.572 11.258c0-6.745-2.33-10.321-3.444-11.316l-.103.114c1.074.959 3.393 4.488 3.393 11.201h.154zm-.574 6.099a32.94 32.94 0 0 0 .574-6.098h-.154c0 2.24-.236 4.285-.571 6.07l.151.029zm-3.174-2.556c1.647.942 2.548 1.892 3.036 2.586l.126-.088c-.502-.714-1.42-1.68-3.086-2.632l-.076.134zm-4.016-5.666c-.004.15-.047 3.345 4.015 5.666l.076-.134c-3.996-2.283-3.941-5.412-3.938-5.529l-.153-.004zm.076.079h.001v-.154h-.001v.154zm3.286-9.271c-.991.885-2.942 3.809-3.362 9.188l.153.012c.418-5.35 2.358-8.233 3.312-9.086l-.103-.114zm-3.43 12.003c.012.529.033 1.05.07 1.558l.154-.011a28.509 28.509 0 0 1-.069-1.518l-.001-.033-.154.004zm3.735 3.464c-1.912-1.094-2.986-2.378-3.591-3.502l-.135.073c.618 1.148 1.713 2.454 3.65 3.562l.076-.134zm3.252 3.194c-.017-.057-.498-1.62-3.252-3.194l-.076.134c2.718 1.553 3.174 3.084 3.18 3.105l.148-.044zm0 0zm-.669 2.521c.23-.732.46-1.565.67-2.481l-.15-.034a30.712 30.712 0 0 1-.731 2.699l.063-.229.147.046zm-2.228-2.047c1.108.66 1.734 1.434 2.088 2.062l.134-.076c-.366-.649-1.009-1.443-2.143-2.118l-.079.132zm-4.021-5.569c.076.6.617 3.543 4.02 5.569l.079-.132c-3.347-1.993-3.873-4.881-3.946-5.457l-.153.02zm4.858 10.921h-.591v.154h.591v-.154zm-.067.115zm.899-2.244c-.32.896-.624 1.613-.962 2.311l.06-.138.138.066c.17-.352.516-1.105.908-2.186l-.145-.052zM7.52 21.22c1.636.974 2.025 2.192 2.105 2.533l.15-.035c-.087-.371-.497-1.63-2.177-2.63l-.079.132zm-3.179-2.994c.661 1.011 1.661 2.089 3.179 2.994l.079-.132c-1.497-.892-2.48-1.953-3.129-2.946l-.129.084zm2.487 7.655c-.382-.788-1.649-3.62-2.347-7.711l-.151.026c.702 4.108 1.973 6.954 2.36 7.751l.138-.068zm.522-.043h-.591v.154h.591v-.154zm-.077-2.915v2.991h.154v-2.991h-.154zm.932-.077H7.35V23h.855v-.154zm.077 3.068v-2.991h-.154v2.991h.154z" style="fill:var(--color3, #000)"/></symbol><symbol id="arrow-left-prev" viewBox="0 0 38 32"><path fill="currentColor" d="M13.376.858.859 13.277c-.532.53-.861 1.263-.861 2.072s.329 1.543.86 2.072l12.517 12.427a2.979 2.979 0 0 0 4.183 0c.53-.53.858-1.263.858-2.072s-.328-1.542-.858-2.072l-7.322-7.264h23.488a3.069 3.069 0 0 0 0-6.136H10.193l7.366-7.302c.531-.53.859-1.262.859-2.071S18.09 1.39 17.559.86a2.966 2.966 0 0 0-2.094-.861 2.97 2.97 0 0 0-2.091.858z" style="fill:var(--color1, currentColor)"/></symbol><symbol id="arrow-right" viewBox="0 0 38 32"><path fill="currentColor" d="m23.419 29.847 12.515-12.419c.532-.53.861-1.263.861-2.072s-.329-1.543-.86-2.072L23.421.859c-.538-.53-1.277-.856-2.092-.856S19.775.33 19.236.86c-.53.53-.858 1.263-.858 2.072s.328 1.542.858 2.072l7.323 7.264H3.068a3.069 3.069 0 0 0 0 6.136h23.534l-7.368 7.302c-.531.53-.859 1.262-.859 2.071s.328 1.541.859 2.071a2.966 2.966 0 0 0 2.094.861 2.97 2.97 0 0 0 2.091-.858z" style="fill:var(--color1, currentColor)"/></symbol><symbol id="arrow-right-next" viewBox="0 0 38 32"><path fill="currentColor" d="m24.178 29.847 12.515-12.419c.532-.53.861-1.263.861-2.072s-.329-1.543-.86-2.072L24.179.859c-.538-.53-1.277-.856-2.092-.856S20.533.33 19.994.86c-.53.53-.858 1.263-.858 2.072s.328 1.542.858 2.072l7.323 7.264H3.827a3.069 3.069 0 0 0 0 6.136h23.534l-7.368 7.302c-.531.53-.859 1.262-.859 2.071s.328 1.541.859 2.071a2.966 2.966 0 0 0 2.094.861 2.97 2.97 0 0 0 2.091-.858z" style="fill:var(--color1, currentColor)"/></symbol><symbol id="down-arrows" viewBox="0 0 21 24"><path fill="currentColor" d="M10.307 23.888c.398-.04.775-.2 1.078-.46l8.139-6.977a1.937 1.937 0 0 0-1.093-3.447 1.94 1.94 0 0 0-1.426.504l-6.88 5.899-6.88-5.9a1.94 1.94 0 0 0-2.78.17 1.937 1.937 0 0 0 .26 2.774l8.14 6.977c.399.342.92.507 1.442.46ZM10.307 10.888c.398-.04.775-.2 1.078-.46l8.139-6.977a1.937 1.937 0 1 0-2.52-2.943l-6.879 5.898L3.245.508a1.94 1.94 0 0 0-2.78.17 1.937 1.937 0 0 0 .26 2.774l8.14 6.976c.399.342.92.507 1.442.46Z"/></symbol><symbol id="search" viewBox="0 0 24 24"><path fill="currentColor" fill-rule="evenodd" d="M23.33 23.33a2.285 2.285 0 0 0 0-3.232l-4.716-4.716c-.335-.335-.422-.944-.197-1.36 0 0-.015.063.15-.301a9.68 9.68 0 0 0 .862-4.007A9.713 9.713 0 0 0 9.714 0 9.713 9.713 0 0 0 0 9.714a9.713 9.713 0 0 0 9.714 9.715 9.669 9.669 0 0 0 3.996-.857c.368-.166.31-.152.31-.152.422-.226 1.027-.141 1.362.194l4.716 4.716c.893.893 2.34.893 3.232 0ZM15.143 9.714a5.429 5.429 0 1 1-10.858 0 5.429 5.429 0 0 1 10.858 0Z" clip-rule="evenodd"/></symbol></defs></svg>