<svg aria-hidden="true" style="position: absolute; width: 0; height: 0; overflow: hidden;" version="1.1" xmlns="http://www.w3.org/2000/svg" xmlns:xlink="http://www.w3.org/1999/xlink">
<defs>
<symbol id="surf" viewBox="0 0 41 32">
<path fill="#fff" style="fill: var(--color1, #fff)" d="M39.732 29.241c-0.007 0.021-0.015 0.040-0.025 0.057l0.001-0.002c-0.008 0.020-0.021 0.036-0.037 0.048l-0 0c-0.008 0.013-0.016 0.024-0.023 0.034l0.001-0.002-0.011 0.016c-0.013 0.015-0.027 0.033-0.041 0.049-0.034 0.034-0.071 0.066-0.111 0.094l-0.003 0.002c-0.006 0.004-0.018 0.011-0.030 0.018l-0.007 0.004-0.009 0.005c-0.030 0.018-0.065 0.034-0.101 0.046l-0.003 0.001c-0.007 0.003-0.015 0.006-0.024 0.008l-0.002 0c-0.003 0.001-0.007 0.001-0.009 0.001h-0.009c-0.045 0.013-0.097 0.021-0.15 0.021h-0c-0.071 0-0.095 0.011-0.095 0.011-0.029 0.033-0.081 0.203-0.115 0.309l-0.003 0.011c-0.122 0.395-0.378 1.218-1.411 1.218-0.884 0-1.323-0.592-1.644-1.025l-0.003-0.003c-0.301-0.409-0.415-0.52-0.641-0.52-0.227 0-0.339 0.111-0.641 0.519l-0.003 0.003c-0.321 0.433-0.76 1.025-1.645 1.025-0.884 0-1.323-0.593-1.644-1.025l-0.002-0.003c-0.301-0.408-0.416-0.519-0.641-0.519s-0.339 0.111-0.641 0.52c-0.32 0.433-0.76 1.029-1.647 1.029-0.885 0-1.324-0.592-1.645-1.025l-0.002-0.003c-0.301-0.408-0.415-0.519-0.641-0.519s-0.339 0.111-0.641 0.519c-0.32 0.433-0.759 1.029-1.647 1.029-0.883 0-1.322-0.592-1.643-1.025l-0.003-0.003c-0.301-0.408-0.415-0.519-0.641-0.519-0.224 0-0.338 0.111-0.641 0.52-0.32 0.434-0.76 1.029-1.647 1.029-0.883 0-1.323-0.592-1.644-1.025l-0.002-0.003c-0.301-0.408-0.415-0.519-0.641-0.519-0.224 0-0.339 0.111-0.641 0.521-0.32 0.433-0.76 1.029-1.647 1.029-0.002 0-0.005 0-0.008 0-0.282 0-0.535-0.125-0.707-0.323l-0.001-0.001c-0.437-0.503-0.349-1.36-0.169-2.718l0.003-0.023c0.064-0.491 0.163-1.24 0.13-1.605-1.171 0.231-2.833 2.6-3.695 4.323-0.104 0.208-0.316 0.348-0.56 0.348v0c-0.012 0-0.025 0-0.037-0.001-0.255-0.015-0.468-0.182-0.551-0.41l-0.001-0.004c-0.144-0.402-1.377-3.983-0.095-5.963 0.48-0.74 1.257-1.167 2.251-1.231 0.864-0.057 1.259-0.291 1.334-0.476 0.050-0.123-0.030-0.333-0.205-0.535-0.467-0.537-1.511-0.967-2.7-0.641-1.647 0.449-3.495 2.679-4.117 4.969-0.218 0.805-0.453 2.296 0.437 3.219 0.11 0.114 0.177 0.27 0.177 0.441 0 0.178-0.073 0.338-0.19 0.454l-0 0c-0.112 0.111-0.267 0.179-0.437 0.179-0.177 0-0.337-0.074-0.45-0.192l-0-0c-0.983-1.017-1.248-2.593-0.748-4.434 0.647-2.387 2.695-5.229 5-5.857 1.717-0.469 3.229 0.177 3.969 1.027 0.513 0.587 0.667 1.263 0.423 1.855-0.211 0.514-0.801 1.15-2.413 1.256-0.6 0.040-1.019 0.256-1.281 0.66-0.529 0.816-0.407 2.264-0.167 3.419 0.941-1.523 2.592-3.737 4.301-3.683 0.276 0.010 0.525 0.13 0.701 0.34s0.262 0.48 0.293 0.815c1.154-0.771 2.838-1.533 6.162-1.872-3.603-14.73 3.17-23.022 3.477-23.387l0.007-0.007c0.026-0.042 0.062-0.076 0.105-0.097l0.001-0.001c0.020-0.013 0.039-0.023 0.059-0.035l0.013-0.008c0.013-0.008 0.025-0.015 0.039-0.022 0.025-0.011 0.055-0.021 0.086-0.029l0.004-0.001 0.022-0.006c0.043-0.011 0.092-0.018 0.142-0.018h0l0.093 0.003c0.185 0 0.359 0.081 0.478 0.223 0.307 0.363 7.047 8.613 3.509 23.272 9.253 0.547 10.385 4.273 10.429 4.436 0.002 0.007 0.002 0.015 0.003 0.021l0.009 0.062c0.003 0.022 0.007 0.044 0.007 0.067-0 0.001-0 0.001-0 0.002s0 0.001 0 0.002v-0 0.005l0.001 0.005v0.005c0 0 0 0.001 0 0.001 0 0.011-0.001 0.022-0.003 0.032l0-0.001v0.006c-0.002 0.033-0.006 0.065-0.014 0.095l0.001-0.003-0.007 0.031-0.003 0.011-0.002 0.007c-0.004 0.017-0.009 0.030-0.014 0.044l0.001-0.003zM25.872 26.365h1.621c3.57-11.782 0.211-19.725-1.621-22.878v22.878zM24.618 3.653c-1.847 3.267-5.030 11.159-1.529 22.712h1.529v-22.712zM37.733 29.613l0.003-0.010c0.073-0.237 0.199-0.627 0.507-0.9-0.694-0.887-2.885-2.706-9.242-3.037-0.138 0.501-0.287 1.009-0.45 1.525-0.082 0.257-0.318 0.44-0.597 0.441h-5.328c-0.279-0.001-0.515-0.184-0.596-0.437l-0.001-0.004c-0.058-0.136-0.201-0.61-0.337-1.087l-0.081-0.333c-4.031 0.383-5.473 1.403-6.575 2.264l-0.015 0.111c-0.007 0.058-0.015 0.117-0.023 0.179-0.061 0.462-0.155 1.173-0.136 1.553 0.114-0.068 0.23-0.207 0.419-0.463l0.002-0.003c0.321-0.433 0.76-1.025 1.645-1.025 0.884 0 1.323 0.592 1.644 1.025l0.003 0.003c0.301 0.408 0.415 0.519 0.641 0.519s0.339-0.111 0.641-0.519l0.003-0.003c0.321-0.433 0.76-1.025 1.645-1.025 0.884 0 1.323 0.592 1.644 1.025l0.002 0.003c0.303 0.408 0.417 0.519 0.641 0.519 0.226 0 0.339-0.111 0.641-0.519 0.32-0.433 0.759-1.028 1.647-1.028 0.883 0 1.323 0.592 1.643 1.025l0.003 0.003c0.303 0.41 0.417 0.521 0.643 0.521s0.339-0.111 0.641-0.519l0.002-0.003c0.321-0.433 0.76-1.025 1.646-1.025 0.883 0 1.323 0.592 1.644 1.025l0.002 0.003c0.301 0.408 0.415 0.519 0.641 0.519s0.34-0.111 0.643-0.52c0.32-0.434 0.76-1.029 1.647-1.029 0.885 0 1.324 0.592 1.645 1.025l0.002 0.003c0.303 0.408 0.417 0.519 0.641 0.519 0.071 0 0.095-0.011 0.095-0.011 0.029-0.033 0.081-0.203 0.115-0.309z"></path>
<path fill="#222532" style="fill: var(--color2, #222532)" d="M39.708 29.296l-0.293-0.159 0.505 0.416-0.212-0.257zM39.732 29.241l-0.309-0.127-0.004 0.011-0.004 0.011 0.317 0.105zM39.709 29.296l0.299 0.148-0.511-0.405 0.212 0.257zM39.671 29.345l-0.186-0.276-0.058 0.039-0.038 0.060 0.282 0.177zM39.649 29.377v0zM39.638 29.393l0.261 0.207 0.007-0.008 0.006-0.009-0.274-0.19zM39.597 29.441l0.237 0.235 0.007-0.007 0.005-0.006-0.249-0.222zM39.558 29.479l-0.223-0.248-0.007 0.007-0.007 0.007 0.237 0.235zM39.508 29.522l0.186 0.277 0.005-0.004 0.006-0.004-0.197-0.269zM39.485 29.537v0zM39.461 29.552l0.15 0.298 0.012-0.006 0.011-0.007-0.173-0.285zM39.447 29.559h-0.001zM39.437 29.565v0zM39.404 29.582l-0.14-0.302-0.005 0.002-0.005 0.003 0.15 0.297zM39.385 29.591v0zM39.363 29.599v0zM39.345 29.606l0.118 0.312 0.003-0.001-0.12-0.311zM39.333 29.611v0zM39.321 29.616v0zM39.307 29.62l-0.073-0.325-0.009 0.003 0.082 0.323zM39.298 29.621v-0.333h-0.001l0.001 0.333zM39.29 29.621l-0.081-0.323h-0.003l0.084 0.323zM39.043 29.653l-0.134-0.305-0.069 0.031-0.049 0.057 0.253 0.217zM38.929 29.963v0zM38.926 29.973v0zM35.871 30.166v0zM35.869 30.163l-0.269 0.197 0.001 0.001 0.267-0.199zM34.587 30.161v0zM34.584 30.165l-0.267-0.199 0.267 0.198zM31.295 30.165l0.268-0.199-0.268 0.198zM31.293 30.161l-0.269 0.198h0.001l0.268-0.198zM30.010 30.163v0zM26.718 30.166v0zM26.716 30.163l-0.269 0.198 0.001 0.001 0.268-0.199zM25.433 30.163v0zM22.143 30.166v0zM22.141 30.163l-0.268 0.198v0.001l0.268-0.199zM20.859 30.165v0zM17.568 30.167v0zM17.566 30.165v0zM16.283 30.166v0zM13.921 30.87l0.253-0.217-0.001-0.001-0.251 0.219zM13.751 28.152v0zM13.755 28.129v0zM13.885 26.524l0.332-0.029-0.033-0.369-0.363 0.071 0.065 0.327zM10.189 30.847l-0.298-0.149-0.001 0.001 0.299 0.148zM9.592 31.193l0.042-0.331-0.011-0.002h-0.011l-0.019 0.333zM9.040 30.779l0.314-0.112v-0.001l-0.313 0.113zM8.945 24.815v0zM11.196 23.584v0zM12.53 23.108v0zM12.325 22.573v0zM9.625 21.933v0zM5.508 26.902v0zM5.945 30.121v0zM5.933 31.016v0zM5.045 31.003l0.24-0.231-0.24 0.231zM4.297 26.569v0zM9.297 20.711v0zM13.267 21.738v0zM13.69 23.593v0zM11.277 24.849v0.001zM9.997 25.509l-0.28-0.182v0.001l0.28 0.181zM9.83 28.927l-0.327 0.068 0.171 0.82 0.44-0.713-0.284-0.175zM14.131 25.244l0.011-0.333h-0.001l-0.011 0.333zM14.831 25.584l-0.255 0.213v0.001l0.255-0.214zM15.125 26.399l-0.332 0.031 0.052 0.557 0.465-0.31-0.185-0.277zM21.287 24.527l0.033 0.332 0.381-0.039-0.091-0.372-0.324 0.080zM24.764 1.14l-0.237-0.235-0.010 0.010-0.009 0.010 0.255 0.215zM24.771 1.133v0zM24.781 1.124l-0.247-0.225-0.011 0.013-0.011 0.013 0.268 0.199zM24.839 1.069l0.217 0.253 0.010-0.009 0.010-0.010-0.237-0.235zM24.879 1.035v0zM24.937 1.001v0zM24.951 0.993l0.163 0.291 0.007-0.004 0.007-0.005-0.177-0.282zM24.99 0.971l-0.131-0.307-0.006 0.003 0.137 0.304zM25.081 0.941l-0.047-0.33-0.017 0.003-0.017 0.004 0.081 0.323zM25.103 0.935l0.107 0.316 0.003-0.001-0.109-0.315zM25.103 0.935l-0.107-0.316-0.003 0.001 0.109 0.315zM25.113 0.931l-0.073-0.325-0.009 0.002-0.009 0.003 0.092 0.32zM25.245 0.917l0.011-0.333h-0.011v0.333zM25.338 0.92l-0.011 0.333h0.011v-0.333zM25.816 1.143l-0.255 0.213 0.001 0.001 0.255-0.215zM29.325 24.415l-0.324-0.078-0.093 0.387 0.398 0.024 0.020-0.333zM39.753 28.851l0.324-0.080-0.002-0.007-0.322 0.087zM39.757 28.872l0.33-0.050-0.003-0.015-0.003-0.015-0.324 0.080zM39.766 28.934l0.33-0.047v-0.004l-0.33 0.051zM39.773 29.005l-0.332 0.031 0.001 0.007 0.331-0.037zM39.773 29.010l-0.331 0.037v0.003l0.331-0.041zM39.774 29.015v0zM39.774 29.031v0zM39.771 29.051v0.001zM39.771 29.056l-0.331-0.042-0.001 0.009-0.001 0.009 0.332 0.023zM39.771 29.058v0zM39.763 29.123l-0.327-0.069-0.001 0.007-0.001 0.008 0.329 0.054zM39.761 29.138v0zM39.758 29.15l-0.325-0.073v0.001l0.325 0.073zM39.751 29.181l0.32 0.094 0.001-0.007 0.002-0.007-0.323-0.081zM39.747 29.192l-0.32-0.095-0.001 0.003 0.321 0.091zM39.745 29.199l-0.321-0.091 0.32 0.091zM27.493 26.365v0.333h0.247l0.072-0.237-0.319-0.097zM25.872 26.365h-0.333v0.333h0.333v-0.333zM25.872 3.487l0.288-0.168-0.621-1.069v1.237h0.333zM24.618 26.365v0.333h0.333v-0.333h-0.333zM24.618 3.653h0.333v-1.267l-0.623 1.103 0.29 0.164zM23.089 26.365l-0.319 0.097 0.072 0.237h0.247v-0.333zM37.736 29.603l0.318 0.099 0.155-0.497-0.516 0.068 0.043 0.331zM37.733 29.613v0zM37.735 29.603l-0.318-0.099-0.155 0.497 0.516-0.068-0.043-0.33zM38.243 28.703l0.221 0.249 0.235-0.208-0.193-0.247-0.263 0.205zM29.001 25.667l0.017-0.333-0.268-0.013-0.071 0.258 0.321 0.089zM28.551 27.192v0zM22.029 27.192v0zM21.611 25.771l0.321-0.090-0.075-0.269-0.277 0.027 0.031 0.332zM15.035 28.035l-0.205-0.263-0.107 0.084-0.018 0.135 0.331 0.044zM15.021 28.146v0zM14.997 28.325l-0.33-0.046v0.002l0.33 0.044zM14.861 29.878l-0.333 0.017 0.027 0.553 0.476-0.283-0.17-0.287zM15.28 29.415l-0.268-0.198-0.001 0.001 0.269 0.197zM15.282 29.412v0zM18.571 29.412v0zM18.574 29.415v0zM19.856 29.415v0zM19.859 29.412v0zM23.148 29.412v0zM23.15 29.415v0zM24.433 29.415l0.268 0.199v-0.001l-0.268-0.198zM27.723 29.412h0.001zM27.725 29.415v0zM29.009 29.417v0zM29.011 29.413v0zM32.301 29.413v0zM32.303 29.417l0.268-0.198v-0.001l-0.268 0.199zM33.587 29.415v0zM36.879 29.412v0zM36.881 29.415v0zM37.618 29.923l0.135 0.305 0.069-0.031 0.049-0.057-0.253-0.217zM40.001 29.455c0.020-0.038 0.035-0.075 0.047-0.109l-0.633-0.209c-0 0.001-0 0.002-0.001 0.004l0-0 0.001-0.002 0.587 0.317zM39.497 29.039v0zM39.857 29.621c0.099-0.067 0.14-0.157 0.151-0.177l-0.597-0.296c-0.009 0.018 0.013-0.039 0.075-0.080l0.372 0.553zM39.92 29.571c0.007-0.009 0.020-0.027 0.033-0.049l-0.565-0.355c-0.004 0.006-0.008 0.011-0.011 0.016l0.001-0.001 0.542 0.389zM39.912 29.583l0.008-0.011-0.542-0.389c0-0.001-0.004 0.006-0.008 0.012l-0.005 0.008 0.547 0.38zM39.846 29.663c0.020-0.023 0.040-0.047 0.053-0.064l-0.523-0.414c-0.010 0.013-0.019 0.024-0.029 0.035l0.001-0.001 0.497 0.444zM39.781 29.727c0.023-0.020 0.041-0.040 0.053-0.051l-0.473-0.469-0.025 0.025 0.445 0.496zM39.705 29.791c0.027-0.020 0.059-0.045 0.089-0.077l-0.473-0.469-0.003 0.003c-0.002 0.002-0.005 0.004-0.008 0.006l-0 0 0.395 0.537zM39.664 29.819l0.030-0.020-0.372-0.553-0.017 0.011 0.359 0.562zM39.633 29.837l0.031-0.019-0.359-0.561c-0.002 0.002-0.008 0.005-0.013 0.009l-0.003 0.002 0.345 0.57zM39.607 29.852l0.003-0.002-0.3-0.595c-0.013 0.006-0.021 0.011-0.029 0.015l0.004-0.002 0.321 0.584zM39.601 29.856l0.007-0.005-0.321-0.584-0.011 0.007 0.325 0.582zM39.545 29.885c0.025-0.012 0.046-0.024 0.055-0.029l-0.325-0.582c-0.001 0.001-0.005 0.003-0.008 0.005l-0.002 0.001c-0.001 0.001-0.001 0.001 0 0l0.281 0.605zM39.509 29.9c0.019-0.007 0.035-0.014 0.049-0.022l-0.003 0.002-0.3-0.595 0.007-0.003 0.247 0.619zM39.477 29.912l0.032-0.012-0.249-0.619c-0.001 0.001-0.005 0.002-0.009 0.004l-0.003 0.001 0.229 0.627zM39.465 29.917l0.012-0.005-0.229-0.626-0.025 0.009 0.241 0.621zM39.467 29.917l0.002-0.001-0.006 0.003-0.236-0.624-0.028 0.012 0.268 0.61zM39.441 29.927l0.026-0.011-0.268-0.611-0.002 0.001 0.005-0.002 0.239 0.623zM39.381 29.945c0.023-0.005 0.044-0.011 0.063-0.019l-0.003 0.001-0.239-0.623c0.009-0.004 0.020-0.007 0.032-0.009l0.001-0 0.145 0.65zM39.299 29.955s0.042 0.001 0.090-0.011l-0.163-0.647c0.042-0.010 0.078-0.009 0.073-0.009v0.667zM39.297 29.955h0.001v-0.667h-0.001v0.667zM39.371 29.945c-0.037 0.009-0.069 0.009-0.072 0.009l-0.002-0.667c-0.009 0-0.045 0-0.088 0.011l0.163 0.647zM39.139 29.976c0.086 0 0.165-0.013 0.235-0.031l-0.168-0.645c-0.020 0.006-0.043 0.009-0.066 0.010h-0v0.667zM39.044 29.653l0.134 0.305h-0.001l-0.004 0.002-0.005 0.002c-0.001 0.001-0.009 0.003-0.017 0.006l-0.007 0.002c-0.005 0.002-0.012 0.004-0.019 0.005l-0.001 0c-0.007 0.001-0.003 0 0.015 0v-0.667c-0.001 0-0.001 0-0.002 0-0.066 0-0.129 0.009-0.19 0.024l0.005-0.001c-0.014 0.004-0.025 0.008-0.036 0.012l0.003-0.001-0.005 0.003-0.003 0.001-0.001 0.001h-0.001l0.133 0.305zM39.248 30.061c0.035-0.116 0.061-0.192 0.089-0.267l-0.012 0.038 0.002-0.004c-0.009 0.016-0.019 0.030-0.030 0.042l0-0-0.507-0.433c-0.045 0.053-0.071 0.115-0.079 0.133-0.013 0.033-0.027 0.068-0.039 0.101-0.023 0.067-0.047 0.141-0.062 0.193l0.637 0.197zM39.245 30.072l0.003-0.010-0.637-0.198-0.003 0.010 0.637 0.198zM37.515 31.525c0.621 0 1.037-0.255 1.305-0.583 0.254-0.311 0.364-0.676 0.424-0.87l-0.637-0.197c-0.063 0.201-0.142 0.447-0.304 0.645-0.148 0.181-0.377 0.338-0.789 0.338v0.667zM35.603 30.365c0.316 0.426 0.845 1.16 1.912 1.16v-0.667c-0.701 0-1.050-0.45-1.377-0.891l-0.535 0.397zM35.601 30.361l0.002 0.003 0.536-0.397-0.003-0.003-0.535 0.397zM35.228 29.976c0.028 0 0.038 0.003 0.041 0.004 0.014 0.006 0.027 0.015 0.037 0.025l-0-0c0.058 0.049 0.139 0.145 0.293 0.355l0.537-0.395c-0.147-0.199-0.273-0.363-0.403-0.472-0.131-0.114-0.303-0.184-0.492-0.184-0.005 0-0.011 0-0.016 0h0.001v0.667zM34.855 30.36c0.155-0.21 0.236-0.307 0.295-0.355 0.011-0.010 0.023-0.018 0.036-0.024l0.001-0c0.010-0.003 0.021-0.004 0.032-0.004 0.003 0 0.006 0 0.010 0l-0-0v-0.667c-0.189 0-0.349 0.053-0.506 0.183-0.13 0.109-0.257 0.272-0.403 0.47l0.535 0.397zM34.852 30.363l0.002-0.003-0.535-0.397-0.002 0.003 0.535 0.397zM32.939 31.523c1.068 0 1.597-0.733 1.913-1.16l-0.535-0.397c-0.327 0.44-0.675 0.891-1.378 0.891v0.667zM31.027 30.363c0.316 0.427 0.845 1.16 1.912 1.16v-0.667c-0.701 0-1.050-0.45-1.376-0.89l-0.536 0.397zM31.025 30.36l0.003 0.003 0.535-0.397-0.003-0.003-0.535 0.397zM30.651 29.976c0.028 0 0.038 0.003 0.041 0.004 0.014 0.006 0.027 0.015 0.037 0.025l-0-0c0.059 0.049 0.14 0.145 0.294 0.355l0.537-0.396c-0.147-0.199-0.273-0.362-0.404-0.471-0.131-0.114-0.303-0.183-0.491-0.183-0.005 0-0.010 0-0.015 0h0.001v0.667zM30.278 30.361c0.155-0.21 0.237-0.307 0.296-0.356 0.011-0.010 0.023-0.018 0.037-0.024l0.001-0c0.003-0.001 0.012-0.004 0.040-0.004v-0.667c-0.188 0-0.349 0.053-0.505 0.184-0.13 0.109-0.257 0.272-0.404 0.471l0.536 0.396zM28.363 31.525c1.069 0 1.6-0.737 1.915-1.164l-0.537-0.395c-0.325 0.44-0.675 0.893-1.378 0.893v0.667zM26.45 30.365c0.317 0.427 0.845 1.16 1.913 1.16v-0.667c-0.702 0-1.051-0.451-1.377-0.891l-0.535 0.397zM26.448 30.361l0.003 0.003 0.535-0.397-0.003-0.003-0.535 0.397zM26.075 29.977c0.002-0 0.004-0 0.007-0 0.012 0 0.024 0.002 0.036 0.005l-0.001-0c0.014 0.006 0.027 0.015 0.037 0.025l-0-0c0.059 0.049 0.14 0.145 0.294 0.354l0.537-0.395c-0.147-0.199-0.273-0.362-0.403-0.471-0.131-0.114-0.303-0.183-0.491-0.183-0.005 0-0.011 0-0.016 0h0.001v0.667zM25.701 30.361c0.155-0.21 0.237-0.307 0.295-0.355 0.010-0.010 0.023-0.018 0.036-0.024l0.001-0c0.010-0.003 0.021-0.004 0.032-0.004 0.003 0 0.006 0 0.009 0l-0-0v-0.667c-0.188 0-0.349 0.053-0.505 0.184-0.13 0.109-0.257 0.271-0.404 0.47l0.536 0.397zM23.787 31.525c1.071 0 1.6-0.737 1.914-1.164l-0.536-0.395c-0.325 0.44-0.674 0.893-1.378 0.893v0.667zM21.875 30.365c0.316 0.426 0.845 1.16 1.912 1.16v-0.667c-0.701 0-1.050-0.45-1.376-0.891l-0.536 0.397zM21.873 30.361l0.002 0.003 0.535-0.397-0.002-0.003-0.535 0.397zM21.5 29.977c0.028 0 0.038 0.003 0.041 0.005 0.014 0.006 0.027 0.015 0.037 0.025l-0-0c0.059 0.049 0.14 0.145 0.294 0.354l0.537-0.395c-0.147-0.199-0.273-0.362-0.404-0.471-0.131-0.114-0.303-0.183-0.491-0.183-0.005 0-0.011 0-0.016 0h0.001v0.667zM21.127 30.363c0.155-0.211 0.237-0.307 0.295-0.356 0.011-0.010 0.023-0.019 0.037-0.025l0.001-0c0.009-0.003 0.020-0.004 0.032-0.004 0.003 0 0.006 0 0.009 0l-0-0v-0.667c-0.187 0-0.349 0.053-0.505 0.184-0.13 0.109-0.257 0.273-0.405 0.472l0.537 0.396zM19.212 31.526c1.069 0 1.6-0.737 1.915-1.163l-0.537-0.396c-0.325 0.44-0.675 0.893-1.378 0.893v0.667zM17.301 30.366c0.316 0.427 0.845 1.16 1.911 1.16v-0.667c-0.7 0-1.049-0.45-1.376-0.89l-0.535 0.397zM17.298 30.363l0.003 0.003 0.535-0.397-0.002-0.003-0.536 0.397zM16.925 29.979c0.029 0 0.039 0.003 0.041 0.005 0.015 0.006 0.027 0.015 0.038 0.025l-0-0c0.058 0.049 0.139 0.145 0.293 0.355l0.537-0.396c-0.147-0.199-0.273-0.362-0.403-0.471-0.131-0.114-0.303-0.184-0.492-0.184-0.005 0-0.010 0-0.015 0h0.001v0.667zM16.551 30.364c0.155-0.21 0.237-0.307 0.296-0.356 0.011-0.010 0.023-0.018 0.037-0.024l0.001-0c0.010-0.003 0.022-0.005 0.034-0.005 0.002 0 0.005 0 0.007 0h-0v-0.667c-0.188 0-0.349 0.053-0.505 0.185-0.131 0.109-0.257 0.272-0.405 0.471l0.537 0.396zM14.637 31.528c1.069 0 1.6-0.737 1.915-1.164l-0.537-0.396c-0.325 0.44-0.675 0.893-1.378 0.893v0.667zM13.669 31.088c0.234 0.27 0.577 0.44 0.96 0.44 0.003 0 0.006 0 0.009-0h-0v-0.667c-0.003 0-0.006 0-0.009 0-0.181 0-0.344-0.081-0.454-0.208l-0.001-0.001-0.505 0.435zM13.421 28.108c-0.089 0.673-0.16 1.253-0.149 1.731 0.011 0.48 0.105 0.913 0.398 1.249l0.503-0.437c-0.145-0.167-0.225-0.413-0.235-0.827-0.010-0.417 0.053-0.943 0.144-1.628l-0.661-0.088zM13.424 28.085l-0.003 0.023 0.661 0.087 0.003-0.023-0.661-0.087zM13.553 26.553c0.013 0.148 0 0.398-0.029 0.693-0.040 0.401-0.075 0.688-0.116 0.974l0.016-0.135 0.661 0.087c0.032-0.245 0.073-0.56 0.103-0.861 0.028-0.293 0.048-0.6 0.029-0.816l-0.664 0.059zM10.487 30.996c0.422-0.843 1.041-1.847 1.694-2.662 0.327-0.408 0.656-0.762 0.968-1.025 0.318-0.268 0.589-0.417 0.8-0.458l-0.129-0.655c-0.375 0.074-0.75 0.308-1.1 0.603-0.357 0.3-0.716 0.69-1.059 1.118-0.687 0.857-1.33 1.9-1.77 2.78l0.596 0.299zM9.629 31.528c0.361 0 0.695-0.204 0.859-0.533l-0.597-0.296c-0.049 0.097-0.147 0.163-0.261 0.163v0 0.667zM9.55 31.524c0.037 0.005 0.071 0.004 0.080 0.004v-0.667h-0.009l0.013 0.001-0.084 0.661zM8.726 30.891c0.13 0.363 0.463 0.613 0.847 0.635l0.039-0.666c-0.119-0.007-0.218-0.085-0.257-0.191l-0.001-0.002-0.628 0.224zM8.665 24.634c-0.709 1.097-0.705 2.593-0.537 3.801 0.17 1.226 0.523 2.246 0.599 2.457l0.627-0.225c-0.24-0.663-0.437-1.447-0.557-2.255l-0.008-0.068c-0.164-1.177-0.135-2.463 0.437-3.347l-0.56-0.362zM11.174 23.251c-1.083 0.071-1.964 0.541-2.509 1.383l0.56 0.363c0.414-0.64 1.089-1.021 1.993-1.080l-0.044-0.665zM12.221 22.983c0.013-0.034 0.001 0.025-0.189 0.103-0.173 0.071-0.45 0.139-0.858 0.165l0.044 0.665c0.456-0.030 0.808-0.107 1.067-0.214 0.242-0.1 0.465-0.25 0.553-0.469l-0.617-0.251zM12.074 22.793c0.068 0.078 0.108 0.147 0.127 0.196 0.005 0.011 0.009 0.024 0.011 0.038l0 0.001c0 0.001-0.001-0.017 0.010-0.045l0.617 0.251c0.071-0.175 0.033-0.355-0.015-0.483-0.053-0.138-0.14-0.273-0.247-0.397l-0.502 0.439zM9.713 22.254c1.072-0.294 1.982 0.104 2.36 0.538l0.503-0.438c-0.556-0.638-1.735-1.101-3.039-0.743l0.177 0.643zM5.829 26.989c0.298-1.095 0.891-2.183 1.609-3.050 0.723-0.873 1.543-1.486 2.274-1.685l-0.175-0.643c-0.917 0.251-1.845 0.977-2.612 1.903-0.773 0.933-1.414 2.105-1.739 3.301l0.643 0.175zM6.185 29.889c-0.369-0.383-0.518-0.895-0.541-1.436s0.081-1.078 0.185-1.464l-0.643-0.174c-0.113 0.42-0.235 1.031-0.208 1.667s0.206 1.33 0.727 1.87l0.48-0.463zM6.167 31.253c0.377-0.371 0.387-0.98 0.019-1.364l-0.481 0.462c0.052 0.055 0.084 0.129 0.084 0.21 0 0.085-0.035 0.161-0.090 0.216l-0 0 0.468 0.475zM4.805 31.235c0.174 0.181 0.419 0.294 0.69 0.294 0.261 0 0.498-0.105 0.67-0.274l-0 0-0.465-0.477c-0.052 0.052-0.125 0.085-0.205 0.085-0.083 0-0.157-0.035-0.21-0.090l-0-0-0.48 0.463zM3.976 26.481c-0.519 1.91-0.263 3.623 0.829 4.753l0.48-0.463c-0.873-0.904-1.148-2.342-0.667-4.115l-0.643-0.175zM9.209 20.39c-1.245 0.339-2.388 1.264-3.293 2.381-0.908 1.121-1.604 2.469-1.941 3.711l0.643 0.175c0.311-1.145 0.961-2.411 1.815-3.465 0.857-1.058 1.891-1.869 2.95-2.158l-0.175-0.643zM13.518 21.519c-0.823-0.945-2.467-1.632-4.309-1.129l0.175 0.643c1.593-0.434 2.974 0.171 3.631 0.925l0.503-0.438zM13.998 23.719c0.303-0.737 0.094-1.543-0.48-2.2l-0.502 0.438c0.451 0.517 0.549 1.061 0.366 1.509l0.617 0.253zM11.299 25.181c0.845-0.055 1.453-0.252 1.887-0.525 0.438-0.276 0.682-0.62 0.813-0.937l-0.617-0.253c-0.081 0.197-0.238 0.429-0.551 0.626-0.317 0.199-0.81 0.373-1.576 0.424l0.044 0.665zM10.276 25.69c0.191-0.293 0.499-0.474 1.023-0.509l-0.044-0.665c-0.677 0.045-1.205 0.298-1.539 0.811l0.56 0.363zM10.156 28.86c-0.117-0.564-0.203-1.19-0.197-1.766 0.005-0.585 0.104-1.075 0.317-1.405l-0.56-0.362c-0.315 0.487-0.418 1.129-0.424 1.761-0.006 0.64 0.089 1.316 0.212 1.907l0.653-0.135zM14.141 24.911c-0.997-0.031-1.924 0.593-2.683 1.347-0.771 0.763-1.435 1.723-1.911 2.495l0.567 0.35c0.465-0.753 1.097-1.661 1.813-2.371 0.729-0.721 1.482-1.176 2.193-1.153l0.021-0.667zM15.088 25.371c-0.228-0.273-0.566-0.449-0.944-0.46l-0.002-0-0.023 0.666c0.183 0.007 0.343 0.085 0.457 0.22l0.511-0.427zM15.457 26.368c-0.035-0.373-0.135-0.718-0.37-0.998l-0.51 0.429c0.115 0.138 0.189 0.333 0.216 0.631l0.664-0.062zM21.253 24.196c-3.368 0.343-5.107 1.12-6.313 1.926l0.371 0.555c1.101-0.735 2.731-1.483 6.010-1.817l-0.067-0.663zM24.509 0.925c-0.347 0.413-7.183 8.811-3.546 23.681l0.648-0.159c-3.569-14.589 3.141-22.775 3.409-23.093l-0.511-0.429zM24.564 0.873c-0.001 0.001-0.019 0.015-0.037 0.033l0.473 0.469c-0.005 0.005-0.011 0.010-0.016 0.015l-0 0-0.005 0.004-0.415-0.521zM24.514 0.925c0.012-0.016 0.024-0.029 0.037-0.042l0-0 0.013-0.011 0.415 0.521c0.026-0.021 0.049-0.044 0.069-0.070l0.001-0.001-0.535-0.398zM24.623 0.815c-0.027 0.023-0.057 0.050-0.087 0.084l0.492 0.45c0.009-0.009 0.018-0.018 0.028-0.026l0.001-0-0.433-0.507zM24.693 0.759c-0.034 0.023-0.063 0.047-0.090 0.075l-0 0 0.473 0.469c0.003-0.003-0.001 0.002-0.011 0.009l-0.373-0.553zM24.773 0.71c-0.018 0.011-0.049 0.027-0.081 0.049l0.372 0.553c0.009-0.006 0.021-0.014 0.033-0.021l0.003-0.001-0.327-0.581zM24.787 0.703l-0.013 0.007 0.327 0.581 0.013-0.007-0.327-0.581zM24.853 0.667c-0.039 0.017-0.071 0.038-0.081 0.044l0.356 0.564c0.001-0.001 0.004-0.002 0.007-0.004l0.002-0.001-0.011 0.005-0.273-0.608zM24.999 0.617c-0.055 0.014-0.101 0.030-0.146 0.049l0.006-0.002 0.261 0.613c0.012-0.005 0.026-0.009 0.040-0.013l0.002-0-0.162-0.647zM24.996 0.619c-0.005 0.002-0.001 0 0.003-0.001 0.009-0.003 0.020-0.005 0.032-0.007l0.001-0 0.095 0.659c0.043-0.007 0.080-0.020 0.081-0.020l-0.213-0.632zM24.993 0.62v0zM25.021 0.611l-0.025 0.008 0.212 0.632 0.002-0.001-0.005 0.001-0.185-0.64zM25.245 0.584c-0.001 0-0.002 0-0.003 0-0.071 0-0.141 0.008-0.208 0.023l0.006-0.001 0.146 0.651c0.018-0.004 0.038-0.007 0.059-0.007h0v-0.667zM25.349 0.587l-0.093-0.003-0.023 0.667 0.093 0.003 0.023-0.667zM26.071 0.929c-0.176-0.21-0.439-0.343-0.733-0.343-0 0-0 0-0.001 0h0v0.667c0.087 0 0.167 0.037 0.223 0.104l0.511-0.428zM29.649 24.493c3.573-14.798-3.231-23.154-3.578-23.565l-0.509 0.43c0.267 0.317 6.944 8.46 3.439 22.979l0.648 0.157zM40.075 28.765c-0.040-0.149-0.376-1.19-1.891-2.26-1.51-1.066-4.172-2.147-8.84-2.422l-0.040 0.665c4.585 0.271 7.116 1.327 8.496 2.302 1.375 0.971 1.627 1.874 1.631 1.888l0.643-0.173zM40.081 28.792c0.003 0.013 0.005 0.024 0.005 0.029v0.005c0.001 0.001 0.001 0.001 0 0v-0.005l-0.001-0.010c-0.002-0.015-0.005-0.029-0.008-0.041l0.001 0.003-0.647 0.16c-0.002-0.007-0.005-0.017-0.006-0.026l-0-0.002v-0.005s0-0.001 0 0v0.005l0.002 0.011c0.002 0.015 0.004 0.028 0.007 0.040l-0.001-0.002 0.648-0.16zM40.096 28.883l-0.009-0.061-0.66 0.1 0.010 0.062 0.659-0.1zM40.106 29c0-0.049-0.007-0.095-0.010-0.113l-0.66 0.093 0.002 0.014 0.001 0.008v-0.002h0.667zM40.105 28.975c0.001 0.008 0.001 0.016 0.001 0.025v0h-0.667l0.001 0.035 0.664-0.060zM40.105 28.972l-0.001-0.005-0.663 0.075 0.001 0.005 0.663-0.075zM40.106 28.985c-0.001-0.007-0.001-0.013-0.002-0.019l0 0.002-0.661 0.082c0 0.001 0 0 0 0l-0.001-0.007 0.664-0.058zM40.107 29.019c0-0 0-0.001 0-0.001 0-0.011-0.001-0.022-0.001-0.034l0 0.001-0.664 0.059c-0.001-0.007-0.001-0.016-0.001-0.025v-0h0.667zM40.106 29.056c0.001-0.011 0.001-0.024 0.001-0.037v-0h-0.667v-0.012l0.665 0.048zM40.102 29.093l0.004-0.037-0.665-0.049v-0.003l-0.001 0.006 0.661 0.083zM40.102 29.097v-0.003l-0.661-0.083v0.004l0.661 0.082zM40.103 29.081v-0.002l-0.665-0.047v0.002l0.665 0.047zM40.089 29.193c0.010-0.048 0.013-0.094 0.013-0.111l-0.665-0.047-0.001 0.013-0.001 0.008v-0.001l0.653 0.138zM40.087 29.204c0.001-0.004 0.003-0.013 0.004-0.022l0.001-0.004-0.658-0.109v0.003l0.653 0.131zM40.083 29.223l0.004-0.020-0.653-0.131-0.001 0.005 0.651 0.146zM40.074 29.261l0.009-0.037-0.651-0.146c-0.003 0.016-0.005 0.024-0.007 0.032l0.002-0.008 0.647 0.16zM40.067 29.286l0.003-0.011-0.64-0.188-0.003 0.011 0.64 0.188zM40.066 29.29l0.002-0.007-0.641-0.182-0.002 0.008 0.641 0.181zM40.039 29.368c0.015-0.035 0.023-0.067 0.027-0.078l-0.642-0.181c0-0.001-0.001 0.002-0.002 0.006l-0.001 0.005 0.003-0.007 0.617 0.254zM27.493 26.031h-1.62v0.667h1.62v-0.667zM25.585 3.653c1.797 3.093 5.127 10.94 1.59 22.613l0.638 0.193c3.603-11.889 0.216-19.928-1.652-23.142l-0.576 0.335zM26.206 26.364v-22.877h-0.667v22.878h0.667zM24.952 26.364v-22.711h-0.667v22.712h0.667zM23.090 26.697h1.529v-0.667h-1.529v0.667zM24.329 3.488c-1.881 3.327-5.091 11.313-1.558 22.973l0.638-0.193c-3.469-11.447-0.313-19.245 1.5-22.451l-0.58-0.328zM37.418 29.503l-0.003 0.011 0.637 0.197 0.003-0.010-0.637-0.198zM37.779 29.933v0zM38.023 28.453c-0.386 0.343-0.533 0.817-0.605 1.051l0.637 0.198c0.075-0.241 0.179-0.545 0.411-0.749l-0.443-0.499zM28.984 26c6.302 0.327 8.383 2.125 8.997 2.909l0.525-0.411c-0.775-0.989-3.075-2.831-9.487-3.164l-0.035 0.665zM28.869 27.292c0.164-0.52 0.314-1.031 0.453-1.537l-0.643-0.177c-0.214 0.803-0.367 1.308-0.529 1.809l0.083-0.295 0.636 0.201zM27.953 27.967c0.42 0 0.789-0.275 0.915-0.674l-0.636-0.201c-0.038 0.121-0.149 0.208-0.28 0.209h-0v0.667zM22.626 27.967h5.327v-0.667h-5.327v0.667zM21.711 27.293c0.127 0.399 0.495 0.673 0.915 0.673v-0.667c-0.131-0.001-0.242-0.087-0.279-0.206l-0.001-0.002-0.635 0.201zM21.289 25.861c0.131 0.469 0.27 0.946 0.422 1.431l0.636-0.199c-0.149-0.477-0.287-0.947-0.415-1.411l-0.643 0.179zM15.239 28.298c0.542-0.423 1.15-0.872 2.111-1.265 0.965-0.395 2.3-0.74 4.291-0.93l-0.063-0.663c-2.039 0.193-3.441 0.55-4.481 0.976-1.043 0.428-1.707 0.92-2.268 1.357l0.41 0.525zM15.351 28.188l0.013-0.109-0.66-0.087c-0.006 0.037-0.011 0.075-0.015 0.112l0.661 0.084zM15.327 28.371l0.023-0.183-0.661-0.084c-0.015 0.13-0.023 0.19-0.031 0.249l0.009-0.075 0.66 0.092zM15.194 29.862c-0.017-0.342 0.070-1.016 0.133-1.493l-0.661-0.088c-0.059 0.447-0.16 1.197-0.139 1.614l0.667-0.033zM15.011 29.217c-0.199 0.271-0.275 0.347-0.32 0.375l0.34 0.573c0.184-0.109 0.339-0.311 0.517-0.553l-0.537-0.395zM15.013 29.213l-0.002 0.003 0.535 0.397 0.003-0.003-0.536-0.397zM16.927 28.053c-1.068 0-1.597 0.733-1.913 1.16l0.536 0.397c0.327-0.44 0.675-0.89 1.377-0.89v-0.667zM18.839 29.213c-0.316-0.427-0.845-1.16-1.912-1.16v0.667c0.701 0 1.050 0.45 1.377 0.89l0.535-0.397zM18.841 29.216l-0.002-0.003-0.535 0.397 0.002 0.003 0.535-0.397zM19.214 29.601c-0.002 0-0.004 0-0.007 0-0.012 0-0.024-0.002-0.035-0.005l0.001 0c-0.014-0.006-0.027-0.015-0.037-0.025l0 0c-0.059-0.049-0.14-0.145-0.293-0.355l-0.537 0.396c0.147 0.199 0.273 0.362 0.404 0.471 0.157 0.131 0.318 0.184 0.506 0.184v-0.667zM19.587 29.216c-0.155 0.21-0.236 0.307-0.295 0.355-0.011 0.010-0.023 0.018-0.037 0.024l-0.001 0c-0.010 0.003-0.022 0.005-0.034 0.005-0.002 0-0.005-0-0.007-0h0v0.667c0.188 0 0.349-0.053 0.505-0.184 0.13-0.109 0.257-0.272 0.403-0.47l-0.535-0.397zM19.59 29.213l-0.002 0.003 0.535 0.397 0.002-0.003-0.535-0.397zM21.503 28.053c-1.068 0-1.597 0.733-1.913 1.16l0.535 0.397c0.327-0.44 0.675-0.89 1.378-0.89v-0.667zM23.415 29.213c-0.316-0.427-0.845-1.16-1.912-1.16v0.667c0.701 0 1.050 0.45 1.376 0.89l0.536-0.397zM23.417 29.216l-0.002-0.003-0.536 0.397 0.003 0.003 0.535-0.397zM23.791 29.601c-0.002 0-0.004 0-0.006 0-0.012 0-0.023-0.002-0.034-0.005l0.001 0c-0.014-0.006-0.027-0.015-0.037-0.025l0 0c-0.059-0.049-0.14-0.145-0.296-0.355l-0.535 0.397c0.147 0.199 0.274 0.361 0.404 0.47 0.156 0.13 0.317 0.184 0.505 0.184v-0.667zM24.164 29.216c-0.155 0.21-0.237 0.307-0.295 0.355-0.011 0.010-0.023 0.018-0.037 0.024l-0.001 0c-0.010 0.003-0.022 0.005-0.034 0.005-0.003 0-0.005-0-0.008-0l0 0v0.667c0.189 0 0.349-0.053 0.506-0.184 0.13-0.109 0.257-0.272 0.403-0.47l-0.535-0.397zM26.078 28.053c-1.070 0-1.599 0.737-1.914 1.163l0.536 0.396c0.325-0.44 0.674-0.893 1.378-0.893v-0.667zM27.99 29.213c-0.316-0.427-0.845-1.16-1.911-1.16v0.667c0.7 0 1.049 0.45 1.376 0.89l0.535-0.397zM27.993 29.217l-0.003-0.003-0.535 0.397 0.002 0.003 0.536-0.397zM28.367 29.602c-0.002 0-0.005 0-0.007 0-0.012 0-0.024-0.002-0.035-0.005l0.001 0c-0.015-0.006-0.027-0.015-0.038-0.025l0 0c-0.059-0.049-0.14-0.145-0.295-0.356l-0.536 0.396c0.147 0.2 0.274 0.363 0.405 0.472 0.157 0.131 0.318 0.184 0.507 0.184v-0.667zM28.741 29.218c-0.155 0.21-0.237 0.307-0.295 0.355-0.023 0.019-0.034 0.023-0.037 0.025-0.010 0.003-0.021 0.004-0.032 0.004-0.003 0-0.006-0-0.009-0l0 0v0.667c0.188 0 0.349-0.053 0.505-0.184 0.13-0.109 0.257-0.271 0.404-0.47l-0.536-0.397zM28.743 29.215l-0.003 0.003 0.536 0.397 0.002-0.003-0.535-0.397zM30.657 28.055c-1.068 0-1.597 0.733-1.913 1.16l0.535 0.397c0.327-0.44 0.675-0.891 1.378-0.891v-0.667zM32.568 29.215c-0.316-0.426-0.845-1.16-1.911-1.16v0.667c0.7 0 1.049 0.45 1.376 0.891l0.535-0.397zM32.571 29.218l-0.003-0.003-0.535 0.397 0.002 0.003 0.536-0.397zM32.944 29.602c-0.002 0-0.005 0-0.007 0-0.012 0-0.024-0.002-0.035-0.005l0.001 0c-0.015-0.006-0.027-0.015-0.038-0.025l0 0c-0.058-0.049-0.139-0.145-0.293-0.354l-0.537 0.395c0.147 0.199 0.273 0.362 0.403 0.471 0.157 0.131 0.318 0.184 0.506 0.184v-0.667zM33.319 29.217c-0.155 0.211-0.237 0.307-0.295 0.356-0.011 0.010-0.023 0.018-0.037 0.024l-0.001 0c-0.010 0.003-0.022 0.005-0.034 0.005-0.003 0-0.005-0-0.008-0l0 0v0.667c0.188 0 0.349-0.053 0.506-0.184 0.131-0.109 0.257-0.273 0.405-0.472l-0.536-0.396zM35.233 28.053c-1.069 0-1.599 0.737-1.914 1.163l0.536 0.396c0.325-0.44 0.676-0.893 1.378-0.893v-0.667zM37.146 29.213c-0.316-0.427-0.845-1.16-1.913-1.16v0.667c0.703 0 1.052 0.45 1.378 0.89l0.535-0.397zM37.149 29.216l-0.003-0.003-0.535 0.397 0.002 0.003 0.536-0.397zM37.522 29.601c-0.002 0-0.004 0-0.006 0-0.012 0-0.024-0.002-0.035-0.005l0.001 0c-0.015-0.006-0.027-0.015-0.038-0.025l0 0c-0.059-0.049-0.14-0.145-0.295-0.355l-0.536 0.397c0.147 0.199 0.275 0.361 0.405 0.47 0.156 0.13 0.317 0.184 0.505 0.184v-0.667zM37.617 29.923c-0.135-0.305-0.134-0.305-0.134-0.305h0.001l0.004-0.002 0.005-0.002c0.007-0.003 0.015-0.006 0.023-0.008l0.001-0c0.005-0.002 0.012-0.004 0.019-0.005l0.001-0c0.007-0.001 0.003 0-0.015 0v0.667c0 0 0.001 0 0.001 0 0.066 0 0.13-0.009 0.191-0.024l-0.005 0.001c0.014-0.004 0.025-0.008 0.036-0.012l-0.003 0.001 0.005-0.002 0.003-0.001h0.001v-0.001l-0.133-0.305zM37.413 29.515c-0.035 0.116-0.061 0.192-0.089 0.268l0.012-0.038c0.002-0.003 0.004-0.006 0.006-0.009l-0 0c0.007-0.012 0.015-0.022 0.023-0.031l-0 0 0.507 0.433c0.045-0.053 0.070-0.115 0.078-0.133 0.014-0.032 0.027-0.068 0.039-0.101 0.023-0.067 0.047-0.141 0.063-0.193l-0.637-0.197z"></path>
<path fill="#fff" style="fill: var(--color1, #fff); stroke: var(--color2, #222532)" stroke="#222532" stroke-linejoin="miter" stroke-linecap="butt" stroke-miterlimit="4" stroke-width="0.6667" d="M4.859 20.757c-0.080-0.097-0.807-0.937-1.739-0.937-0.431 0-1.047 0.179-1.531 1.028l-0.541 0.949h4.68l-0.869-1.041z"></path>
<path fill="#fff" style="fill: var(--color1, #fff)" d="M3.643 23.050l0.644 0.068-0.081 0.649c-0.237 1.753-2.068 3.603-2.147 3.681l-0.848 0.848-0.21-1.187c-0.249-1.395-0.072-2.468 0.525-3.188 0.835-1.008 2.117-0.871 2.117-0.871zM2.49 24.733c-0.111 0.133-0.194 0.302-0.252 0.501 0.133-0.201 0.261-0.411 0.371-0.623-0.043 0.038-0.082 0.078-0.118 0.12l-0.001 0.002z"></path>
<path fill="#222532" style="fill: var(--color2, #222532)" d="M4.287 23.118l0.331 0.041 0.042-0.337-0.338-0.036-0.035 0.332zM3.643 23.050v-0.001zM4.205 23.767l0.331 0.045v-0.003l-0.331-0.041zM2.059 27.448l0.236 0.236 0.001-0.001-0.237-0.235zM1.211 28.296l-0.328 0.058 0.111 0.63 0.453-0.452-0.236-0.236zM1.001 27.109v0zM1.526 23.921v0zM2.238 25.235l-0.32-0.093-0.036 0.124 0.057 0.116 0.299-0.147zM2.49 24.733l0.256 0.213 0.002-0.002-0.258-0.211zM2.238 25.235l-0.3 0.147 0.257 0.522 0.321-0.485-0.277-0.184zM2.609 24.611l0.296 0.153-0.518-0.402 0.222 0.249zM4.322 22.786l-0.645-0.068-0.070 0.663 0.645 0.068 0.070-0.663zM4.536 23.808l0.082-0.649-0.662-0.083-0.081 0.649 0.661 0.083zM2.296 27.683c0.045-0.045 0.536-0.541 1.047-1.253 0.506-0.703 1.063-1.658 1.193-2.618l-0.661-0.089c-0.107 0.793-0.584 1.639-1.073 2.318-0.482 0.671-0.946 1.14-0.98 1.173l0.473 0.469zM1.447 28.532l0.848-0.848-0.471-0.472-0.848 0.849 0.471 0.471zM0.673 27.167l0.21 1.187 0.657-0.116-0.21-1.187-0.657 0.116zM1.269 23.708c-0.687 0.827-0.854 2.017-0.597 3.46l0.656-0.118c-0.241-1.349-0.054-2.304 0.453-2.916l-0.513-0.427zM3.643 23.049l0.035-0.331h-0.008l-0.015-0.002c-0.053-0.004-0.114-0.006-0.176-0.006-0.020 0-0.039 0-0.059 0.001l0.003-0c-0.15 0.003-0.358 0.020-0.595 0.071-0.473 0.103-1.079 0.349-1.558 0.927l0.513 0.425c0.357-0.43 0.81-0.619 1.185-0.7 0.159-0.036 0.342-0.056 0.529-0.056 0.026 0 0.051 0 0.077 0.001l-0.004-0 0.032 0.002h0.007s0 0.001 0 0h-0.001l0.035-0.331zM2.558 25.327c0.049-0.167 0.113-0.292 0.188-0.381l-0.511-0.428c-0.142 0.175-0.251 0.383-0.314 0.61l-0.003 0.012 0.64 0.187zM2.537 25.087v0zM2.313 24.457c-0.124 0.235-0.241 0.429-0.368 0.615l0.014-0.023 0.555 0.368c0.138-0.207 0.273-0.428 0.39-0.654l-0.592-0.307zM2.748 24.944c0.023-0.027 0.049-0.055 0.083-0.085l-0.444-0.497c-0.056 0.049-0.106 0.101-0.153 0.157l-0.002 0.002 0.515 0.423z"></path>
<path fill="#fff" style="fill: var(--color1, #fff)" d="M8.471 19.527c0 0.661-0.535 1.2-1.19 1.2-0.657-0.004-1.189-0.538-1.189-1.195 0-0.002 0-0.003 0-0.005v0c0-0.661 0.533-1.199 1.189-1.199 0.657 0 1.19 0.538 1.19 1.2zM7.347 19.527c0 0 0 0 0 0 0-0.036-0.029-0.066-0.065-0.067h-0c-0.036 0-0.065 0.029-0.065 0.065 0 0 0 0.001 0 0.001v-0c0 0.073 0.13 0.073 0.13 0z"></path>
<path fill="#222532" style="fill: var(--color2, #222532)" d="M7.281 21.060c0.842-0.004 1.523-0.687 1.523-1.53 0-0.001 0-0.002 0-0.003v0h-0.667c0 0.48-0.388 0.867-0.857 0.867v0.667zM5.759 19.527c0 0.001 0 0.003 0 0.005 0 0.842 0.681 1.525 1.522 1.529h0v-0.667c-0.473-0.004-0.855-0.388-0.855-0.862 0-0.002 0-0.003 0-0.005v0h-0.667zM7.281 17.995c-0.841 0.004-1.522 0.687-1.522 1.529 0 0.002 0 0.003 0 0.005v-0h0.667c0-0.48 0.387-0.867 0.855-0.867v-0.667zM8.805 19.528c0-0.001 0-0.003 0-0.005 0-0.842-0.681-1.526-1.523-1.529h-0v0.667c0.47 0 0.857 0.387 0.857 0.867h0.667zM7.281 19.795c-0 0-0.001 0-0.001 0-0.147 0-0.267-0.119-0.267-0.267 0 0 0 0 0 0v0h0.667c0 0 0 0 0 0 0-0.22-0.178-0.399-0.399-0.4h-0v0.667zM7.55 19.528c0 0.133-0.108 0.267-0.269 0.267v-0.667c-0.233 0-0.398 0.193-0.398 0.4h0.667zM7.013 19.528c0-0.095 0.048-0.178 0.114-0.227 0.042-0.033 0.096-0.052 0.155-0.053h0c0.040 0 0.098 0.011 0.155 0.053 0.065 0.049 0.113 0.131 0.113 0.227h-0.667c0 0.131 0.065 0.24 0.155 0.307 0.067 0.050 0.152 0.081 0.244 0.081s0.177-0.030 0.245-0.082l-0.001 0.001c0.094-0.071 0.154-0.182 0.154-0.307 0-0 0-0.001 0-0.001v0h-0.667z"></path>
</symbol>
<symbol id="travel" viewBox="0 0 50 32">
<path fill="#fff" style="fill: var(--color1, #fff)" d="M48.242 21.601v2.664c0.553 0.113 0.97 0.597 0.97 1.175v0.957c0 0.582-0.417 1.065-0.97 1.177v0.024h-6.366c-0.352 2.172-2.252 3.838-4.544 3.838s-4.191-1.666-4.541-3.838h-16.854c-0.352 2.172-2.252 3.838-4.544 3.838s-4.193-1.668-4.543-3.838l-4.425 0.002c-0.001 0-0.003 0-0.005 0-0.665 0-1.205-0.537-1.209-1.201v-0.958c0-0.663 0.546-1.201 1.214-1.201h0.725v-10.794c0-3.309 2.72-6 6.063-6l5.595-0.004v-1.913c-5.902-0.557-10.901-1.597-12.415-3.094-0.132-0.129-0.213-0.309-0.213-0.508 0-0.122 0.031-0.237 0.085-0.338l-0.002 0.004c0.125-0.232 0.366-0.387 0.644-0.387 0.045 0 0.090 0.004 0.133 0.012l-0.004-0.001c4.826 0.855 12.33 0.97 19.031 0.97 1.824-0 3.645-0.005 5.465-0.015l-0.282 0.001c0.886-0.003 1.745-0.006 2.569-0.006l6.244 0.002c4.226 0 6.828-0.028 10.203-0.191 0.009-0 0.020-0.001 0.031-0.001 0.33 0 0.609 0.217 0.702 0.516l0.001 0.005c0.018 0.060 0.028 0.128 0.028 0.199 0 0.269-0.148 0.503-0.367 0.626l-0.004 0.002c-0.487 0.27-1.093 0.521-1.81 0.753v1.455c0 0.005 0 0.011 0 0.016 0 0.651-0.377 1.213-0.924 1.481l-0.010 0.004c-0.224 0.115-0.488 0.183-0.769 0.184h-0c-0.352 0-0.703-0.112-1.006-0.335l-2.347-1.722c-2.989 0.431-6.689 0.704-10.943 0.802v1.481l5.089-0.002c3.243 0 6.233 1.073 8.634 2.879l0.199 0.153c1.996 1.56 3.545 3.603 4.485 5.955l0.034 0.096 0.006 0.012 0.014 0.032 0.042 0.11 0.036 0.093 0.29 0.744h-0.042c0.394 1.294 0.608 2.664 0.608 4.081zM34.909 16.083h10.601c-0.853-1.714-2.014-3.153-3.422-4.3l-0.023-0.018h-7.155c-0.132 0.002-0.239 0.108-0.242 0.239v3.838c0 0.13 0.111 0.241 0.242 0.241zM43.394 5.537v-1.047l0.222-0.047c-0.537 0.134-1.079 0.254-1.829 0.394l1.22 0.893c0.039 0.032 0.089 0.052 0.144 0.052 0.040 0 0.078-0.011 0.11-0.028l0.001-0.001c0.079-0.034 0.134-0.113 0.134-0.204 0-0.004-0-0.008-0-0.011zM25.299 3.623c-1.053 0.003-2.133 0.007-3.231 0.007-4.305 0-8.941-0.049-13.015-0.31 3.913 0.732 9.54 1.249 16.159 1.249 6.083 0 11.404-0.352 15.265-0.973-1.316 0.015-2.738 0.020-4.412 0.020l-6.247-0.006c-1.133 0-2.331 0.004-3.578 0.010l-0.941 0.003zM16.263 5.659v1.788h11.131v-1.455c-0.714 0.010-1.441 0.016-2.182 0.016-2.951 0-6.031-0.118-8.949-0.349zM8.242 26.879c0 1.72 1.413 3.119 3.152 3.119s3.152-1.398 3.152-3.118c0-1.72-1.413-3.119-3.152-3.119s-3.152 1.397-3.152 3.118zM37.333 29.998c1.739 0 3.151-1.398 3.151-3.119s-1.413-3.119-3.151-3.119c-1.739 0-3.151 1.398-3.151 3.119s1.413 3.119 3.151 3.119zM37.333 22.321c2.291 0 4.193 1.666 4.543 3.838h5.881v-0.48h-4.364v-1.439h3.394v-2.638c0-1.427-0.242-2.798-0.682-4.079h-11.197c-0.936 0-1.697-0.753-1.697-1.68v-3.839c0-0.926 0.761-1.679 1.697-1.679h4.956c-1.719-0.907-3.758-1.44-5.921-1.44-0.003 0-0.005 0-0.008 0h-24.723c-2.542 0-4.608 2.047-4.608 4.56v2.638h7.307v1.439h-7.307v6.717h0.97v1.439h-2.909v0.48h4.183c0.353-2.172 2.253-3.838 4.544-3.838s4.193 1.666 4.543 3.838h16.853c0.352-2.172 2.252-3.838 4.543-3.838z"></path>
<path fill="#222532" style="fill: var(--color2, #222532)" d="M48.242 24.265l0.081 0.279 0.209-0.061v-0.218h-0.291zM48.242 24.265l-0.081-0.279 0.023 0.564 0.058-0.285zM48.242 27.574l-0.058-0.285-0.233 0.047v0.238h0.291zM48.242 27.599v0.291h0.291v-0.291h-0.291zM41.876 27.599v-0.291h-0.247l-0.040 0.244 0.287 0.047zM32.79 27.599l0.288-0.047-0.039-0.244h-0.248v0.291zM15.937 27.599v-0.291h-0.247l-0.040 0.244 0.287 0.047zM6.85 27.599l0.287-0.047-0.039-0.244h-0.248v0.291zM3.151 27.599v0zM2.425 27.601v0.291h0.001v-0.291zM3.151 24.241v0.291h0.291v-0.291h-0.291zM9.213 7.447v0zM14.808 7.443v0.291h0.291v-0.291h-0.291zM14.808 5.53h0.291v-0.265l-0.264-0.025-0.027 0.29zM2.393 2.436h0.001zM2.263 1.594v-0.001zM3.035 1.219v0zM26.234 2.179v0zM27.249 2.175v0zM27.249 2.175v0zM27.249 2.175v0zM27.249 2.175h0.001zM27.249 2.175v0zM29.818 2.169v0zM36.060 2.171v0zM46.265 1.98l-0.012-0.291h-0.003l0.015 0.291zM46.999 2.501v0zM46.657 3.328v0zM44.847 4.081l-0.090-0.277-0.201 0.065v0.212h0.291zM43.913 7.039v0zM42.138 6.889v0zM39.791 5.167l0.172-0.235-0.096-0.071-0.117 0.017 0.042 0.288zM28.849 5.968l-0.007-0.291-0.284 0.007v0.284h0.291zM28.849 7.449h-0.291v0.291h0.291v-0.291zM33.937 7.447v0zM42.572 10.326l0.178-0.231-0.003-0.002-0.175 0.233zM42.77 10.479l0.179-0.23h-0.001l-0.178 0.23zM47.289 16.53l-0.271 0.107 0.005 0.013 0.007 0.013 0.26-0.131zM47.295 16.542l0.269-0.111-0.004-0.010-0.005-0.010-0.26 0.132zM47.309 16.574l0.274-0.097-0.003-0.008-0.003-0.007-0.269 0.111zM47.35 16.684l-0.271 0.107v0.001l0.271-0.108zM47.35 16.684l0.272-0.105-0.001-0.004-0.271 0.109zM47.35 16.684l-0.272 0.105 0.002 0.003 0.27-0.108zM47.35 16.684l0.272-0.105-0.001-0.003-0.271 0.108zM47.35 16.684l-0.272 0.106 0.002 0.003 0.27-0.109zM47.35 16.684l0.272-0.107-0.001-0.001-0.271 0.108zM47.386 16.777l-0.273 0.1 0.003 0.006 0.272-0.106zM47.676 17.52v0.291h0.426l-0.155-0.396-0.271 0.105zM47.634 17.52v-0.291h-0.393l0.114 0.376 0.278-0.085zM45.51 16.083v0.291h0.465l-0.204-0.419-0.262 0.128zM42.065 11.765l0.184-0.226-0.081-0.065h-0.103v0.291zM43.259 5.753v0zM43.394 5.537v0zM43.006 5.731l0.173-0.235h-0.001l-0.172 0.234zM41.786 4.836l-0.054-0.285-0.657 0.125 0.539 0.395 0.173-0.235zM43.394 4.49h0.291v-0.37l-0.36 0.087 0.069 0.283zM25.299 3.623h0.001zM25.299 3.623v0zM22.068 3.63l-0.026-0.29 0.026 0.581v-0.291zM22.068 3.63l0.027 0.29-0.027-0.582v0.291zM9.053 3.319l0.019-0.29-0.073 0.577 0.053-0.286zM40.477 3.596l0.047 0.287-0.049-0.578 0.003 0.291zM36.063 3.616v0zM29.818 3.61v0zM26.24 3.62h0.001zM16.265 5.659l0.022-0.291-0.314-0.024v0.315h0.291zM27.395 5.993h0.291v-0.295l-0.295 0.004 0.004 0.291zM27.395 7.447v0.291h0.291v-0.291h-0.291zM16.264 7.447h-0.291v0.291h0.291v-0.291zM41.877 26.16l-0.287 0.047 0.040 0.244h0.247v-0.291zM47.759 26.16v0.291h0.291v-0.291h-0.291zM47.759 25.68h0.291v-0.291h-0.291v0.291zM43.395 25.68h-0.291v0.291h0.291v-0.291zM43.395 24.241v-0.291h-0.291v0.291h0.291zM46.789 24.241v0.291h0.291v-0.291h-0.291zM46.107 17.523l0.275-0.095-0.068-0.196h-0.208v0.291zM39.866 10.326v0.291l0.134-0.55-0.134 0.259zM4.606 16.083h-0.291v0.291h0.291v-0.291zM11.913 16.083h0.291v-0.291h-0.291v0.291zM11.913 17.523v0.291h0.291v-0.291h-0.291zM4.606 17.523v-0.291h-0.291v0.291h0.291zM4.606 24.241h-0.291v0.291h0.291v-0.291zM5.576 24.241h0.291v-0.291h-0.291v0.291zM5.576 25.68v0.291h0.291v-0.291h-0.291zM2.667 25.68v-0.291h-0.291v0.291h0.291zM2.667 26.16h-0.291v0.291h0.291v-0.291zM6.85 26.16v0.291h0.248l0.039-0.244-0.287-0.047zM15.937 26.16l-0.287 0.047 0.039 0.244h0.248v-0.291zM32.79 26.16v0.291h0.247l0.039-0.244-0.287-0.047zM48.533 24.265v-2.664h-0.582v2.664h0.582zM48.323 24.544v0zM49.503 25.44c0-0.721-0.52-1.322-1.202-1.46l-0.116 0.57c0.423 0.085 0.737 0.456 0.737 0.89h0.582zM49.503 26.397v-0.957h-0.582v0.957h0.582zM48.301 27.859c0.689-0.142 1.2-0.742 1.202-1.462v-0h-0.582c-0.002 0.44-0.316 0.807-0.731 0.891l-0.006 0.001 0.116 0.57zM48.533 27.599v-0.024h-0.582v0.024h0.582zM41.876 27.889h6.366v-0.582h-6.366v0.582zM37.333 31.729c2.436 0 4.456-1.771 4.831-4.082l-0.574-0.093c-0.33 2.032-2.108 3.594-4.257 3.594v0.582zM32.504 27.646c0.373 2.312 2.395 4.082 4.829 4.082v-0.582c-2.148 0-3.926-1.561-4.254-3.594l-0.574 0.093zM15.938 27.89h16.853v-0.582h-16.853v0.582zM11.394 31.729c2.436 0 4.456-1.771 4.831-4.082l-0.574-0.093c-0.33 2.032-2.109 3.594-4.257 3.594v0.582zM6.564 27.646c0.372 2.311 2.395 4.082 4.83 4.082v-0.582c-2.148 0-3.928-1.563-4.256-3.594l-0.574 0.093zM3.151 27.89h3.699v-0.582h-3.7v0.582zM2.427 27.892l0.725-0.002-0.001-0.582-0.725 0.002 0.001 0.582zM0.921 26.399c0 0.824 0.677 1.492 1.505 1.492v-0.582c-0.001 0-0.003 0-0.005 0-0.504 0-0.914-0.407-0.918-0.91v-0h-0.582zM0.921 25.441v0.958h0.582v-0.958h-0.582zM2.426 23.95c-0.826 0-1.505 0.664-1.505 1.491h0.582c0-0.499 0.412-0.91 0.923-0.91v-0.582zM3.151 23.95h-0.725v0.582h0.725v-0.582zM2.861 13.447v10.793h0.582v-10.793h-0.582zM9.213 7.156c-3.501 0-6.353 2.819-6.353 6.29h0.582c0-3.145 2.587-5.709 5.772-5.709v-0.582zM14.808 7.152l-5.596 0.004v0.582l5.595-0.004v-0.582zM14.517 5.53v1.913h0.582v-1.913h-0.582zM2.189 2.642c0.418 0.413 1.055 0.777 1.842 1.1 0.793 0.324 1.76 0.616 2.857 0.877 2.195 0.521 4.936 0.921 7.893 1.2l0.054-0.579c-2.943-0.277-5.653-0.675-7.813-1.188-1.079-0.256-2.015-0.54-2.77-0.849-0.76-0.31-1.315-0.639-1.654-0.975l-0.409 0.414zM2.005 1.458c-0.208 0.393-0.133 0.873 0.184 1.185l0.407-0.416c-0.078-0.076-0.127-0.183-0.127-0.3 0-0.072 0.018-0.14 0.050-0.199l-0.001 0.002-0.514-0.272zM3.087 0.933c-0.054-0.010-0.117-0.016-0.18-0.016-0.388 0-0.725 0.216-0.897 0.534l-0.003 0.005 0.514 0.274c0.075-0.139 0.22-0.232 0.387-0.232 0.027 0 0.054 0.003 0.080 0.007l-0.003-0 0.102-0.573zM22.066 1.897c-6.707 0-14.185-0.114-18.98-0.964l-0.102 0.572c4.856 0.86 12.387 0.974 19.082 0.974v-0.582zM26.233 1.887c-1.344 0.007-2.744 0.010-4.167 0.010v0.582c1.425 0 2.825-0.003 4.17-0.010l-0.003-0.582zM27.248 1.884l-1.015 0.004 0.002 0.582 1.015-0.004-0.002-0.582zM27.248 1.884v0zM27.248 1.884v0zM27.248 1.884v0zM27.248 1.884v0zM27.248 1.884h0.001zM27.248 1.884l0.003 0.582-0.002-0.582zM29.818 1.878c-0.824 0-1.683 0.003-2.57 0.006l0.003 0.582c0.885-0.003 1.744-0.006 2.567-0.006v-0.582zM36.060 1.88l-6.242-0.002v0.582l6.242 0.002v-0.582zM36.062 1.88h-0.002v0.582h0.002v-0.582zM46.251 1.689c-3.368 0.163-5.965 0.191-10.189 0.191v0.582c4.228 0 6.834-0.028 10.217-0.191l-0.028-0.582zM47.279 2.42c-0.131-0.427-0.521-0.732-0.983-0.732-0.015 0-0.029 0-0.044 0.001l0.002-0 0.022 0.582c0.006-0 0.013-0 0.020-0 0.198 0 0.365 0.129 0.423 0.308l0.001 0.003 0.559-0.161zM46.799 3.582c0.313-0.175 0.52-0.505 0.52-0.882 0-0.099-0.014-0.196-0.041-0.286l0.002 0.007-0.559 0.162c0.010 0.035 0.016 0.076 0.016 0.117 0 0.16-0.088 0.299-0.218 0.372l-0.002 0.001 0.281 0.509zM44.937 4.358c0.728-0.237 1.353-0.495 1.862-0.776l-0.283-0.509c-0.465 0.258-1.052 0.502-1.759 0.731l0.179 0.554zM45.137 5.537v-1.455h-0.582v1.455h0.582zM44.042 7.299c0.654-0.321 1.096-0.982 1.096-1.746 0-0.005-0-0.011-0-0.016v0.001h-0.582c0 0.537-0.285 0.998-0.773 1.241l0.26 0.521zM43.144 7.515c0.306 0 0.611-0.074 0.899-0.216l-0.26-0.521c-0.209 0.105-0.427 0.155-0.64 0.155v0.582zM41.966 7.123c0.352 0.259 0.763 0.392 1.178 0.392v-0.582c-0.29 0-0.58-0.092-0.834-0.279l-0.344 0.469zM39.619 5.401l2.347 1.722 0.344-0.469-2.347-1.722-0.344 0.469zM28.855 6.259c4.261-0.097 7.974-0.372 10.977-0.805l-0.082-0.576c-2.973 0.429-6.662 0.702-10.908 0.799l0.014 0.582zM29.139 7.449v-1.481h-0.582v1.481h0.582zM33.937 7.156l-5.089 0.002v0.582l5.089-0.002v-0.582zM42.747 10.094c-2.416-1.834-5.474-2.938-8.79-2.938-0.007 0-0.014 0-0.021 0h0.001v0.582c3.178 0 6.107 1.053 8.46 2.822l0.349-0.465zM42.949 10.249l-0.199-0.153-0.356 0.461 0.199 0.154 0.356-0.461zM47.561 16.426c-0.993-2.499-2.574-4.583-4.579-6.152l-0.032-0.024-0.358 0.46c1.955 1.529 3.473 3.53 4.394 5.834l0.033 0.094 0.543-0.211zM47.555 16.411l-0.006-0.011-0.519 0.262 0.006 0.012 0.519-0.262zM47.577 16.463l-0.014-0.032-0.537 0.223 0.014 0.033 0.537-0.223zM47.621 16.576c-0.006-0.013-0.019-0.045-0.032-0.078l-0.007-0.021-0.548 0.194c0.016 0.044 0.032 0.084 0.046 0.119l0.541-0.213zM47.621 16.576v-0.001zM47.621 16.579l-0.542 0.209 0.543-0.209zM47.621 16.576v0zM47.622 16.579v0zM47.621 16.576v0zM47.66 16.677c-0.022-0.061-0.035-0.094-0.049-0.127l0.010 0.027-0.541 0.213 0.033 0.086 0.547-0.2zM47.948 17.416l-0.291-0.745-0.541 0.211 0.289 0.744 0.543-0.21zM47.634 17.811h0.042v-0.582h-0.042v0.582zM48.533 21.601c0-1.446-0.218-2.845-0.621-4.165l-0.557 0.17c0.378 1.195 0.595 2.569 0.595 3.994 0 0 0 0.001 0 0.002v-0h0.582zM45.51 15.793h-10.601v0.582h10.601v-0.582zM45.51 15.793v0zM41.881 11.991c1.4 1.139 2.534 2.545 3.335 4.148l0.033 0.073 0.522-0.256c-0.872-1.752-2.059-3.225-3.499-4.397l-0.024-0.019-0.367 0.452zM34.909 12.056h7.156v-0.582h-7.156v0.582zM34.958 12.005c0 0.001 0 0.002 0 0.003 0 0.014-0.005 0.026-0.014 0.036l0-0c-0.009 0.008-0.020 0.013-0.033 0.013-0.001 0-0.002-0-0.002-0h0v-0.582c-0.293 0.002-0.53 0.238-0.533 0.53v0h0.582zM34.958 15.843v-3.838h-0.582v3.838h0.582zM34.909 15.793c0.001-0 0.001-0 0.002-0 0.013 0 0.024 0.005 0.033 0.013l-0-0c0.008 0.009 0.014 0.022 0.014 0.036 0 0.001-0 0.002-0 0.003v-0h-0.582c0 0.293 0.245 0.53 0.533 0.53v-0.582zM43.388 6.014c0.092-0.044 0.166-0.111 0.219-0.194l0.001-0.002c0.048-0.078 0.077-0.173 0.077-0.274 0-0.003-0-0.005-0-0.008v0h-0.582l0.001-0.004c0.005-0.016 0.013-0.029 0.025-0.040l0-0c0.004-0.004 0.005-0.004 0.001-0.002l0.258 0.522zM42.833 5.965c0.074 0.054 0.165 0.097 0.27 0.107 0.012 0.001 0.026 0.002 0.040 0.002 0.090 0 0.174-0.022 0.248-0.061l-0.003 0.001-0.258-0.521c-0.004 0.002-0.004 0.001 0.001 0s0.011-0.002 0.017-0.002c0.011 0 0.021 0.002 0.030 0.006l-0.001-0c0.005 0.002 0.005 0.003 0 0l-0.344 0.468zM41.614 5.071l1.22 0.894 0.344-0.469-1.22-0.893-0.344 0.468zM43.325 4.207c-0.495 0.12-1.026 0.236-1.593 0.343l0.109 0.572c0.757-0.141 1.304-0.263 1.846-0.398l-0.224 0.047-0.138-0.565zM43.685 5.537v-1.047h-0.582v1.047h0.582zM25.301 3.914v0zM22.068 3.921c1.098 0 2.179-0.004 3.233-0.007l-0.002-0.582c-1.054 0.003-2.134 0.007-3.231 0.007v0.582zM22.042 3.34v0zM9.035 3.611c4.084 0.261 8.728 0.309 13.034 0.309v-0.582c-4.303 0-8.932-0.049-12.996-0.309l-0.038 0.582zM25.212 4.276c-6.606 0-12.214-0.516-16.105-1.243l-0.107 0.572c3.933 0.736 9.579 1.253 16.211 1.253v-0.582zM40.431 3.307c-3.841 0.618-9.144 0.97-15.219 0.97v0.582c6.093 0 11.429-0.353 15.312-0.977l-0.092-0.574zM36.065 3.906c1.675 0 3.098-0.006 4.416-0.020l-0.007-0.582c-1.315 0.015-2.736 0.020-4.409 0.020v0.582zM36.063 3.906h0.002v-0.582h-0.002v0.582zM29.818 3.9l6.245 0.006v-0.582l-6.245-0.006v0.582zM26.242 3.91c1.246-0.006 2.444-0.010 3.576-0.010v-0.582c-1.133 0-2.332 0.004-3.578 0.010l0.002 0.582zM25.301 3.913l0.941-0.003-0.002-0.582-0.941 0.003 0.002 0.582zM25.212 5.717c-2.943 0-6.015-0.118-8.926-0.349l-0.046 0.582c2.927 0.23 6.013 0.349 8.972 0.349v-0.582zM27.39 5.702c-0.713 0.010-1.439 0.015-2.178 0.015v0.582c0.742 0 1.471-0.005 2.186-0.015l-0.008-0.582zM27.685 7.447v-1.455h-0.582v1.455h0.582zM16.263 7.738h11.131v-0.582h-11.131v0.582zM15.972 5.659v1.788h0.582v-1.788h-0.582zM11.394 29.708c-1.581 0-2.861-1.271-2.861-2.829h-0.582c0 1.884 1.546 3.409 3.442 3.409v-0.582zM14.255 26.879c0 1.557-1.28 2.828-2.861 2.828v0.582c1.897 0 3.442-1.525 3.442-3.409h-0.582zM11.394 24.051c1.581 0 2.861 1.27 2.861 2.828h0.582c0-1.884-1.546-3.409-3.442-3.409v0.582zM8.533 26.879c0-1.557 1.28-2.828 2.861-2.828v-0.582c-1.897 0-3.442 1.525-3.442 3.409h0.582zM33.891 26.879c0 1.884 1.546 3.409 3.442 3.409v-0.582c-1.581 0-2.861-1.27-2.861-2.828h-0.582zM37.333 23.47c-1.897 0-3.442 1.525-3.442 3.409h0.582c0-1.557 1.28-2.828 2.861-2.828v-0.582zM40.776 26.879c0-1.884-1.546-3.409-3.442-3.409v0.582c1.581 0 2.861 1.27 2.861 2.828h0.582zM37.333 30.288c1.897 0 3.442-1.525 3.442-3.409h-0.582c0 1.557-1.28 2.828-2.861 2.828v0.582zM42.164 26.113c-0.373-2.312-2.395-4.082-4.831-4.082v0.582c2.148 0 3.928 1.561 4.257 3.594l0.574-0.093zM47.758 25.869h-5.881v0.582h5.881v-0.582zM47.467 25.68v0.48h0.582v-0.48h-0.582zM43.394 25.97h4.364v-0.582h-4.364v0.582zM43.103 24.241v1.439h0.582v-1.439h-0.582zM46.788 23.95h-3.394v0.582h3.394v-0.582zM46.497 21.603v2.638h0.582v-2.638h-0.582zM45.831 17.617c0.43 1.253 0.666 2.591 0.666 3.985h0.582c0-1.461-0.248-2.863-0.698-4.175l-0.55 0.189zM34.909 17.814h11.197v-0.582h-11.197v0.582zM32.921 15.844c0 1.089 0.894 1.97 1.988 1.97v-0.582c-0.778 0-1.406-0.626-1.406-1.389h-0.582zM32.921 12.006v3.838h0.582v-3.839h-0.582zM34.909 10.035c-1.094 0-1.988 0.88-1.988 1.97h0.582c0-0.763 0.628-1.389 1.406-1.389v-0.582zM39.865 10.035h-4.956v0.582h4.956v-0.582zM33.937 9.177c2.089 0 4.060 0.511 5.795 1.407l0.267-0.517c-1.758-0.928-3.842-1.472-6.053-1.472-0.003 0-0.006 0-0.009 0h0v0.582zM9.214 9.177h24.723v-0.582h-24.723v0.582zM4.897 13.447c0-2.35 1.934-4.27 4.317-4.27v-0.582c-2.7 0-4.899 2.174-4.899 4.851h0.582zM4.897 16.084v-2.638h-0.582v2.638h0.582zM11.913 15.793h-7.307v0.582h7.307v-0.582zM12.204 17.523v-1.44h-0.582v1.44h0.582zM4.606 17.814h7.307v-0.582h-7.307v0.582zM4.897 24.241v-6.718h-0.582v6.717h0.582zM5.576 23.95h-0.97v0.582h0.97v-0.582zM5.867 25.68v-1.439h-0.582v1.439h0.582zM2.667 25.97h2.909v-0.582h-2.909v0.582zM2.958 26.16v-0.48h-0.582v0.48h0.582zM6.85 25.869h-4.183v0.582h4.183v-0.582zM11.394 22.031c-2.436 0-4.456 1.771-4.831 4.082l0.574 0.093c0.33-2.032 2.109-3.594 4.257-3.594v-0.582zM16.225 26.113c-0.373-2.312-2.395-4.082-4.831-4.082v0.582c2.148 0 3.928 1.561 4.257 3.594l0.574-0.093zM32.789 25.869h-16.852v0.582h16.853v-0.582zM37.333 22.031c-2.435 0-4.456 1.771-4.831 4.082l0.575 0.093c0.33-2.032 2.108-3.594 4.256-3.594v-0.582z"></path>
<path fill="#fff" style="fill: var(--color1, #fff)" d="M23.030 12.005v3.838c0 0.926-0.761 1.68-1.697 1.68h-4.848c-0.936 0-1.697-0.753-1.697-1.68v-3.838c0-0.926 0.761-1.68 1.697-1.68h4.849c0.936 0 1.697 0.753 1.697 1.68zM16.242 12.005v3.838c0 0.132 0.111 0.241 0.242 0.241h4.849c0.131 0 0.242-0.111 0.242-0.239v-3.839c-0.003-0.132-0.11-0.238-0.242-0.239h-4.849c-0.132 0.002-0.239 0.108-0.242 0.239v0z"></path>
<path fill="#222532" style="fill: var(--color2, #222532)" d="M23.321 15.843v-3.838h-0.582v3.838h0.582zM21.333 17.813c1.094 0 1.988-0.881 1.988-1.97h-0.582c0 0.763-0.628 1.389-1.406 1.389v0.582zM16.485 17.813h4.848v-0.582h-4.849v0.582zM14.497 15.843c0 1.090 0.894 1.97 1.988 1.97v-0.582c-0.778 0-1.406-0.625-1.406-1.388h-0.582zM14.497 12.005v3.838h0.582v-3.838h-0.582zM16.485 10.034c-1.094 0-1.988 0.881-1.988 1.97h0.582c0-0.762 0.628-1.389 1.406-1.389v-0.582zM21.333 10.034h-4.848v0.582h4.849v-0.582zM23.321 12.005c-0.006-1.090-0.891-1.97-1.981-1.97-0.002 0-0.005 0-0.007 0h0v0.582c0.778 0 1.406 0.626 1.406 1.389h0.582zM16.533 15.843v-3.838h-0.582v3.838h0.582zM16.485 15.793c0.017 0 0.027 0.007 0.034 0.013s0.015 0.019 0.015 0.039h-0.582c0 0.296 0.246 0.53 0.533 0.53v-0.582zM21.333 15.793h-4.848v0.582h4.849v-0.582zM21.285 15.843c0-0.019 0.009-0.032 0.015-0.038 0.009-0.008 0.020-0.013 0.033-0.013 0 0 0.001 0 0.001 0h-0v0.582c0.288 0 0.533-0.238 0.533-0.53h-0.582zM21.285 12.005v3.838h0.582v-3.838h-0.582zM21.333 12.056c-0 0-0.001 0-0.001 0-0.013 0-0.024-0.005-0.033-0.013l0 0c-0.009-0.010-0.015-0.022-0.015-0.037 0-0.001 0-0.002 0-0.002v0h0.582c-0.003-0.293-0.24-0.529-0.533-0.53h-0v0.582zM16.485 12.056h4.848v-0.582h-4.849v0.582zM16.533 12.005c0 0.001 0 0.001 0 0.002 0 0.014-0.006 0.027-0.015 0.037l0-0c-0.009 0.008-0.020 0.013-0.033 0.013-0 0-0.001 0-0.001-0h0v-0.582c-0.293 0.002-0.53 0.238-0.533 0.53v0h0.582z"></path>
<path fill="#fff" style="fill: var(--color1, #fff)" d="M25.697 10.325h4.848c0.936 0 1.697 0.753 1.697 1.679v3.838c0 0.926-0.761 1.68-1.697 1.68h-4.848c-0.936 0-1.697-0.753-1.697-1.68v-3.838c0-0.926 0.761-1.68 1.697-1.68zM30.545 16.083c0.131 0 0.242-0.111 0.242-0.239v-3.839c-0.003-0.132-0.11-0.238-0.242-0.239h-4.849c-0.132 0.002-0.239 0.108-0.242 0.239v3.838c0 0.13 0.111 0.24 0.242 0.24h4.848z"></path>
<path fill="#222532" style="fill: var(--color2, #222532)" d="M30.545 10.034h-4.848v0.582h4.849v-0.582zM32.533 12.005c-0.006-1.090-0.891-1.97-1.981-1.97-0.002 0-0.005 0-0.007 0h0v0.582c0.778 0 1.406 0.626 1.406 1.389h0.582zM32.533 15.843v-3.838h-0.582v3.838h0.582zM30.545 17.813c1.094 0 1.988-0.881 1.988-1.97h-0.582c0 0.763-0.628 1.389-1.406 1.389v0.582zM25.697 17.813h4.848v-0.582h-4.849v0.582zM23.709 15.843c0 1.090 0.894 1.97 1.988 1.97v-0.582c-0.778 0-1.406-0.625-1.406-1.388h-0.582zM23.709 12.005v3.838h0.582v-3.838h-0.582zM25.697 10.034c-1.094 0-1.988 0.881-1.988 1.97h0.582c0-0.762 0.628-1.389 1.406-1.389v-0.582zM30.497 15.843c0-0.019 0.009-0.032 0.015-0.038 0.009-0.008 0.020-0.013 0.033-0.013 0 0 0.001 0 0.001 0h-0v0.582c0.288 0 0.533-0.238 0.533-0.53h-0.582zM30.497 12.005v3.838h0.582v-3.838h-0.582zM30.545 12.056c-0 0-0.001 0-0.001 0-0.013 0-0.024-0.005-0.033-0.013l0 0c-0.009-0.010-0.015-0.022-0.015-0.037 0-0.001 0-0.002 0-0.002v0h0.582c-0.003-0.293-0.24-0.529-0.533-0.53h-0v0.582zM25.697 12.056h4.848v-0.582h-4.849v0.582zM25.745 12.005c0 0.001 0 0.001 0 0.002 0 0.014-0.006 0.027-0.015 0.037l0-0c-0.009 0.008-0.020 0.013-0.033 0.013-0 0-0.001 0-0.001-0h0v-0.582c-0.293 0.002-0.53 0.238-0.533 0.53v0h0.582zM25.745 15.843v-3.838h-0.582v3.838h0.582zM25.697 15.793c0 0 0.001-0 0.001-0 0.013 0 0.024 0.005 0.033 0.013l-0-0c0.009 0.010 0.015 0.022 0.015 0.037 0 0.001 0 0.002-0 0.002v-0h-0.582c0 0.293 0.245 0.53 0.533 0.53v-0.582zM30.545 15.793h-4.848v0.582h4.849v-0.582z"></path>
<path fill="#fff" style="fill: var(--color1, #fff)" d="M35.394 26.879c0-1.059 0.87-1.92 1.939-1.92s1.939 0.863 1.939 1.92c0 1.059-0.87 1.919-1.939 1.919s-1.939-0.86-1.939-1.92zM36.849 26.879c0 0.264 0.218 0.48 0.485 0.48s0.485-0.216 0.485-0.48c-0.002-0.265-0.217-0.48-0.483-0.48-0.001 0-0.001 0-0.002 0h0c-0.267 0-0.485 0.215-0.485 0.48z"></path>
<path fill="#222532" style="fill: var(--color2, #222532)" d="M37.333 24.669c-1.228 0-2.23 0.987-2.23 2.21h0.582c0-0.896 0.737-1.629 1.648-1.629v-0.582zM39.564 26.879c0-1.221-1.003-2.211-2.23-2.211v0.582c0.911 0 1.648 0.735 1.648 1.629h0.582zM37.333 29.089c1.228 0 2.23-0.988 2.23-2.211h-0.582c0 0.896-0.737 1.629-1.648 1.629v0.582zM35.103 26.878c0 1.223 1.003 2.211 2.23 2.211v-0.582c-0.911 0-1.648-0.733-1.648-1.629h-0.582zM37.333 27.068c-0.11 0-0.194-0.088-0.194-0.189h-0.582c0 0.428 0.351 0.771 0.776 0.771v-0.582zM37.527 26.879c-0.002 0.105-0.087 0.189-0.192 0.189-0.001 0-0.001 0-0.002 0h0v0.582c0.425 0 0.776-0.343 0.776-0.771h-0.582zM37.333 26.69c0.11 0 0.194 0.087 0.194 0.189h0.582c-0.002-0.426-0.347-0.771-0.774-0.771-0.001 0-0.001 0-0.002 0h0v0.582zM37.139 26.879c0-0.101 0.084-0.189 0.194-0.189v-0.582c-0.425 0-0.776 0.343-0.776 0.771h0.582z"></path>
<path fill="#fff" style="fill: var(--color1, #fff)" d="M9.455 26.879c0-1.059 0.869-1.92 1.939-1.92s1.939 0.863 1.939 1.92c0 1.059-0.869 1.919-1.939 1.919s-1.939-0.863-1.939-1.92zM10.909 26.879c0 0.264 0.218 0.48 0.485 0.48s0.485-0.216 0.485-0.48c-0.002-0.265-0.217-0.48-0.483-0.48-0.001 0-0.001 0-0.002 0h0c-0.267 0-0.485 0.215-0.485 0.48z"></path>
<path fill="#222532" style="fill: var(--color2, #222532)" d="M11.394 24.669c-1.228 0-2.23 0.987-2.23 2.21h0.582c0-0.896 0.737-1.629 1.649-1.629v-0.582zM13.624 26.879c0-1.221-1.003-2.211-2.23-2.211v0.582c0.912 0 1.649 0.735 1.649 1.629h0.582zM11.394 29.089c1.228 0 2.23-0.988 2.23-2.211h-0.582c0 0.896-0.737 1.629-1.649 1.629v0.582zM9.164 26.878c0 1.222 1.003 2.211 2.23 2.211v-0.582c-0.912 0-1.649-0.735-1.649-1.629h-0.582zM11.394 27.068c-0.11 0-0.194-0.088-0.194-0.189h-0.582c0 0.428 0.351 0.771 0.776 0.771v-0.582zM11.588 26.879c-0.002 0.105-0.087 0.189-0.192 0.189-0.001 0-0.001 0-0.002 0h0v0.582c0.425 0 0.776-0.343 0.776-0.771h-0.582zM11.394 26.69c0.11 0 0.194 0.087 0.194 0.189h0.582c-0.002-0.426-0.347-0.771-0.774-0.771-0.001 0-0.001 0-0.002 0h0v0.582zM11.2 26.879c0-0.101 0.084-0.189 0.194-0.189v-0.582c-0.425 0-0.776 0.343-0.776 0.771h0.582z"></path>
<path fill="#fff" style="fill: var(--color1, #fff); stroke: var(--color2, #222532)" stroke="#222532" stroke-linejoin="miter" stroke-linecap="butt" stroke-miterlimit="4" stroke-width="0.5818" d="M16.727 24.239h15.030v1.44h-15.030v-1.44z"></path>
</symbol>
<symbol id="camp" viewBox="0 0 31 32">
<path fill="#fff" style="fill: var(--color1, #fff)" d="M28.025 21.459h-5.525c-0.179 0-0.323 0.145-0.323 0.323s0.145 0.323 0.323 0.323v0h5.525c0.179 0 0.323-0.145 0.323-0.323s-0.145-0.323-0.323-0.323v0zM28.025 25.56h-6.194c-0.179 0-0.323 0.145-0.323 0.323s0.145 0.323 0.323 0.323v0h6.194c0.179 0 0.323-0.145 0.323-0.323s-0.145-0.323-0.323-0.323v0zM2.987 23.795h4.995c0.179 0 0.324-0.145 0.324-0.324s-0.145-0.324-0.324-0.324h-4.995c-0.177 0.001-0.321 0.145-0.321 0.323 0 0 0 0 0 0.001v-0c0 0.18 0.144 0.324 0.321 0.324z"></path>
<path fill="#fff" style="fill: var(--color1, #fff)" d="M5.163 0.357c0.042-0.021 0.091-0.034 0.143-0.034 0.089 0 0.169 0.036 0.227 0.095l0 0c0.058 0.059 0.093 0.14 0.093 0.228 0 0.053-0.013 0.104-0.035 0.148l0.001-0.002c-0.189 0.37-0.3 0.808-0.3 1.271 0 0.001 0 0.002 0 0.003v-0c0 1.585 1.287 2.876 2.867 2.876 0.443 0 0.871-0.103 1.271-0.302 0.042-0.021 0.091-0.034 0.143-0.034 0.089 0 0.169 0.036 0.227 0.095l0 0c0.058 0.059 0.094 0.14 0.094 0.229 0 0.053-0.013 0.102-0.035 0.147l0.001-0.002c-0.579 1.17-1.765 1.96-3.135 1.96-0.002 0-0.004 0-0.006 0h0c-1.935 0-3.509-1.581-3.509-3.524 0-0.003-0-0.007-0-0.011 0-1.37 0.786-2.557 1.933-3.134l0.020-0.009zM8.752 5.538c-0.177 0.032-0.38 0.051-0.588 0.051-0.002 0-0.004 0-0.006 0h0c-1.935 0-3.508-1.58-3.507-3.523 0-0.202 0.016-0.4 0.050-0.596-0.524 0.518-0.849 1.238-0.849 2.033 0 0.003 0 0.006 0 0.008v-0c0 1.587 1.287 2.877 2.867 2.877 0.002 0 0.005 0 0.008 0 0.793 0 1.509-0.325 2.024-0.849l0-0zM28.026 16.273h0c0.177 0.001 0.32 0.144 0.32 0.321 0 0.001 0 0.002-0 0.003l-0.013 2.773c0 0 0 0 0 0 0 0.144-0.094 0.266-0.227 0.309l0.002-0.001c-0.030 0.010-0.063 0.015-0.096 0.015-0.11 0-0.207-0.056-0.265-0.142l-1.873-2.785v2.603c0 0 0 0.001 0 0.001 0 0.178-0.144 0.322-0.321 0.323h-7.363l-0.006 0.021c-0.364 1.162-1.436 2.011-2.715 2.040l-0.007 0.001h-0.018l0 0c-0.003-0-0.007-0-0.010-0s-0.007 0-0.009 0l-0.013 0.001h-0c-1.302-0.003-2.403-0.861-2.778-2.063h-7.149c-0.177 0-0.321-0.145-0.321-0.324v-2.603l-1.874 2.786c-0.058 0.084-0.155 0.14-0.265 0.14h-0c-0.177-0.002-0.321-0.146-0.321-0.324 0-0 0-0 0-0.001l0.011-2.895v-0c0-0.177 0.144-0.321 0.321-0.322h0.001c0.177 0.001 0.32 0.145 0.32 0.322 0 0.001 0 0.002-0 0.003l-0.008 1.833 11.903-17.695c0.12-0.178 0.412-0.178 0.531 0l11.911 17.708 0.008-1.728v-0c0-0.177 0.144-0.321 0.321-0.322h0.001zM15.489 21.107c0.545-0.021 0.983-0.469 0.983-1.019 0-0.368-0.537-1.215-1.021-1.853-0.484 0.639-1.021 1.485-1.021 1.853v0c0.001 0.559 0.45 1.012 1.008 1.021l0.047-0.002h0.004zM17.112 20.087c0 0.096-0.012 0.187-0.027 0.278 0.367-0.405 0.593-0.939 0.591-1.527 0-0.969-1.46-3.032-2.265-4.059-0.803 1.027-2.265 3.091-2.265 4.059 0 0.637 0.265 1.213 0.687 1.627-0.028-0.113-0.045-0.243-0.047-0.377v-0.001c0-0.819 1.18-2.291 1.416-2.579 0.061-0.068 0.149-0.111 0.247-0.111s0.186 0.043 0.247 0.11l0 0c0.237 0.287 1.415 1.76 1.415 2.579zM15.661 14.059c0.271 0.33 2.659 3.272 2.658 4.779 0 0.071-0.005 0.141-0.010 0.21h3.47v-2.133c-0.42-0.341-1.807-1.525-3.213-3.28-1.141-1.425-2.443-3.437-3.034-5.733-0.591 2.295-1.893 4.309-3.035 5.733-1.405 1.755-2.793 2.939-3.212 3.28v2.133h3.232l-0.003-0.059c-0.003-0.050-0.007-0.1-0.007-0.151 0-1.507 2.387-4.449 2.659-4.779l0-0c0.061-0.068 0.149-0.111 0.247-0.111s0.186 0.043 0.247 0.111zM22.419 19.048h2.813l0.002-3.235-9.714-14.439-9.713 14.44v3.233h2.835v-2.29c0-0.101 0.047-0.195 0.125-0.256s6.442-5.090 6.442-11.041c0-0.178 0.145-0.323 0.321-0.323s0.321 0.145 0.321 0.323c0 5.949 6.36 10.976 6.442 11.041 0.077 0.060 0.126 0.153 0.126 0.257v2.291z"></path>
<path fill="#fff" style="fill: var(--color1, #fff)" d="M20.397 22.955c0.011 0.032 0.018 0.068 0.018 0.107 0 0.142-0.091 0.263-0.218 0.307l-0.002 0.001-1.187 0.395 1.141 0.325c0.136 0.040 0.234 0.164 0.234 0.311 0 0.033-0.005 0.064-0.014 0.094l0.001-0.002-0.41 1.393c-0.040 0.134-0.162 0.23-0.307 0.23-0.031 0-0.061-0.004-0.090-0.013l0.002 0.001-4.085-1.164-3.749 1.25c-0.030 0.011-0.065 0.017-0.101 0.017-0.139 0-0.257-0.090-0.3-0.215l-0.001-0.002-0.473-1.374c-0.011-0.032-0.018-0.068-0.018-0.106 0-0.142 0.091-0.262 0.218-0.306l0.002-0.001 0.991-0.33-1.19-0.339c-0.136-0.040-0.234-0.164-0.234-0.311 0-0.033 0.005-0.065 0.014-0.095l-0.001 0.002 0.41-1.393c0.040-0.135 0.162-0.232 0.308-0.232 0.031 0 0.061 0.004 0.089 0.013l-0.002-0.001 4.134 1.178 3.945-1.315c0.030-0.010 0.065-0.016 0.101-0.016 0.14 0 0.259 0.090 0.302 0.215l0.001 0.002 0.473 1.374zM11.573 22.227l-0.228 0.772 1.791 0.511 1.353-0.451-2.916-0.831zM19.66 24.623l-1.74-0.497-1.355 0.451 2.867 0.818 0.228-0.773zM11.567 24.715l0.262 0.762 7.855-2.619-0.262-0.762-7.855 2.619z"></path>
</symbol>
<symbol id="shop" viewBox="0 0 15 32">
<path fill="#fff" style="fill: var(--color1, #fff)" d="M3.077 12.666c0 8.134 2.919 13.647 3.042 13.878l0.121 0.225h3.074l0.121-0.225c0.124-0.231 3.043-5.745 3.043-13.878 0-8.050-3.337-12.393-4.701-12.394-1.364 0.001-4.701 4.344-4.701 12.393zM7.351 1.408v13.396h0.855v-13.396c1.094 0.977 3.418 4.529 3.418 11.258 0 2.246-0.236 4.295-0.572 6.084-0.495-0.704-1.404-1.662-3.061-2.609-4.029-2.302-3.98-5.463-3.977-5.597h-0.001c0.42-5.363 2.366-8.268 3.338-9.137zM4.015 14.907c-0.033-0.436-0.058-0.977-0.069-1.521l-0.001-0.033c0.611 1.136 1.695 2.431 3.62 3.532 2.736 1.563 3.204 3.11 3.216 3.149-0.241 1.061-0.471 1.89-0.732 2.705l0.064-0.229c-0.36-0.638-0.994-1.422-2.115-2.090-3.375-2.009-3.908-4.925-3.983-5.513zM8.206 25.914v-2.991h-0.855v2.991h-0.591c-0.385-0.793-1.654-3.631-2.354-7.73 0.655 1.002 1.646 2.071 3.153 2.97 1.658 0.987 2.058 2.225 2.142 2.581-0.391 1.079-0.735 1.829-0.905 2.18h-0.591z"></path>
<path fill="#000" style="fill: var(--color3, #000)" d="M7.778 0.273v-0.076 0.077zM9.436 26.545v0zM9.315 26.769v0.077h0.046l0.022-0.041-0.068-0.037zM6.241 26.769l-0.068 0.036 0.022 0.041h0.046v-0.077zM6.119 26.545v0zM7.35 1.408l-0.025-0.073-0.052 0.018v0.055h0.077zM7.35 1.408l0.052 0.057-0.076-0.13 0.025 0.073zM7.35 14.804h-0.076v0.077h0.077v-0.077zM8.206 14.804v0.077h0.077v-0.077h-0.077zM8.206 1.408l0.051-0.057-0.128-0.114v0.172h0.077zM11.052 18.751l-0.063 0.044 0.105 0.15 0.034-0.179-0.075-0.015zM7.991 16.142v0zM4.014 10.545l0.077 0.002 0.002-0.079h-0.079v0.077zM4.013 10.545l-0.076-0.006-0.006 0.083h0.082v-0.077zM3.946 13.353l0.068-0.036-0.145 0.038 0.077-0.002zM4.015 14.907l-0.077 0.006v0.004l0.077-0.010zM7.566 16.884l-0.038 0.067 0.038-0.066zM10.782 20.034v0zM10.782 20.034l0.075 0.018 0.004-0.020-0.006-0.020-0.073 0.023zM10.113 22.51l-0.066 0.038 0.087 0.154 0.054-0.169-0.074-0.023zM7.998 20.42v0zM8.796 25.915v0.076h0.132l-0.066-0.115-0.066 0.038zM8.206 25.915h-0.077v0.076h0.077v-0.077zM8.796 25.914l-0.070-0.033-0.018 0.036 0.020 0.035 0.066-0.038zM9.701 23.735l0.072 0.026 0.008-0.022-0.005-0.022-0.075 0.017zM7.559 21.154h0.001zM4.406 18.184l0.064-0.042-0.14 0.055 0.076-0.013zM6.76 25.914l-0.070 0.034 0.021 0.043h0.049v-0.077zM7.351 25.914v0.077h0.077v-0.077h-0.077zM7.351 22.923v-0.077h-0.077v0.077h0.077zM8.206 22.923h0.077v-0.077h-0.077v0.077zM7.778 0.197c-0.19 0-0.406 0.075-0.634 0.214s-0.476 0.345-0.732 0.615c-0.511 0.54-1.060 1.342-1.566 2.393-1.010 2.103-1.846 5.212-1.846 9.248h0.154c0-4.014 0.832-7.102 1.831-9.182 0.5-1.041 1.040-1.828 1.538-2.354 0.249-0.263 0.486-0.459 0.7-0.59 0.215-0.13 0.402-0.191 0.554-0.191v-0.154zM12.556 12.666c0-4.035-0.837-7.145-1.846-9.249-0.505-1.051-1.054-1.852-1.566-2.393-0.256-0.27-0.503-0.476-0.732-0.615-0.229-0.138-0.444-0.213-0.634-0.214v0.154c0.151 0 0.338 0.062 0.554 0.191 0.214 0.13 0.452 0.326 0.7 0.59 0.498 0.526 1.039 1.313 1.538 2.354 0.999 2.080 1.831 5.167 1.831 9.182h0.154zM9.503 26.581c0.127-0.236 3.052-5.763 3.052-13.914h-0.154c0 8.115-2.913 13.617-3.034 13.841l0.135 0.073zM9.383 26.806l0.121-0.225-0.135-0.073-0.121 0.224 0.135 0.073zM6.241 26.846h3.074v-0.154h-3.074v0.154zM6.052 26.582l0.121 0.224 0.135-0.073-0.121-0.225-0.135 0.073zM3 12.666c0 8.151 2.925 13.678 3.052 13.914l0.135-0.073c-0.121-0.225-3.034-5.726-3.034-13.842h-0.154zM7.274 1.408v0zM7.326 1.335v0zM7.402 1.465v0zM7.428 14.804v-13.396h-0.154v13.396h0.154zM8.206 14.727h-0.855v0.154h0.855v-0.154zM8.129 1.408v13.396h0.154v-13.396h-0.154zM11.701 12.666c0-6.745-2.33-10.321-3.444-11.316l-0.103 0.114c1.074 0.959 3.393 4.488 3.393 11.201h0.154zM11.127 18.765c0.338-1.793 0.574-3.847 0.574-6.098h-0.154c0 2.24-0.236 4.285-0.571 6.070l0.151 0.029zM7.953 16.209c1.647 0.942 2.548 1.892 3.036 2.586l0.126-0.088c-0.502-0.714-1.42-1.68-3.086-2.632l-0.076 0.134zM3.937 10.543c-0.004 0.15-0.047 3.345 4.015 5.666l0.076-0.134c-3.996-2.283-3.941-5.412-3.938-5.529l-0.153-0.004zM4.013 10.622h0.001v-0.154h-0.001v0.154zM7.299 1.351c-0.991 0.885-2.942 3.809-3.362 9.188l0.153 0.012c0.418-5.35 2.358-8.233 3.312-9.086l-0.103-0.114zM3.869 13.354c0.012 0.529 0.033 1.050 0.070 1.558l0.154-0.011c-0.033-0.435-0.058-0.974-0.069-1.518l-0.001-0.033-0.154 0.004zM7.604 16.818c-1.912-1.094-2.986-2.378-3.591-3.502l-0.135 0.073c0.618 1.148 1.713 2.454 3.65 3.562l0.076-0.134zM10.856 20.012c-0.017-0.057-0.498-1.62-3.252-3.194l-0.076 0.134c2.718 1.553 3.174 3.084 3.18 3.105l0.148-0.044zM10.856 20.012v0zM10.187 22.533c0.23-0.732 0.46-1.565 0.67-2.481l-0.15-0.034c-0.24 1.059-0.47 1.886-0.731 2.699l0.063-0.229 0.147 0.046zM7.959 20.486c1.108 0.66 1.734 1.434 2.088 2.062l0.134-0.076c-0.366-0.649-1.009-1.443-2.143-2.118l-0.079 0.132zM3.938 14.917c0.076 0.6 0.617 3.543 4.020 5.569l0.079-0.132c-3.347-1.993-3.873-4.881-3.946-5.457l-0.153 0.020zM8.796 25.838h-0.591v0.154h0.591v-0.154zM8.729 25.953v0zM9.628 23.709c-0.32 0.896-0.624 1.613-0.962 2.311l0.060-0.138 0.138 0.066c0.17-0.352 0.516-1.105 0.908-2.186l-0.145-0.052zM7.52 21.22c1.636 0.974 2.025 2.192 2.105 2.533l0.15-0.035c-0.087-0.371-0.497-1.63-2.177-2.63l-0.079 0.132zM4.341 18.226c0.661 1.011 1.661 2.089 3.179 2.994l0.079-0.132c-1.497-0.892-2.48-1.953-3.129-2.946l-0.129 0.084zM6.828 25.881c-0.382-0.788-1.649-3.62-2.347-7.711l-0.151 0.026c0.702 4.108 1.973 6.954 2.36 7.751l0.138-0.068zM7.35 25.838h-0.591v0.154h0.591v-0.154zM7.273 22.923v2.991h0.154v-2.991h-0.154zM8.205 22.846h-0.855v0.154h0.855v-0.154zM8.282 25.914v-2.991h-0.154v2.991h0.154z"></path>
</symbol>
<symbol id="arrow-left-prev" viewBox="0 0 38 32">
<path fill="#fff" style="fill: var(--color1, #fff)" d="M13.376 0.858l-12.517 12.419c-0.532 0.53-0.861 1.263-0.861 2.072s0.329 1.543 0.86 2.072l0 0 12.517 12.427c0.538 0.529 1.277 0.856 2.091 0.856s1.553-0.327 2.092-0.856l-0 0c0.53-0.53 0.858-1.263 0.858-2.072s-0.328-1.542-0.858-2.072v0l-7.322-7.264h23.488c1.694 0 3.068-1.374 3.068-3.068s-1.374-3.068-3.068-3.068v0h-23.531l7.366-7.302c0.531-0.53 0.859-1.262 0.859-2.071s-0.328-1.541-0.859-2.071l-0-0c-0.537-0.532-1.277-0.861-2.094-0.861-0.815 0-1.553 0.328-2.091 0.858l0-0z"></path>
</symbol>
<symbol id="arrow-right" viewBox="0 0 38 32">
<path fill="#fff" style="fill: var(--color1, #fff)" d="M23.419 29.847l12.515-12.419c0.532-0.53 0.861-1.263 0.861-2.072s-0.329-1.543-0.86-2.072l-0-0-12.514-12.425c-0.538-0.53-1.277-0.856-2.092-0.856s-1.554 0.327-2.093 0.857l0-0c-0.53 0.53-0.858 1.263-0.858 2.072s0.328 1.542 0.858 2.072v0l7.323 7.264h-23.491c-1.694 0-3.068 1.374-3.068 3.068s1.374 3.068 3.068 3.068v0h23.534l-7.368 7.302c-0.531 0.53-0.859 1.262-0.859 2.071s0.328 1.541 0.859 2.071l0 0c0.537 0.532 1.277 0.861 2.094 0.861 0.815 0 1.553-0.328 2.091-0.858l-0 0z"></path>
</symbol>
<symbol id="arrow-right-next" viewBox="0 0 38 32">
<path fill="#fff" style="fill: var(--color1, #fff)" d="M24.178 29.847l12.515-12.419c0.532-0.53 0.861-1.263 0.861-2.072s-0.329-1.543-0.86-2.072l-0-0-12.515-12.425c-0.538-0.53-1.277-0.856-2.092-0.856s-1.554 0.327-2.093 0.857l0-0c-0.53 0.53-0.858 1.263-0.858 2.072s0.328 1.542 0.858 2.072v0l7.323 7.264h-23.49c-1.694 0-3.068 1.374-3.068 3.068s1.374 3.068 3.068 3.068v0h23.534l-7.368 7.302c-0.531 0.53-0.859 1.262-0.859 2.071s0.328 1.541 0.859 2.071l0 0c0.537 0.532 1.277 0.861 2.094 0.861 0.815 0 1.553-0.328 2.091-0.858l-0 0z"></path>
</symbol>
</defs>
</svg>
