<svg xmlns="http://www.w3.org/2000/svg" width="1001" height="496" fill="none"><path stroke="#fff" stroke-linecap="round" stroke-linejoin="round" stroke-width="2" d="M1008.08 163.448 443.182-356.858V-747.19L28.11-770c-3.206 7.544-23.743 29.286-20.538 41.404 3.858 14.494 23.267 9.861 28.906 19.187 6.588 10.989-4.749 55.66-8.132 68.549-6.47 24.415-21.25 44.195-25.524 68.61-7.182 40.987 7.36 37.72 34.902 63.323 46.417 43.185 9.2 87.975 20.894 138.704 9.497 41.345 50.987 62.669 66.182 104.012 11.753 31.841 27.897 39.978 52.946 63.264-.593-14.137-13.236-55.838 10.507-52.155 23.564 3.624 14.483 38.433 18.994 52.987 3.798 12.118 30.686 36.354 8.369 47.522-7.42 3.683-28.55-10.989-37.039-14.91 5.995 18.712 2.197 38.136 11.694 56.016 11.337 21.325 23.564 13.128 38.582 24.712 15.491 11.94 13.83 25.661 6.944 43.72-7.182 18.83-14.601 15.92-3.205 38.612 8.251 16.394 22.258 37.185 34.308 49.66 7.004 7.246 14.602 8.91 21.606 18.176 5.817 7.722 3.561 17.821 10.506 24.77 11.871 11.94 31.994 12.119 41.372 27.741 10.447 17.405-1.424 30.533 29.322 28.929 1.603 34.81 8.191 66.352 7.835 101.161 17.154 6.831 44.873-1.307 62.858-4.931 17.867 24.117 40.956 7.366 61.375 20.495 8.904 5.702 7.063 19.959 12.465 24.948 11.1 10.217 19.29 3.802 33.062 7.366 10.209 2.614 18.103 10.098 27.837 12.831 9.2 2.554 24.337-3.445 31.163 4.693 8.191 9.742-5.521 27.562 6.826 35.403 10.268 6.534 24.988-9.029 34.961-6.772 11.633 2.673 44.991 33.147 53.183 43.185 9.319 11.465 18.698 32.85 23.979 47.581 8.251 23.048 7.123 34.334 24.158 51.205 10.862 10.752.534 11.524 18.222 14.672 11.574 2.079 26.888-6.296 38.582-7.603 24.337-2.673 48.91 1.96 72.89-2.614 22.319-4.277 43.627-11.287 66.538-14.554 19.825-2.851 54.73-.653 72.3-10.098 19.05-10.158 20.77-33.147-6.77-28.869-2.2-14.672 7.6-34.929-3.32-45.085 15.19-20.791 20.71-35.463 23.08-60.888 1.07-11.167 1.55-23.523 7.07-32.909 5.4-9.267 20.59-14.791 23.56-22.751 4.57-12.356-2.73-17.88-8.31-24.771-3.56-4.455-13.71-2.316-16.62-6.237-5.4-7.188-.06-14.613-3.03-21.86-8.66-20.969-18.99-29.226-25.52-52.987.18 3.98.36 8.019.12 11.94" opacity=".298"/><path stroke="#fff" stroke-width="2" d="M729.114 83.94c-8.568 23.381 11.5 31.586 27.561 46.867 4.759 4.529 5.213 12.01.204 16.535-10.772 9.732-51.615-4.425-49.025 8.403 2.676 13.249 37.207 31.786 38.764 33.054 13.666 11.133 18.117 39.375 10.59 54.859-5.356 11.018-40.866 7.304-52.036 3.635-73.148-24.027-40.187-21.162-122.355-28.623-6.29-.571-12.882-.864-18.923.98-6.223 1.899-6.025 9.689-3.937 13.9 6.919 13.956 37.892 37.628 29.557 55.973-2.558 5.629-8.551 9.184-11.25 14.747-2.113 4.357-1.879 9.502-2.819 14.253"/><path fill="#4AF6CD" fill-rule="evenodd" d="M573.5 326a6.5 6.5 0 1 0 0-13 6.5 6.5 0 0 0 0 13ZM661 363a3 3 0 1 0 0-6 3 3 0 0 0 0 6ZM725 471a3 3 0 1 0 0-6 3 3 0 0 0 0 6ZM365 228a3 3 0 1 0 0-6 3 3 0 0 0 0 6Z" clip-rule="evenodd"/><path fill="#fff" d="M471.32 363.784c.736 0 1.365.107 1.888.32.523.203 1.029.523 1.52.96l-.832.928a4.494 4.494 0 0 0-1.232-.72 3.375 3.375 0 0 0-1.28-.24c-.576 0-1.051.133-1.424.4s-.56.656-.56 1.168c0 .32.064.592.192.816.128.213.363.411.704.592.352.181.859.373 1.52.576.693.213 1.269.443 1.728.688.459.245.827.587 1.104 1.024.288.427.432.971.432 1.632 0 .64-.16 1.205-.48 1.696-.309.491-.763.875-1.36 1.152-.587.277-1.285.416-2.096.416-1.525 0-2.773-.475-3.744-1.424l.832-.928c.448.363.901.64 1.36.832.459.181.971.272 1.536.272.683 0 1.248-.165 1.696-.496.448-.341.672-.832.672-1.472 0-.363-.069-.661-.208-.896-.139-.245-.379-.464-.72-.656-.331-.192-.816-.384-1.456-.576-1.131-.341-1.957-.752-2.48-1.232-.523-.48-.784-1.131-.784-1.952 0-.555.144-1.051.432-1.488a2.994 2.994 0 0 1 1.232-1.024c.533-.245 1.136-.368 1.808-.368Zm9.087 2.592c1.184 0 2.101.395 2.752 1.184.661.789.992 1.861.992 3.216 0 .875-.15 1.648-.448 2.32-.299.661-.731 1.179-1.296 1.552-.566.363-1.238.544-2.016.544-1.184 0-2.107-.395-2.768-1.184-.662-.789-.992-1.861-.992-3.216 0-.875.149-1.643.448-2.304.298-.672.73-1.189 1.296-1.552.565-.373 1.242-.56 2.032-.56Zm0 1.184c-1.462 0-2.192 1.077-2.192 3.232 0 2.144.725 3.216 2.176 3.216 1.45 0 2.176-1.077 2.176-3.232 0-2.144-.72-3.216-2.16-3.216Zm12.448 7.44h-1.264l-.112-1.312c-.32.523-.688.907-1.104 1.152-.416.235-.923.352-1.52.352-.736 0-1.312-.224-1.728-.672-.416-.448-.624-1.083-.624-1.904v-6.048h1.472v5.888c0 .576.101.987.304 1.232.202.235.533.352.992.352.821 0 1.525-.485 2.112-1.456v-6.016h1.472V375Zm7.296-.384a3.238 3.238 0 0 1-1.888.576c-.715 0-1.275-.203-1.68-.608-.395-.416-.592-1.013-.592-1.792v-5.088h-1.472v-1.136h1.472v-1.904l1.472-.176v2.08h2l-.16 1.136h-1.84v5.024c0 .437.075.757.224.96.16.192.421.288.784.288.331 0 .704-.112 1.12-.336l.56.976Zm5.493-8.24c.768 0 1.366.229 1.792.688.438.459.656 1.088.656 1.888V375h-1.472v-5.84c0-.597-.117-1.019-.352-1.264-.224-.245-.554-.368-.992-.368-.437 0-.826.128-1.168.384-.341.256-.661.619-.96 1.088v6h-1.472v-11.808l1.472-.16v4.704c.662-.907 1.494-1.36 2.496-1.36Zm12.442-2.592c.736 0 1.365.107 1.888.32.522.203 1.029.523 1.52.96l-.832.928a4.494 4.494 0 0 0-1.232-.72 3.378 3.378 0 0 0-1.28-.24c-.576 0-1.051.133-1.424.4-.374.267-.56.656-.56 1.168 0 .32.064.592.192.816.128.213.362.411.704.592.352.181.858.373 1.52.576.693.213 1.269.443 1.728.688.458.245.826.587 1.104 1.024.288.427.432.971.432 1.632 0 .64-.16 1.205-.48 1.696-.31.491-.763.875-1.36 1.152-.587.277-1.286.416-2.096.416-1.526 0-2.774-.475-3.744-1.424l.832-.928c.448.363.901.64 1.36.832.458.181.97.272 1.536.272.682 0 1.248-.165 1.696-.496.448-.341.672-.832.672-1.472 0-.363-.07-.661-.208-.896-.139-.245-.379-.464-.72-.656-.331-.192-.816-.384-1.456-.576-1.131-.341-1.958-.752-2.48-1.232-.523-.48-.784-1.131-.784-1.952 0-.555.144-1.051.432-1.488a2.988 2.988 0 0 1 1.232-1.024c.533-.245 1.136-.368 1.808-.368Zm9.886 2.592c.768 0 1.366.229 1.792.688.438.459.656 1.088.656 1.888V375h-1.472v-5.84c0-.597-.117-1.019-.352-1.264-.224-.245-.554-.368-.992-.368-.437 0-.826.128-1.168.384-.341.256-.661.619-.96 1.088v6h-1.472v-11.808l1.472-.16v4.704c.662-.907 1.494-1.36 2.496-1.36Zm8.575 0c1.184 0 2.102.395 2.752 1.184.662.789.992 1.861.992 3.216 0 .875-.149 1.648-.448 2.32-.298.661-.73 1.179-1.296 1.552-.565.363-1.237.544-2.016.544-1.184 0-2.106-.395-2.768-1.184-.661-.789-.992-1.861-.992-3.216 0-.875.15-1.643.448-2.304.299-.672.731-1.189 1.296-1.552.566-.373 1.243-.56 2.032-.56Zm0 1.184c-1.461 0-2.192 1.077-2.192 3.232 0 2.144.726 3.216 2.176 3.216 1.451 0 2.176-1.077 2.176-3.232 0-2.144-.72-3.216-2.16-3.216Zm9.84-1.184c.299 0 .576.032.832.096l-.272 1.44a3.032 3.032 0 0 0-.736-.096c-.523 0-.944.192-1.264.576-.32.384-.571.981-.752 1.792V375h-1.472v-8.432h1.264l.144 1.712c.224-.629.528-1.104.912-1.424.384-.32.832-.48 1.344-.48Zm8.392 4.16c0 .245-.011.496-.032.752h-5.376c.064.928.298 1.611.704 2.048.405.437.928.656 1.568.656.405 0 .778-.059 1.12-.176a4.523 4.523 0 0 0 1.072-.56l.64.88c-.896.704-1.878 1.056-2.944 1.056-1.174 0-2.091-.384-2.752-1.152-.651-.768-.976-1.824-.976-3.168 0-.875.138-1.648.416-2.32.288-.683.693-1.216 1.216-1.6.533-.384 1.157-.576 1.872-.576 1.12 0 1.978.368 2.576 1.104.597.736.896 1.755.896 3.056Zm-1.456-.432c0-.832-.166-1.467-.496-1.904-.331-.437-.827-.656-1.488-.656-1.206 0-1.862.885-1.968 2.656h3.952v-.096Zm9.993-7.92v14.384h-.352v-14.384h.352ZM582.144 375h-1.472l-.384-4.976c-.16-1.952-.251-3.451-.272-4.496l-2.384 8.224h-1.424l-2.512-8.24c0 1.333-.07 2.875-.208 4.624L573.12 375h-1.44l.912-11.024h2.048l2.32 8.016 2.208-8.016h2.064l.912 11.024Zm8.197-1.968c0 .341.058.597.176.768.117.16.293.283.528.368l-.336 1.024c-.438-.053-.79-.176-1.056-.368-.267-.192-.464-.491-.592-.896-.566.843-1.403 1.264-2.512 1.264-.832 0-1.488-.235-1.968-.704s-.72-1.083-.72-1.84c0-.896.32-1.584.96-2.064.65-.48 1.568-.72 2.752-.72h1.296v-.624c0-.597-.144-1.024-.432-1.28-.288-.256-.731-.384-1.328-.384-.619 0-1.376.149-2.272.448l-.368-1.072c1.045-.384 2.016-.576 2.912-.576.992 0 1.733.245 2.224.736.49.48.736 1.168.736 2.064v3.856Zm-3.456 1.056c.842 0 1.504-.437 1.984-1.312v-1.936h-1.104c-1.558 0-2.336.576-2.336 1.728 0 .501.122.88.368 1.136.245.256.608.384 1.088.384Zm8.003 1.104c-.544 0-.976-.16-1.296-.48-.31-.331-.464-.789-.464-1.376v-10.16L594.6 363v10.304c0 .235.037.405.112.512.085.107.224.16.416.16.202 0 .384-.032.544-.096l.384 1.024a2.4 2.4 0 0 1-1.168.288Zm4.479-8.624V375h-1.472v-8.432h1.472Zm-.752-4.048c.309 0 .56.096.752.288a.977.977 0 0 1 .288.72.977.977 0 0 1-.288.72c-.192.181-.443.272-.752.272-.299 0-.544-.091-.736-.272a.977.977 0 0 1-.288-.72c0-.288.096-.528.288-.72a.996.996 0 0 1 .736-.288Zm7.652 3.856c.96 0 1.722.389 2.288 1.168.565.768.848 1.845.848 3.232 0 .875-.134 1.648-.4 2.32-.267.661-.651 1.179-1.152 1.552-.502.363-1.088.544-1.76.544-.886 0-1.632-.373-2.24-1.12l-.144.928h-1.296v-11.824l1.472-.176v4.624c.608-.832 1.402-1.248 2.384-1.248Zm-.528 7.648c.65 0 1.157-.261 1.52-.784.373-.533.56-1.355.56-2.464 0-1.141-.171-1.963-.512-2.464-.342-.512-.827-.768-1.456-.768-.747 0-1.403.437-1.968 1.312v4.032c.224.352.496.629.816.832.33.203.677.304 1.04.304Zm12.444.976h-1.264l-.112-1.312c-.32.523-.688.907-1.104 1.152-.416.235-.923.352-1.52.352-.736 0-1.312-.224-1.728-.672-.416-.448-.624-1.083-.624-1.904v-6.048h1.472v5.888c0 .576.101.987.304 1.232.202.235.533.352.992.352.821 0 1.525-.485 2.112-1.456v-6.016h1.472V375Zm3.424-2.032c.32 0 .587.107.8.32.213.213.32.475.32.784 0 .331-.096.709-.288 1.136l-1.072 2.448h-1.056l.64-2.656a1.22 1.22 0 0 1-.336-.4 1.228 1.228 0 0 1-.112-.528c0-.309.107-.571.32-.784.213-.213.475-.32.784-.32Zm11.63-9.184c.662 0 1.216.085 1.664.256.459.171.923.448 1.392.832l-.832.976c-.672-.544-1.381-.816-2.128-.816-.917 0-1.658.352-2.224 1.056-.554.704-.832 1.835-.832 3.392 0 1.515.278 2.635.832 3.36.555.715 1.291 1.072 2.208 1.072.47 0 .88-.08 1.232-.24.352-.16.726-.384 1.12-.672l.752.96c-.341.352-.778.645-1.312.88-.533.235-1.146.352-1.84.352-.896 0-1.696-.219-2.4-.656-.693-.448-1.237-1.099-1.632-1.952-.384-.864-.576-1.899-.576-3.104s.203-2.235.608-3.088c.406-.864.955-1.515 1.648-1.952a4.264 4.264 0 0 1 2.32-.656ZM644.206 375l-.832-2.768h-4.176l-.832 2.768h-1.536l3.536-11.024h1.92l3.52 11.024h-1.6Zm-4.64-4h3.44l-1.712-5.76-1.728 5.76ZM545.021 456.976l-.176 1.216h-4.272v3.6h3.712v1.216h-3.712v3.776h4.576V468h-6.096v-11.024h5.968Zm8.007 9.056c0 .341.059.597.176.768.117.16.293.283.528.368l-.336 1.024c-.437-.053-.789-.176-1.056-.368s-.464-.491-.592-.896c-.565.843-1.403 1.264-2.512 1.264-.832 0-1.488-.235-1.968-.704s-.72-1.083-.72-1.84c0-.896.32-1.584.96-2.064.651-.48 1.568-.72 2.752-.72h1.296v-.624c0-.597-.144-1.024-.432-1.28-.288-.256-.731-.384-1.328-.384-.619 0-1.376.149-2.272.448l-.368-1.072c1.045-.384 2.016-.576 2.912-.576.992 0 1.733.245 2.224.736.491.48.736 1.168.736 2.064v3.856Zm-3.456 1.056c.843 0 1.504-.437 1.984-1.312v-1.936h-1.104c-1.557 0-2.336.576-2.336 1.728 0 .501.123.88.368 1.136.245.256.608.384 1.088.384Zm8.611-7.712c.576 0 1.093.08 1.552.24.459.16.896.4 1.312.72l-.624.928a5.02 5.02 0 0 0-1.104-.544 3.331 3.331 0 0 0-1.088-.176c-.48 0-.859.101-1.136.304a.92.92 0 0 0-.416.8c0 .341.128.608.384.8.267.192.741.379 1.424.56.939.235 1.637.555 2.096.96.469.405.704.96.704 1.664 0 .832-.325 1.467-.976 1.904-.64.437-1.424.656-2.352.656-1.28 0-2.341-.368-3.184-1.104l.784-.896c.715.544 1.504.816 2.368.816.555 0 .992-.112 1.312-.336a1.1 1.1 0 0 0 .496-.944c0-.288-.059-.517-.176-.688-.117-.181-.32-.336-.608-.464-.288-.139-.709-.283-1.264-.432-.896-.235-1.547-.549-1.952-.944-.395-.395-.592-.896-.592-1.504 0-.437.128-.832.384-1.184.267-.363.629-.64 1.088-.832a3.909 3.909 0 0 1 1.568-.304Zm9.437 8.24a3.238 3.238 0 0 1-1.888.576c-.715 0-1.275-.203-1.68-.608-.395-.416-.592-1.013-.592-1.792v-5.088h-1.472v-1.136h1.472v-1.904l1.472-.176v2.08h2l-.16 1.136h-1.84v5.024c0 .437.074.757.224.96.16.192.421.288.784.288.33 0 .704-.112 1.12-.336l.56.976Zm8.559-10.832c.736 0 1.366.107 1.888.32.523.203 1.03.523 1.52.96l-.832.928a4.48 4.48 0 0 0-1.232-.72 3.37 3.37 0 0 0-1.28-.24c-.576 0-1.05.133-1.424.4-.373.267-.56.656-.56 1.168 0 .32.064.592.192.816.128.213.363.411.704.592.352.181.859.373 1.52.576.694.213 1.27.443 1.728.688.459.245.827.587 1.104 1.024.288.427.432.971.432 1.632 0 .64-.16 1.205-.48 1.696-.309.491-.762.875-1.36 1.152-.586.277-1.285.416-2.096.416-1.525 0-2.773-.475-3.744-1.424l.832-.928c.448.363.902.64 1.36.832.459.181.971.272 1.536.272.683 0 1.248-.165 1.696-.496.448-.341.672-.832.672-1.472 0-.363-.069-.661-.208-.896-.138-.245-.378-.464-.72-.656-.33-.192-.816-.384-1.456-.576-1.13-.341-1.957-.752-2.48-1.232-.522-.48-.784-1.131-.784-1.952 0-.555.144-1.051.432-1.488a3 3 0 0 1 1.232-1.024c.534-.245 1.136-.368 1.808-.368Zm9.887 2.592c.768 0 1.365.229 1.792.688.437.459.656 1.088.656 1.888V468h-1.472v-5.84c0-.597-.117-1.019-.352-1.264-.224-.245-.555-.368-.992-.368-.437 0-.827.128-1.168.384-.341.256-.661.619-.96 1.088v6h-1.472v-11.808l1.472-.16v4.704c.661-.907 1.493-1.36 2.496-1.36Zm8.575 0c1.184 0 2.101.395 2.752 1.184.661.789.992 1.861.992 3.216 0 .875-.149 1.648-.448 2.32-.299.661-.731 1.179-1.296 1.552-.565.363-1.237.544-2.016.544-1.184 0-2.107-.395-2.768-1.184-.661-.789-.992-1.861-.992-3.216 0-.875.149-1.643.448-2.304.299-.672.731-1.189 1.296-1.552.565-.373 1.243-.56 2.032-.56Zm0 1.184c-1.461 0-2.192 1.077-2.192 3.232 0 2.144.725 3.216 2.176 3.216s2.176-1.077 2.176-3.232c0-2.144-.72-3.216-2.16-3.216Zm9.84-1.184c.299 0 .576.032.832.096l-.272 1.44a3.032 3.032 0 0 0-.736-.096c-.523 0-.944.192-1.264.576-.32.384-.571.981-.752 1.792V468h-1.472v-8.432h1.264l.144 1.712c.224-.629.528-1.104.912-1.424.384-.32.832-.48 1.344-.48Zm8.391 4.16c0 .245-.01.496-.032.752h-5.376c.064.928.299 1.611.704 2.048.406.437.928.656 1.568.656a3.43 3.43 0 0 0 1.12-.176 4.486 4.486 0 0 0 1.072-.56l.64.88c-.896.704-1.877 1.056-2.944 1.056-1.173 0-2.09-.384-2.752-1.152-.65-.768-.976-1.824-.976-3.168 0-.875.139-1.648.416-2.32.288-.683.694-1.216 1.216-1.6.534-.384 1.158-.576 1.872-.576 1.12 0 1.979.368 2.576 1.104.598.736.896 1.755.896 3.056Zm-1.456-.432c0-.832-.165-1.467-.496-1.904-.33-.437-.826-.656-1.488-.656-1.205 0-1.861.885-1.968 2.656h3.952v-.096Zm9.994-7.92v14.384h-.352v-14.384h.352ZM640.237 468h-1.472l-.384-4.976c-.16-1.952-.25-3.451-.272-4.496l-2.384 8.224h-1.424l-2.512-8.24c0 1.333-.069 2.875-.208 4.624l-.368 4.864h-1.44l.912-11.024h2.048l2.32 8.016 2.208-8.016h2.064l.912 11.024Zm8.197-1.968c0 .341.059.597.176.768a1.1 1.1 0 0 0 .528.368l-.336 1.024c-.437-.053-.789-.176-1.056-.368-.266-.192-.464-.491-.592-.896-.565.843-1.402 1.264-2.512 1.264-.832 0-1.488-.235-1.968-.704s-.72-1.083-.72-1.84c0-.896.32-1.584.96-2.064.651-.48 1.568-.72 2.752-.72h1.296v-.624c0-.597-.144-1.024-.432-1.28-.288-.256-.73-.384-1.328-.384-.618 0-1.376.149-2.272.448l-.368-1.072c1.046-.384 2.016-.576 2.912-.576.992 0 1.734.245 2.224.736.491.48.736 1.168.736 2.064v3.856Zm-3.456 1.056c.843 0 1.504-.437 1.984-1.312v-1.936h-1.104c-1.557 0-2.336.576-2.336 1.728 0 .501.123.88.368 1.136.246.256.608.384 1.088.384Zm8.003 1.104c-.544 0-.976-.16-1.296-.48-.309-.331-.464-.789-.464-1.376v-10.16l1.472-.176v10.304c0 .235.038.405.112.512.086.107.224.16.416.16.203 0 .384-.032.544-.096l.384 1.024a2.398 2.398 0 0 1-1.168.288Zm4.48-8.624V468h-1.472v-8.432h1.472Zm-.752-4.048c.309 0 .56.096.752.288a.977.977 0 0 1 .288.72.977.977 0 0 1-.288.72c-.192.181-.443.272-.752.272-.299 0-.544-.091-.736-.272a.977.977 0 0 1-.288-.72c0-.288.096-.528.288-.72a.996.996 0 0 1 .736-.288Zm7.651 3.856c.96 0 1.723.389 2.288 1.168.566.768.848 1.845.848 3.232 0 .875-.133 1.648-.4 2.32-.266.661-.65 1.179-1.152 1.552-.501.363-1.088.544-1.76.544-.885 0-1.632-.373-2.24-1.12l-.144.928h-1.296v-11.824l1.472-.176v4.624c.608-.832 1.403-1.248 2.384-1.248Zm-.528 7.648c.651 0 1.158-.261 1.52-.784.374-.533.56-1.355.56-2.464 0-1.141-.17-1.963-.512-2.464-.341-.512-.826-.768-1.456-.768-.746 0-1.402.437-1.968 1.312v4.032c.224.352.496.629.816.832a1.96 1.96 0 0 0 1.04.304Zm12.444.976h-1.264l-.112-1.312c-.32.523-.688.907-1.104 1.152-.416.235-.922.352-1.52.352-.736 0-1.312-.224-1.728-.672-.416-.448-.624-1.083-.624-1.904v-6.048h1.472v5.888c0 .576.102.987.304 1.232.203.235.534.352.992.352.822 0 1.526-.485 2.112-1.456v-6.016h1.472V468Zm3.425-2.032c.32 0 .587.107.8.32.213.213.32.475.32.784 0 .331-.096.709-.288 1.136l-1.072 2.448h-1.056l.64-2.656a1.22 1.22 0 0 1-.336-.4 1.228 1.228 0 0 1-.112-.528c0-.309.107-.571.32-.784.213-.213.475-.32.784-.32Zm11.63-9.184c.661 0 1.216.085 1.664.256.459.171.923.448 1.392.832l-.832.976c-.672-.544-1.381-.816-2.128-.816-.917 0-1.659.352-2.224 1.056-.555.704-.832 1.835-.832 3.392 0 1.515.277 2.635.832 3.36.555.715 1.291 1.072 2.208 1.072.469 0 .88-.08 1.232-.24.352-.16.725-.384 1.12-.672l.752.96c-.341.352-.779.645-1.312.88s-1.147.352-1.84.352c-.896 0-1.696-.219-2.4-.656-.693-.448-1.237-1.099-1.632-1.952-.384-.864-.576-1.899-.576-3.104s.203-2.235.608-3.088c.405-.864.955-1.515 1.648-1.952a4.262 4.262 0 0 1 2.32-.656ZM702.3 468l-.832-2.768h-4.176L696.46 468h-1.536l3.536-11.024h1.92L703.9 468h-1.6Zm-4.64-4h3.44l-1.712-5.76-1.728 5.76ZM194.359 248h-2.032l-4.48-9.36c.064.736.112 1.419.144 2.048.043.619.064 1.371.064 2.256V248h-1.424v-11.024h1.984l4.528 9.376a46.823 46.823 0 0 1-.128-1.456 25.151 25.151 0 0 1-.08-1.904v-6.016h1.424V248Zm6.282-8.624c1.184 0 2.101.395 2.752 1.184.661.789.992 1.861.992 3.216 0 .875-.149 1.648-.448 2.32-.299.661-.731 1.179-1.296 1.552-.565.363-1.237.544-2.016.544-1.184 0-2.107-.395-2.768-1.184-.661-.789-.992-1.861-.992-3.216 0-.875.149-1.643.448-2.304.299-.672.731-1.189 1.296-1.552.565-.373 1.243-.56 2.032-.56Zm0 1.184c-1.461 0-2.192 1.077-2.192 3.232 0 2.144.725 3.216 2.176 3.216s2.176-1.077 2.176-3.232c0-2.144-.72-3.216-2.16-3.216Zm9.84-1.184c.299 0 .576.032.832.096l-.272 1.44a3.032 3.032 0 0 0-.736-.096c-.523 0-.944.192-1.264.576-.32.384-.571.981-.752 1.792V248h-1.472v-8.432h1.264l.144 1.712c.224-.629.528-1.104.912-1.424.384-.32.832-.48 1.344-.48Zm6.764 8.24a3.238 3.238 0 0 1-1.888.576c-.715 0-1.275-.203-1.68-.608-.395-.416-.592-1.013-.592-1.792v-5.088h-1.472v-1.136h1.472v-1.904l1.472-.176v2.08h2l-.16 1.136h-1.84v5.024c0 .437.074.757.224.96.16.192.421.288.784.288.33 0 .704-.112 1.12-.336l.56.976Zm5.493-8.24c.768 0 1.365.229 1.792.688.437.459.656 1.088.656 1.888V248h-1.472v-5.84c0-.597-.117-1.019-.352-1.264-.224-.245-.555-.368-.992-.368-.437 0-.827.128-1.168.384-.341.256-.661.619-.96 1.088v6h-1.472v-11.808l1.472-.16v4.704c.661-.907 1.493-1.36 2.496-1.36Zm12.441-2.592c.736 0 1.366.107 1.888.32.523.203 1.03.523 1.52.96l-.832.928a4.48 4.48 0 0 0-1.232-.72 3.37 3.37 0 0 0-1.28-.24c-.576 0-1.05.133-1.424.4-.373.267-.56.656-.56 1.168 0 .32.064.592.192.816.128.213.363.411.704.592.352.181.859.373 1.52.576.694.213 1.27.443 1.728.688.459.245.827.587 1.104 1.024.288.427.432.971.432 1.632 0 .64-.16 1.205-.48 1.696-.309.491-.762.875-1.36 1.152-.586.277-1.285.416-2.096.416-1.525 0-2.773-.475-3.744-1.424l.832-.928c.448.363.902.64 1.36.832.459.181.971.272 1.536.272.683 0 1.248-.165 1.696-.496.448-.341.672-.832.672-1.472 0-.363-.069-.661-.208-.896-.138-.245-.378-.464-.72-.656-.33-.192-.816-.384-1.456-.576-1.13-.341-1.957-.752-2.48-1.232-.522-.48-.784-1.131-.784-1.952 0-.555.144-1.051.432-1.488a3 3 0 0 1 1.232-1.024c.534-.245 1.136-.368 1.808-.368Zm9.887 2.592c.768 0 1.365.229 1.792.688.437.459.656 1.088.656 1.888V248h-1.472v-5.84c0-.597-.117-1.019-.352-1.264-.224-.245-.555-.368-.992-.368-.437 0-.827.128-1.168.384-.341.256-.661.619-.96 1.088v6h-1.472v-11.808l1.472-.16v4.704c.661-.907 1.493-1.36 2.496-1.36Zm8.575 0c1.184 0 2.101.395 2.752 1.184.661.789.992 1.861.992 3.216 0 .875-.149 1.648-.448 2.32-.299.661-.731 1.179-1.296 1.552-.565.363-1.237.544-2.016.544-1.184 0-2.107-.395-2.768-1.184-.661-.789-.992-1.861-.992-3.216 0-.875.149-1.643.448-2.304.299-.672.731-1.189 1.296-1.552.565-.373 1.243-.56 2.032-.56Zm0 1.184c-1.461 0-2.192 1.077-2.192 3.232 0 2.144.725 3.216 2.176 3.216s2.176-1.077 2.176-3.232c0-2.144-.72-3.216-2.16-3.216Zm9.84-1.184c.299 0 .576.032.832.096l-.272 1.44a3.032 3.032 0 0 0-.736-.096c-.523 0-.944.192-1.264.576-.32.384-.571.981-.752 1.792V248h-1.472v-8.432h1.264l.144 1.712c.224-.629.528-1.104.912-1.424.384-.32.832-.48 1.344-.48Zm8.391 4.16c0 .245-.01.496-.032.752h-5.376c.064.928.299 1.611.704 2.048.406.437.928.656 1.568.656a3.43 3.43 0 0 0 1.12-.176 4.486 4.486 0 0 0 1.072-.56l.64.88c-.896.704-1.877 1.056-2.944 1.056-1.173 0-2.09-.384-2.752-1.152-.65-.768-.976-1.824-.976-3.168 0-.875.139-1.648.416-2.32.288-.683.694-1.216 1.216-1.6.534-.384 1.158-.576 1.872-.576 1.12 0 1.979.368 2.576 1.104.598.736.896 1.755.896 3.056Zm-1.456-.432c0-.832-.165-1.467-.496-1.904-.33-.437-.826-.656-1.488-.656-1.205 0-1.861.885-1.968 2.656h3.952v-.096Zm9.994-7.92v14.384h-.352v-14.384h.352ZM299.237 248h-1.472l-.384-4.976c-.16-1.952-.25-3.451-.272-4.496l-2.384 8.224h-1.424l-2.512-8.24c0 1.333-.069 2.875-.208 4.624l-.368 4.864h-1.44l.912-11.024h2.048l2.32 8.016 2.208-8.016h2.064l.912 11.024Zm8.197-1.968c0 .341.059.597.176.768a1.1 1.1 0 0 0 .528.368l-.336 1.024c-.437-.053-.789-.176-1.056-.368-.266-.192-.464-.491-.592-.896-.565.843-1.402 1.264-2.512 1.264-.832 0-1.488-.235-1.968-.704s-.72-1.083-.72-1.84c0-.896.32-1.584.96-2.064.651-.48 1.568-.72 2.752-.72h1.296v-.624c0-.597-.144-1.024-.432-1.28-.288-.256-.73-.384-1.328-.384-.618 0-1.376.149-2.272.448l-.368-1.072c1.046-.384 2.016-.576 2.912-.576.992 0 1.734.245 2.224.736.491.48.736 1.168.736 2.064v3.856Zm-3.456 1.056c.843 0 1.504-.437 1.984-1.312v-1.936h-1.104c-1.557 0-2.336.576-2.336 1.728 0 .501.123.88.368 1.136.246.256.608.384 1.088.384Zm8.003 1.104c-.544 0-.976-.16-1.296-.48-.309-.331-.464-.789-.464-1.376v-10.16l1.472-.176v10.304c0 .235.038.405.112.512.086.107.224.16.416.16.203 0 .384-.032.544-.096l.384 1.024a2.398 2.398 0 0 1-1.168.288Zm4.48-8.624V248h-1.472v-8.432h1.472Zm-.752-4.048c.309 0 .56.096.752.288a.977.977 0 0 1 .288.72.977.977 0 0 1-.288.72c-.192.181-.443.272-.752.272-.299 0-.544-.091-.736-.272a.977.977 0 0 1-.288-.72c0-.288.096-.528.288-.72a.996.996 0 0 1 .736-.288Zm7.651 3.856c.96 0 1.723.389 2.288 1.168.566.768.848 1.845.848 3.232 0 .875-.133 1.648-.4 2.32-.266.661-.65 1.179-1.152 1.552-.501.363-1.088.544-1.76.544-.885 0-1.632-.373-2.24-1.12l-.144.928h-1.296v-11.824l1.472-.176v4.624c.608-.832 1.403-1.248 2.384-1.248Zm-.528 7.648c.651 0 1.158-.261 1.52-.784.374-.533.56-1.355.56-2.464 0-1.141-.17-1.963-.512-2.464-.341-.512-.826-.768-1.456-.768-.746 0-1.402.437-1.968 1.312v4.032c.224.352.496.629.816.832a1.96 1.96 0 0 0 1.04.304Zm12.444.976h-1.264l-.112-1.312c-.32.523-.688.907-1.104 1.152-.416.235-.922.352-1.52.352-.736 0-1.312-.224-1.728-.672-.416-.448-.624-1.083-.624-1.904v-6.048h1.472v5.888c0 .576.102.987.304 1.232.203.235.534.352.992.352.822 0 1.526-.485 2.112-1.456v-6.016h1.472V248Zm3.425-2.032c.32 0 .587.107.8.32.213.213.32.475.32.784 0 .331-.096.709-.288 1.136l-1.072 2.448h-1.056l.64-2.656a1.22 1.22 0 0 1-.336-.4 1.228 1.228 0 0 1-.112-.528c0-.309.107-.571.32-.784.213-.213.475-.32.784-.32Zm11.63-9.184c.661 0 1.216.085 1.664.256.459.171.923.448 1.392.832l-.832.976c-.672-.544-1.381-.816-2.128-.816-.917 0-1.659.352-2.224 1.056-.555.704-.832 1.835-.832 3.392 0 1.515.277 2.635.832 3.36.555.715 1.291 1.072 2.208 1.072.469 0 .88-.08 1.232-.24.352-.16.725-.384 1.12-.672l.752.96c-.341.352-.779.645-1.312.88s-1.147.352-1.84.352c-.896 0-1.696-.219-2.4-.656-.693-.448-1.237-1.099-1.632-1.952-.384-.864-.576-1.899-.576-3.104s.203-2.235.608-3.088c.405-.864.955-1.515 1.648-1.952a4.262 4.262 0 0 1 2.32-.656ZM361.3 248l-.832-2.768h-4.176L355.46 248h-1.536l3.536-11.024h1.92L362.9 248h-1.6Zm-4.64-4h3.44l-1.712-5.76-1.728 5.76ZM398.41 310.976 396.17 322h-1.952l-2.032-9.232-2.048 9.232h-1.904l-2.24-11.024h1.488l1.776 9.696 2.128-9.696h1.616l2.176 9.696 1.84-9.696h1.392Zm8.134 6.56c0 .245-.01.496-.032.752h-5.376c.064.928.299 1.611.704 2.048.406.437.928.656 1.568.656a3.43 3.43 0 0 0 1.12-.176 4.486 4.486 0 0 0 1.072-.56l.64.88c-.896.704-1.877 1.056-2.944 1.056-1.173 0-2.09-.384-2.752-1.152-.65-.768-.976-1.824-.976-3.168 0-.875.139-1.648.416-2.32.288-.683.694-1.216 1.216-1.6.534-.384 1.158-.576 1.872-.576 1.12 0 1.979.368 2.576 1.104.598.736.896 1.755.896 3.056Zm-1.456-.432c0-.832-.165-1.467-.496-1.904-.33-.437-.826-.656-1.488-.656-1.205 0-1.861.885-1.968 2.656h3.952v-.096Zm6.095-3.728c.576 0 1.093.08 1.552.24.459.16.896.4 1.312.72l-.624.928a5.02 5.02 0 0 0-1.104-.544 3.331 3.331 0 0 0-1.088-.176c-.48 0-.859.101-1.136.304a.92.92 0 0 0-.416.8c0 .341.128.608.384.8.267.192.741.379 1.424.56.939.235 1.637.555 2.096.96.469.405.704.96.704 1.664 0 .832-.325 1.467-.976 1.904-.64.437-1.424.656-2.352.656-1.28 0-2.341-.368-3.184-1.104l.784-.896c.715.544 1.504.816 2.368.816.555 0 .992-.112 1.312-.336a1.1 1.1 0 0 0 .496-.944c0-.288-.059-.517-.176-.688-.117-.181-.32-.336-.608-.464-.288-.139-.709-.283-1.264-.432-.896-.235-1.547-.549-1.952-.944-.395-.395-.592-.896-.592-1.504 0-.437.128-.832.384-1.184.267-.363.629-.64 1.088-.832a3.909 3.909 0 0 1 1.568-.304Zm9.437 8.24a3.238 3.238 0 0 1-1.888.576c-.715 0-1.275-.203-1.68-.608-.395-.416-.592-1.013-.592-1.792v-5.088h-1.472v-1.136h1.472v-1.904l1.472-.176v2.08h2l-.16 1.136h-1.84v5.024c0 .437.074.757.224.96.16.192.421.288.784.288.33 0 .704-.112 1.12-.336l.56.976Zm8.559-10.832c.736 0 1.366.107 1.888.32.523.203 1.03.523 1.52.96l-.832.928a4.48 4.48 0 0 0-1.232-.72 3.37 3.37 0 0 0-1.28-.24c-.576 0-1.05.133-1.424.4-.373.267-.56.656-.56 1.168 0 .32.064.592.192.816.128.213.363.411.704.592.352.181.859.373 1.52.576.694.213 1.27.443 1.728.688.459.245.827.587 1.104 1.024.288.427.432.971.432 1.632 0 .64-.16 1.205-.48 1.696-.309.491-.762.875-1.36 1.152-.586.277-1.285.416-2.096.416-1.525 0-2.773-.475-3.744-1.424l.832-.928c.448.363.902.64 1.36.832.459.181.971.272 1.536.272.683 0 1.248-.165 1.696-.496.448-.341.672-.832.672-1.472 0-.363-.069-.661-.208-.896-.138-.245-.378-.464-.72-.656-.33-.192-.816-.384-1.456-.576-1.13-.341-1.957-.752-2.48-1.232-.522-.48-.784-1.131-.784-1.952 0-.555.144-1.051.432-1.488a3 3 0 0 1 1.232-1.024c.534-.245 1.136-.368 1.808-.368Zm9.887 2.592c.768 0 1.365.229 1.792.688.437.459.656 1.088.656 1.888V322h-1.472v-5.84c0-.597-.117-1.019-.352-1.264-.224-.245-.555-.368-.992-.368-.437 0-.827.128-1.168.384-.341.256-.661.619-.96 1.088v6h-1.472v-11.808l1.472-.16v4.704c.661-.907 1.493-1.36 2.496-1.36Zm8.575 0c1.184 0 2.101.395 2.752 1.184.661.789.992 1.861.992 3.216 0 .875-.149 1.648-.448 2.32-.299.661-.731 1.179-1.296 1.552-.565.363-1.237.544-2.016.544-1.184 0-2.107-.395-2.768-1.184-.661-.789-.992-1.861-.992-3.216 0-.875.149-1.643.448-2.304.299-.672.731-1.189 1.296-1.552.565-.373 1.243-.56 2.032-.56Zm0 1.184c-1.461 0-2.192 1.077-2.192 3.232 0 2.144.725 3.216 2.176 3.216s2.176-1.077 2.176-3.232c0-2.144-.72-3.216-2.16-3.216Zm9.84-1.184c.299 0 .576.032.832.096l-.272 1.44a3.032 3.032 0 0 0-.736-.096c-.523 0-.944.192-1.264.576-.32.384-.571.981-.752 1.792V322h-1.472v-8.432h1.264l.144 1.712c.224-.629.528-1.104.912-1.424.384-.32.832-.48 1.344-.48Zm8.391 4.16c0 .245-.01.496-.032.752h-5.376c.064.928.299 1.611.704 2.048.406.437.928.656 1.568.656a3.43 3.43 0 0 0 1.12-.176 4.486 4.486 0 0 0 1.072-.56l.64.88c-.896.704-1.877 1.056-2.944 1.056-1.173 0-2.09-.384-2.752-1.152-.65-.768-.976-1.824-.976-3.168 0-.875.139-1.648.416-2.32.288-.683.694-1.216 1.216-1.6.534-.384 1.158-.576 1.872-.576 1.12 0 1.979.368 2.576 1.104.598.736.896 1.755.896 3.056Zm-1.456-.432c0-.832-.165-1.467-.496-1.904-.33-.437-.826-.656-1.488-.656-1.205 0-1.861.885-1.968 2.656h3.952v-.096Zm9.994-7.92v14.384h-.352v-14.384h.352ZM493.237 322h-1.472l-.384-4.976c-.16-1.952-.25-3.451-.272-4.496l-2.384 8.224h-1.424l-2.512-8.24c0 1.333-.069 2.875-.208 4.624l-.368 4.864h-1.44l.912-11.024h2.048l2.32 8.016 2.208-8.016h2.064l.912 11.024Zm8.197-1.968c0 .341.059.597.176.768a1.1 1.1 0 0 0 .528.368l-.336 1.024c-.437-.053-.789-.176-1.056-.368-.266-.192-.464-.491-.592-.896-.565.843-1.402 1.264-2.512 1.264-.832 0-1.488-.235-1.968-.704s-.72-1.083-.72-1.84c0-.896.32-1.584.96-2.064.651-.48 1.568-.72 2.752-.72h1.296v-.624c0-.597-.144-1.024-.432-1.28-.288-.256-.73-.384-1.328-.384-.618 0-1.376.149-2.272.448l-.368-1.072c1.046-.384 2.016-.576 2.912-.576.992 0 1.734.245 2.224.736.491.48.736 1.168.736 2.064v3.856Zm-3.456 1.056c.843 0 1.504-.437 1.984-1.312v-1.936h-1.104c-1.557 0-2.336.576-2.336 1.728 0 .501.123.88.368 1.136.246.256.608.384 1.088.384Zm8.003 1.104c-.544 0-.976-.16-1.296-.48-.309-.331-.464-.789-.464-1.376v-10.16l1.472-.176v10.304c0 .235.038.405.112.512.086.107.224.16.416.16.203 0 .384-.032.544-.096l.384 1.024a2.398 2.398 0 0 1-1.168.288Zm4.48-8.624V322h-1.472v-8.432h1.472Zm-.752-4.048c.309 0 .56.096.752.288a.977.977 0 0 1 .288.72.977.977 0 0 1-.288.72c-.192.181-.443.272-.752.272-.299 0-.544-.091-.736-.272a.977.977 0 0 1-.288-.72c0-.288.096-.528.288-.72a.996.996 0 0 1 .736-.288Zm7.651 3.856c.96 0 1.723.389 2.288 1.168.566.768.848 1.845.848 3.232 0 .875-.133 1.648-.4 2.32-.266.661-.65 1.179-1.152 1.552-.501.363-1.088.544-1.76.544-.885 0-1.632-.373-2.24-1.12l-.144.928h-1.296v-11.824l1.472-.176v4.624c.608-.832 1.403-1.248 2.384-1.248Zm-.528 7.648c.651 0 1.158-.261 1.52-.784.374-.533.56-1.355.56-2.464 0-1.141-.17-1.963-.512-2.464-.341-.512-.826-.768-1.456-.768-.746 0-1.402.437-1.968 1.312v4.032c.224.352.496.629.816.832a1.96 1.96 0 0 0 1.04.304Zm12.444.976h-1.264l-.112-1.312c-.32.523-.688.907-1.104 1.152-.416.235-.922.352-1.52.352-.736 0-1.312-.224-1.728-.672-.416-.448-.624-1.083-.624-1.904v-6.048h1.472v5.888c0 .576.102.987.304 1.232.203.235.534.352.992.352.822 0 1.526-.485 2.112-1.456v-6.016h1.472V322Zm3.425-2.032c.32 0 .587.107.8.32.213.213.32.475.32.784 0 .331-.096.709-.288 1.136l-1.072 2.448h-1.056l.64-2.656a1.22 1.22 0 0 1-.336-.4 1.228 1.228 0 0 1-.112-.528c0-.309.107-.571.32-.784.213-.213.475-.32.784-.32Zm11.63-9.184c.661 0 1.216.085 1.664.256.459.171.923.448 1.392.832l-.832.976c-.672-.544-1.381-.816-2.128-.816-.917 0-1.659.352-2.224 1.056-.555.704-.832 1.835-.832 3.392 0 1.515.277 2.635.832 3.36.555.715 1.291 1.072 2.208 1.072.469 0 .88-.08 1.232-.24.352-.16.725-.384 1.12-.672l.752.96c-.341.352-.779.645-1.312.88s-1.147.352-1.84.352c-.896 0-1.696-.219-2.4-.656-.693-.448-1.237-1.099-1.632-1.952-.384-.864-.576-1.899-.576-3.104s.203-2.235.608-3.088c.405-.864.955-1.515 1.648-1.952a4.262 4.262 0 0 1 2.32-.656ZM555.3 322l-.832-2.768h-4.176L549.46 322h-1.536l3.536-11.024h1.92L556.9 322h-1.6Zm-4.64-4h3.44l-1.712-5.76-1.728 5.76Z"/><path stroke="#fff" stroke-linecap="round" stroke-width="2" d="M724.5 464c.549-8.787 8.347-14.345 10.233-22.903 1.615-7.324.721-21.677 9.368-24.765 15.403-5.501 32.912-3.005 48.129-8.686 6.874-2.566 13.041-8.754 18.128-13.767 10.809-10.65-101.183-14.971-96.029-29.379 20.138-56.289 109.171-26 30.114-85.689-7.755-4.622-15.107-9.954-22.68-14.867-7.082-4.595-14.17-9.449-19.532-16.081-8.6-10.636-10.038-24.136-10.733-37.244-.221-4.155-1.172-9.561.341-13.615 3.193-8.559 14.903-14.488 22.49-18.091 20.726-9.842 44.69-8.509 65.916-16.536 12.799-4.84 14.605-14.82 12.819-27.383-1.926-13.545-10.917-22.507-21.314-30.416-4.863-3.699-11.591-6.821-17.143-9.33-4.869-2.2-8.753 5.252-14.107 5.252-4.494 0-10-5-13.5-8.5M727 92c-29.244 53.97-29.857 30.83-60.506 30.419-9.909-.132-13.592 6.427-15.126 20.607-6.812 18.077-69.919 11.141-85.673 11.141-15.286 0-31.067 1.077-46.302-.321-14.445-1.326-27.953-4.009-42.677-4.009-9.688 0-37.683-2.203-38.393 12.988-.593 12.692 9.991 18.556-3.625 28.861-11.438 8.656-25.341 16.561-38.722 21.806-7.302 2.861-16.607.632-23.234 4.169-3.586 1.913-1.391 3.708-4.742 5.339"/><path fill="#fff" d="m724.593 101.353-.969-.247.969.247Zm-5.861 16.893.941.339-.941-.339Zm-6.691 18.275-.835-.55.835.55ZM694.18 150.29l-.442-.897.442.897Zm-10.174 3.263-.291-.957.291.957Zm-17.474 7.437-.451-.893.451.893Zm-16.976 18.939.938.346-.938-.346Zm-2.516 20.515.989.147-.989-.147Zm-.857 12.829.998-.063-.998.063Zm5.474 15.538.891-.454-.891.454Zm15.594 32.294-.945.327.945-.327Zm4.617 13.879-.921.389.921-.389Zm8.212 19.796-.963.271.963-.271Zm-1.659 38.791.987.159-.987-.159Zm-2.516 10.644.842.539-.842-.539Zm-12.04 14.013a.999.999 0 1 0 1.27 1.544l-1.27-1.544Zm62.706-265.111c-.558.07-.919.442-1.119.71a4.15 4.15 0 0 0-.513.98c-.268.693-.482 1.57-.653 2.418a56.56 56.56 0 0 0-.424 2.452c-.117.755-.191 1.245-.238 1.429l1.938.494c.078-.306.172-.947.276-1.617.111-.712.245-1.552.408-2.363.166-.82.353-1.561.558-2.09.103-.267.192-.428.252-.508.074-.099.006.049-.237.08l-.248-1.985Zm-2.947 7.989c-1.449 5.689-3.795 11.151-5.833 16.801l1.882.678c1.982-5.498 4.409-11.172 5.889-16.985l-1.938-.494Zm-5.833 16.801c-1.069 2.964-1.908 6.322-2.859 9.421-.969 3.155-2.078 6.142-3.726 8.643l1.67 1.101c1.81-2.748 2.986-5.958 3.968-9.158.999-3.257 1.776-6.411 2.829-9.329l-1.882-.678Zm-6.585 18.064c-4.137 6.279-10.646 10.064-17.468 13.422l.884 1.794c6.847-3.371 13.797-7.351 18.254-14.115l-1.67-1.101Zm-17.468 13.422c-1.568.772-3.174 1.303-4.846 1.777-1.627.461-3.44.898-5.177 1.426l.582 1.913c1.746-.531 3.373-.914 5.14-1.415 1.721-.487 3.46-1.057 5.185-1.907l-.884-1.794Zm-10.023 3.203c-6.079 1.849-12.047 4.683-17.634 7.501l.901 1.786c5.574-2.811 11.411-5.578 17.315-7.374l-.582-1.913Zm-17.634 7.501c-8.513 4.295-14.163 10.52-17.464 19.487l1.877.691c3.122-8.481 8.416-14.32 16.488-18.392l-.901-1.786Zm-17.464 19.487c-1.262 3.429-1.644 6.972-1.845 10.45-.205 3.523-.225 6.91-.721 10.264l1.978.293c.514-3.471.543-7.056.739-10.441.199-3.43.569-6.732 1.726-9.875l-1.877-.691Zm-2.566 20.714c-.634 4.273-1.148 8.604-.866 13.038l1.996-.126c-.268-4.212.218-8.367.848-12.619l-1.978-.293Zm-.866 13.038c.372 5.857 3.093 11.054 5.581 15.93l1.782-.909c-2.531-4.959-5.026-9.778-5.367-15.147l-1.996.126Zm5.581 15.93c5.409 10.597 11.7 21.1 15.54 32.166l1.889-.655c-3.9-11.24-10.324-21.992-15.647-32.42l-1.782.909Zm15.54 32.166c.794 2.289 1.461 4.596 2.183 6.944.717 2.334 1.483 4.688 2.458 6.997l1.842-.778c-.934-2.212-1.675-4.486-2.388-6.807-.709-2.306-1.396-4.678-2.206-7.011l-1.889.655Zm4.641 13.941c2.846 6.739 6.243 12.819 8.17 19.678l1.925-.541c-1.969-7.011-5.521-13.448-8.253-19.915l-1.842.778Zm8.17 19.678c3.499 12.458.378 25.577-1.684 38.361l1.975.318c2.021-12.532 5.285-26.224 1.634-39.22l-1.925.541Zm-1.684 38.361c-.142.88-.25 1.808-.36 2.722a55.843 55.843 0 0 1-.378 2.742c-.311 1.808-.774 3.458-1.633 4.8l1.685 1.078c1.073-1.676 1.592-3.637 1.919-5.54.164-.956.282-1.92.393-2.841.112-.93.215-1.812.349-2.643l-1.975-.318Zm-2.371 10.264c-.964 1.507-1.62 3.217-2.247 4.77-.644 1.595-1.264 3.041-2.162 4.238l1.6 1.2c1.075-1.434 1.779-3.112 2.416-4.689.654-1.618 1.237-3.126 2.078-4.441l-1.685-1.078Zm-4.409 9.008c-.974 1.299-1.42 1.892-1.675 2.184-.127.144-.14.134-.086.102.082-.049.17-.059.064-.039-.659.129-1.61.435-5.091 3.297l1.27 1.544c3.472-2.854 4.083-2.854 4.205-2.878.09-.017.324-.056.577-.207.223-.133.403-.317.564-.501.321-.366.832-1.048 1.772-2.302l-1.6-1.2ZM598.378 75.784c.661 0 1.216.085 1.664.256.459.17.923.448 1.392.832l-.832.976c-.672-.544-1.381-.816-2.128-.816-.917 0-1.659.352-2.224 1.056-.555.704-.832 1.835-.832 3.392 0 1.515.277 2.635.832 3.36.555.715 1.291 1.072 2.208 1.072.469 0 .88-.08 1.232-.24.352-.16.725-.384 1.12-.672l.752.96c-.341.352-.779.645-1.312.88s-1.147.352-1.84.352c-.896 0-1.696-.219-2.4-.656-.693-.448-1.237-1.099-1.632-1.952-.384-.864-.576-1.899-.576-3.104s.203-2.235.608-3.088c.405-.864.955-1.515 1.648-1.952a4.26 4.26 0 0 1 2.32-.656ZM609.401 87h-1.264l-.112-1.312c-.32.523-.688.907-1.104 1.152-.416.235-.922.352-1.52.352-.736 0-1.312-.224-1.728-.672-.416-.448-.624-1.083-.624-1.904v-6.048h1.472v5.888c0 .576.102.987.304 1.232.203.235.534.352.992.352.822 0 1.526-.485 2.112-1.456v-6.016h1.472V87Zm6.705-8.624c.299 0 .576.032.832.096l-.272 1.44a3.032 3.032 0 0 0-.736-.096c-.523 0-.944.192-1.264.576-.32.384-.571.981-.752 1.792V87h-1.472v-8.432h1.264l.144 1.712c.224-.63.528-1.104.912-1.424.384-.32.832-.48 1.344-.48Zm6.172 0c.298 0 .576.032.832.096l-.272 1.44a3.038 3.038 0 0 0-.736-.096c-.523 0-.944.192-1.264.576-.32.384-.571.981-.752 1.792V87h-1.472v-8.432h1.264l.144 1.712c.224-.63.528-1.104.912-1.424.384-.32.832-.48 1.344-.48Zm8.391 4.16c0 .245-.01.496-.032.752h-5.376c.064.928.299 1.61.704 2.048.406.437.928.656 1.568.656.406 0 .779-.059 1.12-.176a4.496 4.496 0 0 0 1.072-.56l.64.88c-.896.704-1.877 1.056-2.944 1.056-1.173 0-2.09-.384-2.752-1.152-.65-.768-.976-1.824-.976-3.168 0-.875.139-1.648.416-2.32.288-.683.694-1.216 1.216-1.6.534-.384 1.158-.576 1.872-.576 1.12 0 1.979.368 2.576 1.104.598.736.896 1.755.896 3.056Zm-1.456-.432c0-.832-.165-1.467-.496-1.904-.33-.437-.826-.656-1.488-.656-1.205 0-1.861.885-1.968 2.656h3.952v-.096Zm7.775-3.728c.768 0 1.365.23 1.792.688.437.459.656 1.088.656 1.888V87h-1.472v-5.84c0-.597-.112-1.019-.336-1.264-.224-.245-.555-.368-.992-.368a1.92 1.92 0 0 0-1.184.384c-.341.256-.661.624-.96 1.104V87h-1.472v-8.432h1.264l.128 1.248c.299-.448.667-.8 1.104-1.056a2.916 2.916 0 0 1 1.472-.384Zm9.663 8.24a3.238 3.238 0 0 1-1.888.576c-.715 0-1.275-.203-1.68-.608-.395-.416-.592-1.013-.592-1.792v-5.088h-1.472v-1.136h1.472v-1.904l1.472-.176v2.08h2l-.16 1.136h-1.84v5.024c0 .437.075.757.224.96.16.192.421.288.784.288.331 0 .704-.112 1.12-.336l.56.976Zm7.36-10.64v9.696h4.528L658.363 87h-5.872V75.976h1.52Zm9.13 2.4c1.184 0 2.101.395 2.752 1.184.661.79.992 1.861.992 3.216 0 .875-.149 1.648-.448 2.32-.299.661-.731 1.179-1.296 1.552-.565.363-1.237.544-2.016.544-1.184 0-2.107-.395-2.768-1.184-.661-.79-.992-1.861-.992-3.216 0-.875.149-1.643.448-2.304.299-.672.731-1.19 1.296-1.552.565-.373 1.243-.56 2.032-.56Zm0 1.184c-1.461 0-2.192 1.077-2.192 3.232 0 2.144.725 3.216 2.176 3.216s2.176-1.077 2.176-3.232c0-2.144-.72-3.216-2.16-3.216Zm9.248-1.184c.501 0 .96.075 1.376.224a3.71 3.71 0 0 1 1.2.688l-.704.928a3.356 3.356 0 0 0-.88-.464 2.566 2.566 0 0 0-.928-.16c-.683 0-1.216.272-1.6.816-.373.544-.56 1.35-.56 2.416 0 1.067.187 1.856.56 2.368.373.501.907.752 1.6.752.331 0 .635-.048.912-.144.277-.107.587-.272.928-.496l.672.96c-.768.619-1.627.928-2.576.928-1.141 0-2.043-.384-2.704-1.152-.651-.768-.976-1.83-.976-3.184 0-.896.149-1.68.448-2.352.299-.672.72-1.195 1.264-1.568.555-.373 1.211-.56 1.968-.56Zm10.092 6.656c0 .341.059.597.176.768.118.16.294.283.528.368l-.336 1.024c-.437-.053-.789-.176-1.056-.368-.266-.192-.464-.49-.592-.896-.565.843-1.402 1.264-2.512 1.264-.832 0-1.488-.235-1.968-.704-.48-.47-.72-1.083-.72-1.84 0-.896.32-1.584.96-2.064.651-.48 1.568-.72 2.752-.72h1.296v-.624c0-.597-.144-1.024-.432-1.28-.288-.256-.73-.384-1.328-.384-.618 0-1.376.15-2.272.448l-.368-1.072c1.046-.384 2.016-.576 2.912-.576.992 0 1.734.245 2.224.736.491.48.736 1.168.736 2.064v3.856Zm-3.456 1.056c.843 0 1.504-.437 1.984-1.312V82.84h-1.104c-1.557 0-2.336.576-2.336 1.728 0 .501.123.88.368 1.136.246.256.608.384 1.088.384Zm10.735.528a3.236 3.236 0 0 1-1.888.576c-.714 0-1.274-.203-1.68-.608-.394-.416-.592-1.013-.592-1.792v-5.088h-1.472v-1.136h1.472v-1.904l1.472-.176v2.08h2l-.16 1.136h-1.84v5.024c0 .437.075.757.224.96.16.192.422.288.784.288.331 0 .704-.112 1.12-.336l.56.976Zm2.998-8.048V87h-1.472v-8.432h1.472Zm-.752-4.048c.309 0 .56.096.752.288a.977.977 0 0 1 .288.72.977.977 0 0 1-.288.72c-.192.181-.443.272-.752.272-.299 0-.544-.09-.736-.272a.977.977 0 0 1-.288-.72c0-.288.096-.528.288-.72a.996.996 0 0 1 .736-.288Zm6.963 3.856c1.184 0 2.102.395 2.752 1.184.662.79.992 1.861.992 3.216 0 .875-.149 1.648-.448 2.32-.298.661-.73 1.179-1.296 1.552-.565.363-1.237.544-2.016.544-1.184 0-2.106-.395-2.768-1.184-.661-.79-.992-1.861-.992-3.216 0-.875.15-1.643.448-2.304.299-.672.731-1.19 1.296-1.552.566-.373 1.243-.56 2.032-.56Zm0 1.184c-1.461 0-2.192 1.077-2.192 3.232 0 2.144.726 3.216 2.176 3.216 1.451 0 2.176-1.077 2.176-3.232 0-2.144-.72-3.216-2.16-3.216Zm10.144-1.184c.768 0 1.365.23 1.792.688.437.459.656 1.088.656 1.888V87h-1.472v-5.84c0-.597-.112-1.019-.336-1.264-.224-.245-.555-.368-.992-.368a1.92 1.92 0 0 0-1.184.384c-.341.256-.661.624-.96 1.104V87h-1.472v-8.432h1.264l.128 1.248c.299-.448.667-.8 1.104-1.056a2.916 2.916 0 0 1 1.472-.384Z"/><path fill="#4AF6CD" fill-rule="evenodd" d="M729.5 91a6.5 6.5 0 1 0 0-13 6.5 6.5 0 0 0 0 13Z" clip-rule="evenodd"/></svg>