<svg width="1001" height="496" viewBox="0 0 1001 496" fill="none" xmlns="http://www.w3.org/2000/svg">
<g opacity="0.29827">
<path d="M1008.08 163.448L443.182 -356.858V-747.19L28.1096 -770C24.9043 -762.456 4.36709 -740.714 7.57176 -728.596C11.43 -714.102 30.8387 -718.735 36.4776 -709.409C43.0661 -698.42 31.7291 -653.749 28.3457 -640.86C21.8759 -616.445 7.09676 -596.665 2.82235 -572.25C-4.35982 -531.263 10.1824 -534.53 37.7242 -508.927C84.141 -465.742 46.9244 -420.952 58.6176 -370.223C68.1146 -328.878 109.605 -307.554 124.8 -266.211C136.553 -234.37 152.697 -226.233 177.746 -202.947C177.153 -217.084 164.51 -258.785 188.253 -255.102C211.817 -251.478 202.736 -216.669 207.247 -202.115C211.045 -189.997 237.933 -165.761 215.616 -154.593C208.196 -150.91 187.066 -165.582 178.577 -169.503C184.572 -150.791 180.774 -131.367 190.271 -113.487C201.608 -92.162 213.835 -100.359 228.853 -88.7754C244.344 -76.8355 242.683 -63.1137 235.797 -45.0554C228.615 -26.2247 221.196 -29.1352 232.592 -6.44342C240.843 9.95119 254.85 30.7421 266.9 43.2164C273.904 50.4634 281.502 52.1267 288.506 61.3932C294.323 69.1155 292.067 79.2142 299.012 86.1638C310.883 98.1037 331.006 98.282 340.384 113.904C350.831 131.309 338.96 144.437 369.706 142.833C371.309 177.643 377.897 209.185 377.541 243.994C394.695 250.825 422.414 242.687 440.399 239.063C458.266 263.18 481.355 246.429 501.774 259.558C510.678 265.26 508.837 279.517 514.239 284.506C525.339 294.723 533.529 288.308 547.301 291.872C557.51 294.486 565.404 301.97 575.138 304.703C584.338 307.257 599.475 301.258 606.301 309.396C614.492 319.138 600.78 336.958 613.127 344.799C623.395 351.333 638.115 335.77 648.088 338.027C659.721 340.7 693.079 371.174 701.271 381.212C710.59 392.677 719.969 414.062 725.25 428.793C733.501 451.841 732.373 463.127 749.408 479.998C760.27 490.75 749.942 491.522 767.63 494.67C779.204 496.749 794.518 488.374 806.212 487.067C830.549 484.394 855.122 489.027 879.102 484.453C901.421 480.176 922.729 473.166 945.64 469.899C965.465 467.048 1000.37 469.246 1017.94 459.801C1036.99 449.643 1038.71 426.654 1011.17 430.932C1008.97 416.26 1018.77 396.003 1007.85 385.847C1023.04 365.056 1028.56 350.384 1030.93 324.959C1032 313.792 1032.48 301.436 1038 292.05C1043.4 282.783 1058.59 277.259 1061.56 269.299C1066.13 256.943 1058.83 251.419 1053.25 244.528C1049.69 240.073 1039.54 242.212 1036.63 238.291C1031.23 231.103 1036.57 223.678 1033.6 216.431C1024.94 195.462 1014.61 187.205 1008.08 163.444C1008.26 167.424 1008.44 171.463 1008.2 175.384" stroke="white" stroke-width="2" stroke-linecap="round" stroke-linejoin="round"/>
</g>
<path d="M729.114 83.9394C720.546 107.321 740.614 115.526 756.675 130.807C761.434 135.336 761.888 142.817 756.879 147.342C746.107 157.074 705.264 142.917 707.854 155.745C710.53 168.994 745.061 187.531 746.618 188.799C760.284 199.932 764.735 228.174 757.208 243.658C751.852 254.676 716.342 250.962 705.172 247.293C632.024 223.266 664.985 226.131 582.817 218.67C576.527 218.099 569.935 217.806 563.894 219.65C557.671 221.549 557.869 229.339 559.957 233.55C566.876 247.506 597.849 271.178 589.514 289.523C586.956 295.152 580.963 298.707 578.264 304.27C576.151 308.627 576.385 313.772 575.445 318.523" stroke="white" stroke-width="2"/>
<path fill-rule="evenodd" clip-rule="evenodd" d="M573.5 326C577.09 326 580 323.09 580 319.5C580 315.91 577.09 313 573.5 313C569.91 313 567 315.91 567 319.5C567 323.09 569.91 326 573.5 326Z" fill="#4AF6CD"/>
<path fill-rule="evenodd" clip-rule="evenodd" d="M661 363C662.657 363 664 361.657 664 360C664 358.343 662.657 357 661 357C659.343 357 658 358.343 658 360C658 361.657 659.343 363 661 363Z" fill="#4AF6CD"/>
<path fill-rule="evenodd" clip-rule="evenodd" d="M725 471C726.657 471 728 469.657 728 468C728 466.343 726.657 465 725 465C723.343 465 722 466.343 722 468C722 469.657 723.343 471 725 471Z" fill="#4AF6CD"/>
<path fill-rule="evenodd" clip-rule="evenodd" d="M365 228C366.657 228 368 226.657 368 225C368 223.343 366.657 222 365 222C363.343 222 362 223.343 362 225C362 226.657 363.343 228 365 228Z" fill="#4AF6CD"/>
<path d="M471.32 363.784C472.056 363.784 472.685 363.891 473.208 364.104C473.731 364.307 474.237 364.627 474.728 365.064L473.896 365.992C473.48 365.661 473.069 365.421 472.664 365.272C472.269 365.112 471.843 365.032 471.384 365.032C470.808 365.032 470.333 365.165 469.96 365.432C469.587 365.699 469.4 366.088 469.4 366.6C469.4 366.92 469.464 367.192 469.592 367.416C469.72 367.629 469.955 367.827 470.296 368.008C470.648 368.189 471.155 368.381 471.816 368.584C472.509 368.797 473.085 369.027 473.544 369.272C474.003 369.517 474.371 369.859 474.648 370.296C474.936 370.723 475.08 371.267 475.08 371.928C475.08 372.568 474.92 373.133 474.6 373.624C474.291 374.115 473.837 374.499 473.24 374.776C472.653 375.053 471.955 375.192 471.144 375.192C469.619 375.192 468.371 374.717 467.4 373.768L468.232 372.84C468.68 373.203 469.133 373.48 469.592 373.672C470.051 373.853 470.563 373.944 471.128 373.944C471.811 373.944 472.376 373.779 472.824 373.448C473.272 373.107 473.496 372.616 473.496 371.976C473.496 371.613 473.427 371.315 473.288 371.08C473.149 370.835 472.909 370.616 472.568 370.424C472.237 370.232 471.752 370.04 471.112 369.848C469.981 369.507 469.155 369.096 468.632 368.616C468.109 368.136 467.848 367.485 467.848 366.664C467.848 366.109 467.992 365.613 468.28 365.176C468.579 364.739 468.989 364.397 469.512 364.152C470.045 363.907 470.648 363.784 471.32 363.784ZM480.407 366.376C481.591 366.376 482.508 366.771 483.159 367.56C483.82 368.349 484.151 369.421 484.151 370.776C484.151 371.651 484.001 372.424 483.703 373.096C483.404 373.757 482.972 374.275 482.407 374.648C481.841 375.011 481.169 375.192 480.391 375.192C479.207 375.192 478.284 374.797 477.623 374.008C476.961 373.219 476.631 372.147 476.631 370.792C476.631 369.917 476.78 369.149 477.079 368.488C477.377 367.816 477.809 367.299 478.375 366.936C478.94 366.563 479.617 366.376 480.407 366.376ZM480.407 367.56C478.945 367.56 478.215 368.637 478.215 370.792C478.215 372.936 478.94 374.008 480.391 374.008C481.841 374.008 482.567 372.931 482.567 370.776C482.567 368.632 481.847 367.56 480.407 367.56ZM492.855 375H491.591L491.479 373.688C491.159 374.211 490.791 374.595 490.375 374.84C489.959 375.075 489.452 375.192 488.855 375.192C488.119 375.192 487.543 374.968 487.127 374.52C486.711 374.072 486.503 373.437 486.503 372.616V366.568H487.975V372.456C487.975 373.032 488.076 373.443 488.279 373.688C488.481 373.923 488.812 374.04 489.271 374.04C490.092 374.04 490.796 373.555 491.383 372.584V366.568H492.855V375ZM500.151 374.616C499.596 375 498.967 375.192 498.263 375.192C497.548 375.192 496.988 374.989 496.583 374.584C496.188 374.168 495.991 373.571 495.991 372.792V367.704H494.519V366.568H495.991V364.664L497.463 364.488V366.568H499.463L499.303 367.704H497.463V372.728C497.463 373.165 497.538 373.485 497.687 373.688C497.847 373.88 498.108 373.976 498.471 373.976C498.802 373.976 499.175 373.864 499.591 373.64L500.151 374.616ZM505.644 366.376C506.412 366.376 507.01 366.605 507.436 367.064C507.874 367.523 508.092 368.152 508.092 368.952V375H506.62V369.16C506.62 368.563 506.503 368.141 506.268 367.896C506.044 367.651 505.714 367.528 505.276 367.528C504.839 367.528 504.45 367.656 504.108 367.912C503.767 368.168 503.447 368.531 503.148 369V375H501.676V363.192L503.148 363.032V367.736C503.81 366.829 504.642 366.376 505.644 366.376ZM518.086 363.784C518.822 363.784 519.451 363.891 519.974 364.104C520.496 364.307 521.003 364.627 521.494 365.064L520.662 365.992C520.246 365.661 519.835 365.421 519.43 365.272C519.035 365.112 518.608 365.032 518.15 365.032C517.574 365.032 517.099 365.165 516.726 365.432C516.352 365.699 516.166 366.088 516.166 366.6C516.166 366.92 516.23 367.192 516.358 367.416C516.486 367.629 516.72 367.827 517.062 368.008C517.414 368.189 517.92 368.381 518.582 368.584C519.275 368.797 519.851 369.027 520.31 369.272C520.768 369.517 521.136 369.859 521.414 370.296C521.702 370.723 521.846 371.267 521.846 371.928C521.846 372.568 521.686 373.133 521.366 373.624C521.056 374.115 520.603 374.499 520.006 374.776C519.419 375.053 518.72 375.192 517.91 375.192C516.384 375.192 515.136 374.717 514.166 373.768L514.998 372.84C515.446 373.203 515.899 373.48 516.358 373.672C516.816 373.853 517.328 373.944 517.894 373.944C518.576 373.944 519.142 373.779 519.59 373.448C520.038 373.107 520.262 372.616 520.262 371.976C520.262 371.613 520.192 371.315 520.054 371.08C519.915 370.835 519.675 370.616 519.334 370.424C519.003 370.232 518.518 370.04 517.878 369.848C516.747 369.507 515.92 369.096 515.398 368.616C514.875 368.136 514.614 367.485 514.614 366.664C514.614 366.109 514.758 365.613 515.046 365.176C515.344 364.739 515.755 364.397 516.278 364.152C516.811 363.907 517.414 363.784 518.086 363.784ZM527.972 366.376C528.74 366.376 529.338 366.605 529.764 367.064C530.202 367.523 530.42 368.152 530.42 368.952V375H528.948V369.16C528.948 368.563 528.831 368.141 528.596 367.896C528.372 367.651 528.042 367.528 527.604 367.528C527.167 367.528 526.778 367.656 526.436 367.912C526.095 368.168 525.775 368.531 525.476 369V375H524.004V363.192L525.476 363.032V367.736C526.138 366.829 526.97 366.376 527.972 366.376ZM536.547 366.376C537.731 366.376 538.649 366.771 539.299 367.56C539.961 368.349 540.291 369.421 540.291 370.776C540.291 371.651 540.142 372.424 539.843 373.096C539.545 373.757 539.113 374.275 538.547 374.648C537.982 375.011 537.31 375.192 536.531 375.192C535.347 375.192 534.425 374.797 533.763 374.008C533.102 373.219 532.771 372.147 532.771 370.792C532.771 369.917 532.921 369.149 533.219 368.488C533.518 367.816 533.95 367.299 534.515 366.936C535.081 366.563 535.758 366.376 536.547 366.376ZM536.547 367.56C535.086 367.56 534.355 368.637 534.355 370.792C534.355 372.936 535.081 374.008 536.531 374.008C537.982 374.008 538.707 372.931 538.707 370.776C538.707 368.632 537.987 367.56 536.547 367.56ZM546.387 366.376C546.686 366.376 546.963 366.408 547.219 366.472L546.947 367.912C546.691 367.848 546.446 367.816 546.211 367.816C545.688 367.816 545.267 368.008 544.947 368.392C544.627 368.776 544.376 369.373 544.195 370.184V375H542.723V366.568H543.987L544.131 368.28C544.355 367.651 544.659 367.176 545.043 366.856C545.427 366.536 545.875 366.376 546.387 366.376ZM554.779 370.536C554.779 370.781 554.768 371.032 554.747 371.288H549.371C549.435 372.216 549.669 372.899 550.075 373.336C550.48 373.773 551.003 373.992 551.643 373.992C552.048 373.992 552.421 373.933 552.763 373.816C553.104 373.699 553.461 373.512 553.835 373.256L554.475 374.136C553.579 374.84 552.597 375.192 551.531 375.192C550.357 375.192 549.44 374.808 548.779 374.04C548.128 373.272 547.803 372.216 547.803 370.872C547.803 369.997 547.941 369.224 548.219 368.552C548.507 367.869 548.912 367.336 549.435 366.952C549.968 366.568 550.592 366.376 551.307 366.376C552.427 366.376 553.285 366.744 553.883 367.48C554.48 368.216 554.779 369.235 554.779 370.536ZM553.323 370.104C553.323 369.272 553.157 368.637 552.827 368.2C552.496 367.763 552 367.544 551.339 367.544C550.133 367.544 549.477 368.429 549.371 370.2H553.323V370.104ZM563.316 362.184V376.568H562.964V362.184H563.316ZM582.144 375H580.672L580.288 370.024C580.128 368.072 580.037 366.573 580.016 365.528L577.632 373.752H576.208L573.696 365.512C573.696 366.845 573.626 368.387 573.488 370.136L573.12 375H571.68L572.592 363.976H574.64L576.96 371.992L579.168 363.976H581.232L582.144 375ZM590.341 373.032C590.341 373.373 590.399 373.629 590.517 373.8C590.634 373.96 590.81 374.083 591.045 374.168L590.709 375.192C590.271 375.139 589.919 375.016 589.653 374.824C589.386 374.632 589.189 374.333 589.061 373.928C588.495 374.771 587.658 375.192 586.549 375.192C585.717 375.192 585.061 374.957 584.581 374.488C584.101 374.019 583.861 373.405 583.861 372.648C583.861 371.752 584.181 371.064 584.821 370.584C585.471 370.104 586.389 369.864 587.573 369.864H588.869V369.24C588.869 368.643 588.725 368.216 588.437 367.96C588.149 367.704 587.706 367.576 587.109 367.576C586.49 367.576 585.733 367.725 584.837 368.024L584.469 366.952C585.514 366.568 586.485 366.376 587.381 366.376C588.373 366.376 589.114 366.621 589.605 367.112C590.095 367.592 590.341 368.28 590.341 369.176V373.032ZM586.885 374.088C587.727 374.088 588.389 373.651 588.869 372.776V370.84H587.765C586.207 370.84 585.429 371.416 585.429 372.568C585.429 373.069 585.551 373.448 585.797 373.704C586.042 373.96 586.405 374.088 586.885 374.088ZM594.888 375.192C594.344 375.192 593.912 375.032 593.592 374.712C593.282 374.381 593.128 373.923 593.128 373.336V363.176L594.6 363V373.304C594.6 373.539 594.637 373.709 594.712 373.816C594.797 373.923 594.936 373.976 595.128 373.976C595.33 373.976 595.512 373.944 595.672 373.88L596.056 374.904C595.704 375.096 595.314 375.192 594.888 375.192ZM599.367 366.568V375H597.895V366.568H599.367ZM598.615 362.52C598.924 362.52 599.175 362.616 599.367 362.808C599.559 363 599.655 363.24 599.655 363.528C599.655 363.816 599.559 364.056 599.367 364.248C599.175 364.429 598.924 364.52 598.615 364.52C598.316 364.52 598.071 364.429 597.879 364.248C597.687 364.056 597.591 363.816 597.591 363.528C597.591 363.24 597.687 363 597.879 362.808C598.071 362.616 598.316 362.52 598.615 362.52ZM606.267 366.376C607.227 366.376 607.989 366.765 608.555 367.544C609.12 368.312 609.403 369.389 609.403 370.776C609.403 371.651 609.269 372.424 609.003 373.096C608.736 373.757 608.352 374.275 607.851 374.648C607.349 375.011 606.763 375.192 606.091 375.192C605.205 375.192 604.459 374.819 603.851 374.072L603.707 375H602.411V363.176L603.883 363V367.624C604.491 366.792 605.285 366.376 606.267 366.376ZM605.739 374.024C606.389 374.024 606.896 373.763 607.259 373.24C607.632 372.707 607.819 371.885 607.819 370.776C607.819 369.635 607.648 368.813 607.307 368.312C606.965 367.8 606.48 367.544 605.851 367.544C605.104 367.544 604.448 367.981 603.883 368.856V372.888C604.107 373.24 604.379 373.517 604.699 373.72C605.029 373.923 605.376 374.024 605.739 374.024ZM618.183 375H616.919L616.807 373.688C616.487 374.211 616.119 374.595 615.703 374.84C615.287 375.075 614.78 375.192 614.183 375.192C613.447 375.192 612.871 374.968 612.455 374.52C612.039 374.072 611.831 373.437 611.831 372.616V366.568H613.303V372.456C613.303 373.032 613.404 373.443 613.607 373.688C613.809 373.923 614.14 374.04 614.599 374.04C615.42 374.04 616.124 373.555 616.711 372.584V366.568H618.183V375ZM621.607 372.968C621.927 372.968 622.194 373.075 622.407 373.288C622.62 373.501 622.727 373.763 622.727 374.072C622.727 374.403 622.631 374.781 622.439 375.208L621.367 377.656H620.311L620.951 375C620.812 374.893 620.7 374.76 620.615 374.6C620.54 374.44 620.503 374.264 620.503 374.072C620.503 373.763 620.61 373.501 620.823 373.288C621.036 373.075 621.298 372.968 621.607 372.968ZM633.237 363.784C633.899 363.784 634.453 363.869 634.901 364.04C635.36 364.211 635.824 364.488 636.293 364.872L635.461 365.848C634.789 365.304 634.08 365.032 633.333 365.032C632.416 365.032 631.675 365.384 631.109 366.088C630.555 366.792 630.277 367.923 630.277 369.48C630.277 370.995 630.555 372.115 631.109 372.84C631.664 373.555 632.4 373.912 633.317 373.912C633.787 373.912 634.197 373.832 634.549 373.672C634.901 373.512 635.275 373.288 635.669 373L636.421 373.96C636.08 374.312 635.643 374.605 635.109 374.84C634.576 375.075 633.963 375.192 633.269 375.192C632.373 375.192 631.573 374.973 630.869 374.536C630.176 374.088 629.632 373.437 629.237 372.584C628.853 371.72 628.661 370.685 628.661 369.48C628.661 368.275 628.864 367.245 629.269 366.392C629.675 365.528 630.224 364.877 630.917 364.44C631.611 364.003 632.384 363.784 633.237 363.784ZM644.206 375L643.374 372.232H639.198L638.366 375H636.83L640.366 363.976H642.286L645.806 375H644.206ZM639.566 371H643.006L641.294 365.24L639.566 371Z" fill="white"/>
<path d="M545.021 456.976L544.845 458.192H540.573V461.792H544.285V463.008H540.573V466.784H545.149V468H539.053V456.976H545.021ZM553.028 466.032C553.028 466.373 553.087 466.629 553.204 466.8C553.321 466.96 553.497 467.083 553.732 467.168L553.396 468.192C552.959 468.139 552.607 468.016 552.34 467.824C552.073 467.632 551.876 467.333 551.748 466.928C551.183 467.771 550.345 468.192 549.236 468.192C548.404 468.192 547.748 467.957 547.268 467.488C546.788 467.019 546.548 466.405 546.548 465.648C546.548 464.752 546.868 464.064 547.508 463.584C548.159 463.104 549.076 462.864 550.26 462.864H551.556V462.24C551.556 461.643 551.412 461.216 551.124 460.96C550.836 460.704 550.393 460.576 549.796 460.576C549.177 460.576 548.42 460.725 547.524 461.024L547.156 459.952C548.201 459.568 549.172 459.376 550.068 459.376C551.06 459.376 551.801 459.621 552.292 460.112C552.783 460.592 553.028 461.28 553.028 462.176V466.032ZM549.572 467.088C550.415 467.088 551.076 466.651 551.556 465.776V463.84H550.452C548.895 463.84 548.116 464.416 548.116 465.568C548.116 466.069 548.239 466.448 548.484 466.704C548.729 466.96 549.092 467.088 549.572 467.088ZM558.183 459.376C558.759 459.376 559.276 459.456 559.735 459.616C560.194 459.776 560.631 460.016 561.047 460.336L560.423 461.264C560.039 461.019 559.671 460.837 559.319 460.72C558.978 460.603 558.615 460.544 558.231 460.544C557.751 460.544 557.372 460.645 557.095 460.848C556.818 461.04 556.679 461.307 556.679 461.648C556.679 461.989 556.807 462.256 557.063 462.448C557.33 462.64 557.804 462.827 558.487 463.008C559.426 463.243 560.124 463.563 560.583 463.968C561.052 464.373 561.287 464.928 561.287 465.632C561.287 466.464 560.962 467.099 560.311 467.536C559.671 467.973 558.887 468.192 557.959 468.192C556.679 468.192 555.618 467.824 554.775 467.088L555.559 466.192C556.274 466.736 557.063 467.008 557.927 467.008C558.482 467.008 558.919 466.896 559.239 466.672C559.57 466.437 559.735 466.123 559.735 465.728C559.735 465.44 559.676 465.211 559.559 465.04C559.442 464.859 559.239 464.704 558.951 464.576C558.663 464.437 558.242 464.293 557.687 464.144C556.791 463.909 556.14 463.595 555.735 463.2C555.34 462.805 555.143 462.304 555.143 461.696C555.143 461.259 555.271 460.864 555.527 460.512C555.794 460.149 556.156 459.872 556.615 459.68C557.084 459.477 557.607 459.376 558.183 459.376ZM567.62 467.616C567.065 468 566.436 468.192 565.732 468.192C565.017 468.192 564.457 467.989 564.052 467.584C563.657 467.168 563.46 466.571 563.46 465.792V460.704H561.988V459.568H563.46V457.664L564.932 457.488V459.568H566.932L566.772 460.704H564.932V465.728C564.932 466.165 565.006 466.485 565.156 466.688C565.316 466.88 565.577 466.976 565.94 466.976C566.27 466.976 566.644 466.864 567.06 466.64L567.62 467.616ZM576.179 456.784C576.915 456.784 577.545 456.891 578.067 457.104C578.59 457.307 579.097 457.627 579.587 458.064L578.755 458.992C578.339 458.661 577.929 458.421 577.523 458.272C577.129 458.112 576.702 458.032 576.243 458.032C575.667 458.032 575.193 458.165 574.819 458.432C574.446 458.699 574.259 459.088 574.259 459.6C574.259 459.92 574.323 460.192 574.451 460.416C574.579 460.629 574.814 460.827 575.155 461.008C575.507 461.189 576.014 461.381 576.675 461.584C577.369 461.797 577.945 462.027 578.403 462.272C578.862 462.517 579.23 462.859 579.507 463.296C579.795 463.723 579.939 464.267 579.939 464.928C579.939 465.568 579.779 466.133 579.459 466.624C579.15 467.115 578.697 467.499 578.099 467.776C577.513 468.053 576.814 468.192 576.003 468.192C574.478 468.192 573.23 467.717 572.259 466.768L573.091 465.84C573.539 466.203 573.993 466.48 574.451 466.672C574.91 466.853 575.422 466.944 575.987 466.944C576.67 466.944 577.235 466.779 577.683 466.448C578.131 466.107 578.355 465.616 578.355 464.976C578.355 464.613 578.286 464.315 578.147 464.08C578.009 463.835 577.769 463.616 577.427 463.424C577.097 463.232 576.611 463.04 575.971 462.848C574.841 462.507 574.014 462.096 573.491 461.616C572.969 461.136 572.707 460.485 572.707 459.664C572.707 459.109 572.851 458.613 573.139 458.176C573.438 457.739 573.849 457.397 574.371 457.152C574.905 456.907 575.507 456.784 576.179 456.784ZM586.066 459.376C586.834 459.376 587.431 459.605 587.858 460.064C588.295 460.523 588.514 461.152 588.514 461.952V468H587.042V462.16C587.042 461.563 586.925 461.141 586.69 460.896C586.466 460.651 586.135 460.528 585.698 460.528C585.261 460.528 584.871 460.656 584.53 460.912C584.189 461.168 583.869 461.531 583.57 462V468H582.098V456.192L583.57 456.032V460.736C584.231 459.829 585.063 459.376 586.066 459.376ZM594.641 459.376C595.825 459.376 596.742 459.771 597.393 460.56C598.054 461.349 598.385 462.421 598.385 463.776C598.385 464.651 598.236 465.424 597.937 466.096C597.638 466.757 597.206 467.275 596.641 467.648C596.076 468.011 595.404 468.192 594.625 468.192C593.441 468.192 592.518 467.797 591.857 467.008C591.196 466.219 590.865 465.147 590.865 463.792C590.865 462.917 591.014 462.149 591.313 461.488C591.612 460.816 592.044 460.299 592.609 459.936C593.174 459.563 593.852 459.376 594.641 459.376ZM594.641 460.56C593.18 460.56 592.449 461.637 592.449 463.792C592.449 465.936 593.174 467.008 594.625 467.008C596.076 467.008 596.801 465.931 596.801 463.776C596.801 461.632 596.081 460.56 594.641 460.56ZM604.481 459.376C604.78 459.376 605.057 459.408 605.313 459.472L605.041 460.912C604.785 460.848 604.54 460.816 604.305 460.816C603.782 460.816 603.361 461.008 603.041 461.392C602.721 461.776 602.47 462.373 602.289 463.184V468H600.817V459.568H602.081L602.225 461.28C602.449 460.651 602.753 460.176 603.137 459.856C603.521 459.536 603.969 459.376 604.481 459.376ZM612.872 463.536C612.872 463.781 612.862 464.032 612.84 464.288H607.464C607.528 465.216 607.763 465.899 608.168 466.336C608.574 466.773 609.096 466.992 609.736 466.992C610.142 466.992 610.515 466.933 610.856 466.816C611.198 466.699 611.555 466.512 611.928 466.256L612.568 467.136C611.672 467.84 610.691 468.192 609.624 468.192C608.451 468.192 607.534 467.808 606.872 467.04C606.222 466.272 605.896 465.216 605.896 463.872C605.896 462.997 606.035 462.224 606.312 461.552C606.6 460.869 607.006 460.336 607.528 459.952C608.062 459.568 608.686 459.376 609.4 459.376C610.52 459.376 611.379 459.744 611.976 460.48C612.574 461.216 612.872 462.235 612.872 463.536ZM611.416 463.104C611.416 462.272 611.251 461.637 610.92 461.2C610.59 460.763 610.094 460.544 609.432 460.544C608.227 460.544 607.571 461.429 607.464 463.2H611.416V463.104ZM621.41 455.184V469.568H621.058V455.184H621.41ZM640.237 468H638.765L638.381 463.024C638.221 461.072 638.131 459.573 638.109 458.528L635.725 466.752H634.301L631.789 458.512C631.789 459.845 631.72 461.387 631.581 463.136L631.213 468H629.773L630.685 456.976H632.733L635.053 464.992L637.261 456.976H639.325L640.237 468ZM648.434 466.032C648.434 466.373 648.493 466.629 648.61 466.8C648.728 466.96 648.904 467.083 649.138 467.168L648.802 468.192C648.365 468.139 648.013 468.016 647.746 467.824C647.48 467.632 647.282 467.333 647.154 466.928C646.589 467.771 645.752 468.192 644.642 468.192C643.81 468.192 643.154 467.957 642.674 467.488C642.194 467.019 641.954 466.405 641.954 465.648C641.954 464.752 642.274 464.064 642.914 463.584C643.565 463.104 644.482 462.864 645.666 462.864H646.962V462.24C646.962 461.643 646.818 461.216 646.53 460.96C646.242 460.704 645.8 460.576 645.202 460.576C644.584 460.576 643.826 460.725 642.93 461.024L642.562 459.952C643.608 459.568 644.578 459.376 645.474 459.376C646.466 459.376 647.208 459.621 647.698 460.112C648.189 460.592 648.434 461.28 648.434 462.176V466.032ZM644.978 467.088C645.821 467.088 646.482 466.651 646.962 465.776V463.84H645.858C644.301 463.84 643.522 464.416 643.522 465.568C643.522 466.069 643.645 466.448 643.89 466.704C644.136 466.96 644.498 467.088 644.978 467.088ZM652.981 468.192C652.437 468.192 652.005 468.032 651.685 467.712C651.376 467.381 651.221 466.923 651.221 466.336V456.176L652.693 456V466.304C652.693 466.539 652.731 466.709 652.805 466.816C652.891 466.923 653.029 466.976 653.221 466.976C653.424 466.976 653.605 466.944 653.765 466.88L654.149 467.904C653.797 468.096 653.408 468.192 652.981 468.192ZM657.461 459.568V468H655.989V459.568H657.461ZM656.709 455.52C657.018 455.52 657.269 455.616 657.461 455.808C657.653 456 657.749 456.24 657.749 456.528C657.749 456.816 657.653 457.056 657.461 457.248C657.269 457.429 657.018 457.52 656.709 457.52C656.41 457.52 656.165 457.429 655.973 457.248C655.781 457.056 655.685 456.816 655.685 456.528C655.685 456.24 655.781 456 655.973 455.808C656.165 455.616 656.41 455.52 656.709 455.52ZM664.36 459.376C665.32 459.376 666.083 459.765 666.648 460.544C667.214 461.312 667.496 462.389 667.496 463.776C667.496 464.651 667.363 465.424 667.096 466.096C666.83 466.757 666.446 467.275 665.944 467.648C665.443 468.011 664.856 468.192 664.184 468.192C663.299 468.192 662.552 467.819 661.944 467.072L661.8 468H660.504V456.176L661.976 456V460.624C662.584 459.792 663.379 459.376 664.36 459.376ZM663.832 467.024C664.483 467.024 664.99 466.763 665.352 466.24C665.726 465.707 665.912 464.885 665.912 463.776C665.912 462.635 665.742 461.813 665.4 461.312C665.059 460.8 664.574 460.544 663.944 460.544C663.198 460.544 662.542 460.981 661.976 461.856V465.888C662.2 466.24 662.472 466.517 662.792 466.72C663.123 466.923 663.47 467.024 663.832 467.024ZM676.276 468H675.012L674.9 466.688C674.58 467.211 674.212 467.595 673.796 467.84C673.38 468.075 672.874 468.192 672.276 468.192C671.54 468.192 670.964 467.968 670.548 467.52C670.132 467.072 669.924 466.437 669.924 465.616V459.568H671.396V465.456C671.396 466.032 671.498 466.443 671.7 466.688C671.903 466.923 672.234 467.04 672.692 467.04C673.514 467.04 674.218 466.555 674.804 465.584V459.568H676.276V468ZM679.701 465.968C680.021 465.968 680.288 466.075 680.501 466.288C680.714 466.501 680.821 466.763 680.821 467.072C680.821 467.403 680.725 467.781 680.533 468.208L679.461 470.656H678.405L679.045 468C678.906 467.893 678.794 467.76 678.709 467.6C678.634 467.44 678.597 467.264 678.597 467.072C678.597 466.763 678.704 466.501 678.917 466.288C679.13 466.075 679.392 465.968 679.701 465.968ZM691.331 456.784C691.992 456.784 692.547 456.869 692.995 457.04C693.454 457.211 693.918 457.488 694.387 457.872L693.555 458.848C692.883 458.304 692.174 458.032 691.427 458.032C690.51 458.032 689.768 458.384 689.203 459.088C688.648 459.792 688.371 460.923 688.371 462.48C688.371 463.995 688.648 465.115 689.203 465.84C689.758 466.555 690.494 466.912 691.411 466.912C691.88 466.912 692.291 466.832 692.643 466.672C692.995 466.512 693.368 466.288 693.763 466L694.515 466.96C694.174 467.312 693.736 467.605 693.203 467.84C692.67 468.075 692.056 468.192 691.363 468.192C690.467 468.192 689.667 467.973 688.963 467.536C688.27 467.088 687.726 466.437 687.331 465.584C686.947 464.72 686.755 463.685 686.755 462.48C686.755 461.275 686.958 460.245 687.363 459.392C687.768 458.528 688.318 457.877 689.011 457.44C689.704 457.003 690.478 456.784 691.331 456.784ZM702.3 468L701.468 465.232H697.292L696.46 468H694.924L698.46 456.976H700.38L703.9 468H702.3ZM697.66 464H701.1L699.388 458.24L697.66 464Z" fill="white"/>
<path d="M194.359 248H192.327L187.847 238.64C187.911 239.376 187.959 240.059 187.991 240.688C188.034 241.307 188.055 242.059 188.055 242.944V248H186.631V236.976H188.615L193.143 246.352C193.111 246.075 193.069 245.589 193.015 244.896C192.962 244.203 192.935 243.568 192.935 242.992V236.976H194.359V248ZM200.641 239.376C201.825 239.376 202.742 239.771 203.393 240.56C204.054 241.349 204.385 242.421 204.385 243.776C204.385 244.651 204.236 245.424 203.937 246.096C203.638 246.757 203.206 247.275 202.641 247.648C202.076 248.011 201.404 248.192 200.625 248.192C199.441 248.192 198.518 247.797 197.857 247.008C197.196 246.219 196.865 245.147 196.865 243.792C196.865 242.917 197.014 242.149 197.313 241.488C197.612 240.816 198.044 240.299 198.609 239.936C199.174 239.563 199.852 239.376 200.641 239.376ZM200.641 240.56C199.18 240.56 198.449 241.637 198.449 243.792C198.449 245.936 199.174 247.008 200.625 247.008C202.076 247.008 202.801 245.931 202.801 243.776C202.801 241.632 202.081 240.56 200.641 240.56ZM210.481 239.376C210.78 239.376 211.057 239.408 211.313 239.472L211.041 240.912C210.785 240.848 210.54 240.816 210.305 240.816C209.782 240.816 209.361 241.008 209.041 241.392C208.721 241.776 208.47 242.373 208.289 243.184V248H206.817V239.568H208.081L208.225 241.28C208.449 240.651 208.753 240.176 209.137 239.856C209.521 239.536 209.969 239.376 210.481 239.376ZM217.245 247.616C216.69 248 216.061 248.192 215.357 248.192C214.642 248.192 214.082 247.989 213.677 247.584C213.282 247.168 213.085 246.571 213.085 245.792V240.704H211.613V239.568H213.085V237.664L214.557 237.488V239.568H216.557L216.397 240.704H214.557V245.728C214.557 246.165 214.631 246.485 214.781 246.688C214.941 246.88 215.202 246.976 215.565 246.976C215.895 246.976 216.269 246.864 216.685 246.64L217.245 247.616ZM222.738 239.376C223.506 239.376 224.103 239.605 224.53 240.064C224.967 240.523 225.186 241.152 225.186 241.952V248H223.714V242.16C223.714 241.563 223.597 241.141 223.362 240.896C223.138 240.651 222.807 240.528 222.37 240.528C221.933 240.528 221.543 240.656 221.202 240.912C220.861 241.168 220.541 241.531 220.242 242V248H218.77V236.192L220.242 236.032V240.736C220.903 239.829 221.735 239.376 222.738 239.376ZM235.179 236.784C235.915 236.784 236.545 236.891 237.067 237.104C237.59 237.307 238.097 237.627 238.587 238.064L237.755 238.992C237.339 238.661 236.929 238.421 236.523 238.272C236.129 238.112 235.702 238.032 235.243 238.032C234.667 238.032 234.193 238.165 233.819 238.432C233.446 238.699 233.259 239.088 233.259 239.6C233.259 239.92 233.323 240.192 233.451 240.416C233.579 240.629 233.814 240.827 234.155 241.008C234.507 241.189 235.014 241.381 235.675 241.584C236.369 241.797 236.945 242.027 237.403 242.272C237.862 242.517 238.23 242.859 238.507 243.296C238.795 243.723 238.939 244.267 238.939 244.928C238.939 245.568 238.779 246.133 238.459 246.624C238.15 247.115 237.697 247.499 237.099 247.776C236.513 248.053 235.814 248.192 235.003 248.192C233.478 248.192 232.23 247.717 231.259 246.768L232.091 245.84C232.539 246.203 232.993 246.48 233.451 246.672C233.91 246.853 234.422 246.944 234.987 246.944C235.67 246.944 236.235 246.779 236.683 246.448C237.131 246.107 237.355 245.616 237.355 244.976C237.355 244.613 237.286 244.315 237.147 244.08C237.009 243.835 236.769 243.616 236.427 243.424C236.097 243.232 235.611 243.04 234.971 242.848C233.841 242.507 233.014 242.096 232.491 241.616C231.969 241.136 231.707 240.485 231.707 239.664C231.707 239.109 231.851 238.613 232.139 238.176C232.438 237.739 232.849 237.397 233.371 237.152C233.905 236.907 234.507 236.784 235.179 236.784ZM245.066 239.376C245.834 239.376 246.431 239.605 246.858 240.064C247.295 240.523 247.514 241.152 247.514 241.952V248H246.042V242.16C246.042 241.563 245.925 241.141 245.69 240.896C245.466 240.651 245.135 240.528 244.698 240.528C244.261 240.528 243.871 240.656 243.53 240.912C243.189 241.168 242.869 241.531 242.57 242V248H241.098V236.192L242.57 236.032V240.736C243.231 239.829 244.063 239.376 245.066 239.376ZM253.641 239.376C254.825 239.376 255.742 239.771 256.393 240.56C257.054 241.349 257.385 242.421 257.385 243.776C257.385 244.651 257.236 245.424 256.937 246.096C256.638 246.757 256.206 247.275 255.641 247.648C255.076 248.011 254.404 248.192 253.625 248.192C252.441 248.192 251.518 247.797 250.857 247.008C250.196 246.219 249.865 245.147 249.865 243.792C249.865 242.917 250.014 242.149 250.313 241.488C250.612 240.816 251.044 240.299 251.609 239.936C252.174 239.563 252.852 239.376 253.641 239.376ZM253.641 240.56C252.18 240.56 251.449 241.637 251.449 243.792C251.449 245.936 252.174 247.008 253.625 247.008C255.076 247.008 255.801 245.931 255.801 243.776C255.801 241.632 255.081 240.56 253.641 240.56ZM263.481 239.376C263.78 239.376 264.057 239.408 264.313 239.472L264.041 240.912C263.785 240.848 263.54 240.816 263.305 240.816C262.782 240.816 262.361 241.008 262.041 241.392C261.721 241.776 261.47 242.373 261.289 243.184V248H259.817V239.568H261.081L261.225 241.28C261.449 240.651 261.753 240.176 262.137 239.856C262.521 239.536 262.969 239.376 263.481 239.376ZM271.872 243.536C271.872 243.781 271.862 244.032 271.84 244.288H266.464C266.528 245.216 266.763 245.899 267.168 246.336C267.574 246.773 268.096 246.992 268.736 246.992C269.142 246.992 269.515 246.933 269.856 246.816C270.198 246.699 270.555 246.512 270.928 246.256L271.568 247.136C270.672 247.84 269.691 248.192 268.624 248.192C267.451 248.192 266.534 247.808 265.872 247.04C265.222 246.272 264.896 245.216 264.896 243.872C264.896 242.997 265.035 242.224 265.312 241.552C265.6 240.869 266.006 240.336 266.528 239.952C267.062 239.568 267.686 239.376 268.4 239.376C269.52 239.376 270.379 239.744 270.976 240.48C271.574 241.216 271.872 242.235 271.872 243.536ZM270.416 243.104C270.416 242.272 270.251 241.637 269.92 241.2C269.59 240.763 269.094 240.544 268.432 240.544C267.227 240.544 266.571 241.429 266.464 243.2H270.416V243.104ZM280.41 235.184V249.568H280.058V235.184H280.41ZM299.237 248H297.765L297.381 243.024C297.221 241.072 297.131 239.573 297.109 238.528L294.725 246.752H293.301L290.789 238.512C290.789 239.845 290.72 241.387 290.581 243.136L290.213 248H288.773L289.685 236.976H291.733L294.053 244.992L296.261 236.976H298.325L299.237 248ZM307.434 246.032C307.434 246.373 307.493 246.629 307.61 246.8C307.728 246.96 307.904 247.083 308.138 247.168L307.802 248.192C307.365 248.139 307.013 248.016 306.746 247.824C306.48 247.632 306.282 247.333 306.154 246.928C305.589 247.771 304.752 248.192 303.642 248.192C302.81 248.192 302.154 247.957 301.674 247.488C301.194 247.019 300.954 246.405 300.954 245.648C300.954 244.752 301.274 244.064 301.914 243.584C302.565 243.104 303.482 242.864 304.666 242.864H305.962V242.24C305.962 241.643 305.818 241.216 305.53 240.96C305.242 240.704 304.8 240.576 304.202 240.576C303.584 240.576 302.826 240.725 301.93 241.024L301.562 239.952C302.608 239.568 303.578 239.376 304.474 239.376C305.466 239.376 306.208 239.621 306.698 240.112C307.189 240.592 307.434 241.28 307.434 242.176V246.032ZM303.978 247.088C304.821 247.088 305.482 246.651 305.962 245.776V243.84H304.858C303.301 243.84 302.522 244.416 302.522 245.568C302.522 246.069 302.645 246.448 302.89 246.704C303.136 246.96 303.498 247.088 303.978 247.088ZM311.981 248.192C311.437 248.192 311.005 248.032 310.685 247.712C310.376 247.381 310.221 246.923 310.221 246.336V236.176L311.693 236V246.304C311.693 246.539 311.731 246.709 311.805 246.816C311.891 246.923 312.029 246.976 312.221 246.976C312.424 246.976 312.605 246.944 312.765 246.88L313.149 247.904C312.797 248.096 312.408 248.192 311.981 248.192ZM316.461 239.568V248H314.989V239.568H316.461ZM315.709 235.52C316.018 235.52 316.269 235.616 316.461 235.808C316.653 236 316.749 236.24 316.749 236.528C316.749 236.816 316.653 237.056 316.461 237.248C316.269 237.429 316.018 237.52 315.709 237.52C315.41 237.52 315.165 237.429 314.973 237.248C314.781 237.056 314.685 236.816 314.685 236.528C314.685 236.24 314.781 236 314.973 235.808C315.165 235.616 315.41 235.52 315.709 235.52ZM323.36 239.376C324.32 239.376 325.083 239.765 325.648 240.544C326.214 241.312 326.496 242.389 326.496 243.776C326.496 244.651 326.363 245.424 326.096 246.096C325.83 246.757 325.446 247.275 324.944 247.648C324.443 248.011 323.856 248.192 323.184 248.192C322.299 248.192 321.552 247.819 320.944 247.072L320.8 248H319.504V236.176L320.976 236V240.624C321.584 239.792 322.379 239.376 323.36 239.376ZM322.832 247.024C323.483 247.024 323.99 246.763 324.352 246.24C324.726 245.707 324.912 244.885 324.912 243.776C324.912 242.635 324.742 241.813 324.4 241.312C324.059 240.8 323.574 240.544 322.944 240.544C322.198 240.544 321.542 240.981 320.976 241.856V245.888C321.2 246.24 321.472 246.517 321.792 246.72C322.123 246.923 322.47 247.024 322.832 247.024ZM335.276 248H334.012L333.9 246.688C333.58 247.211 333.212 247.595 332.796 247.84C332.38 248.075 331.874 248.192 331.276 248.192C330.54 248.192 329.964 247.968 329.548 247.52C329.132 247.072 328.924 246.437 328.924 245.616V239.568H330.396V245.456C330.396 246.032 330.498 246.443 330.7 246.688C330.903 246.923 331.234 247.04 331.692 247.04C332.514 247.04 333.218 246.555 333.804 245.584V239.568H335.276V248ZM338.701 245.968C339.021 245.968 339.288 246.075 339.501 246.288C339.714 246.501 339.821 246.763 339.821 247.072C339.821 247.403 339.725 247.781 339.533 248.208L338.461 250.656H337.405L338.045 248C337.906 247.893 337.794 247.76 337.709 247.6C337.634 247.44 337.597 247.264 337.597 247.072C337.597 246.763 337.704 246.501 337.917 246.288C338.13 246.075 338.392 245.968 338.701 245.968ZM350.331 236.784C350.992 236.784 351.547 236.869 351.995 237.04C352.454 237.211 352.918 237.488 353.387 237.872L352.555 238.848C351.883 238.304 351.174 238.032 350.427 238.032C349.51 238.032 348.768 238.384 348.203 239.088C347.648 239.792 347.371 240.923 347.371 242.48C347.371 243.995 347.648 245.115 348.203 245.84C348.758 246.555 349.494 246.912 350.411 246.912C350.88 246.912 351.291 246.832 351.643 246.672C351.995 246.512 352.368 246.288 352.763 246L353.515 246.96C353.174 247.312 352.736 247.605 352.203 247.84C351.67 248.075 351.056 248.192 350.363 248.192C349.467 248.192 348.667 247.973 347.963 247.536C347.27 247.088 346.726 246.437 346.331 245.584C345.947 244.72 345.755 243.685 345.755 242.48C345.755 241.275 345.958 240.245 346.363 239.392C346.768 238.528 347.318 237.877 348.011 237.44C348.704 237.003 349.478 236.784 350.331 236.784ZM361.3 248L360.468 245.232H356.292L355.46 248H353.924L357.46 236.976H359.38L362.9 248H361.3ZM356.66 244H360.1L358.388 238.24L356.66 244Z" fill="white"/>
<path d="M398.41 310.976L396.17 322H394.218L392.186 312.768L390.138 322H388.234L385.994 310.976H387.482L389.258 320.672L391.386 310.976H393.002L395.178 320.672L397.018 310.976H398.41ZM406.544 317.536C406.544 317.781 406.534 318.032 406.512 318.288H401.136C401.2 319.216 401.435 319.899 401.84 320.336C402.246 320.773 402.768 320.992 403.408 320.992C403.814 320.992 404.187 320.933 404.528 320.816C404.87 320.699 405.227 320.512 405.6 320.256L406.24 321.136C405.344 321.84 404.363 322.192 403.296 322.192C402.123 322.192 401.206 321.808 400.544 321.04C399.894 320.272 399.568 319.216 399.568 317.872C399.568 316.997 399.707 316.224 399.984 315.552C400.272 314.869 400.678 314.336 401.2 313.952C401.734 313.568 402.358 313.376 403.072 313.376C404.192 313.376 405.051 313.744 405.648 314.48C406.246 315.216 406.544 316.235 406.544 317.536ZM405.088 317.104C405.088 316.272 404.923 315.637 404.592 315.2C404.262 314.763 403.766 314.544 403.104 314.544C401.899 314.544 401.243 315.429 401.136 317.2H405.088V317.104ZM411.183 313.376C411.759 313.376 412.276 313.456 412.735 313.616C413.194 313.776 413.631 314.016 414.047 314.336L413.423 315.264C413.039 315.019 412.671 314.837 412.319 314.72C411.978 314.603 411.615 314.544 411.231 314.544C410.751 314.544 410.372 314.645 410.095 314.848C409.818 315.04 409.679 315.307 409.679 315.648C409.679 315.989 409.807 316.256 410.063 316.448C410.33 316.64 410.804 316.827 411.487 317.008C412.426 317.243 413.124 317.563 413.583 317.968C414.052 318.373 414.287 318.928 414.287 319.632C414.287 320.464 413.962 321.099 413.311 321.536C412.671 321.973 411.887 322.192 410.959 322.192C409.679 322.192 408.618 321.824 407.775 321.088L408.559 320.192C409.274 320.736 410.063 321.008 410.927 321.008C411.482 321.008 411.919 320.896 412.239 320.672C412.57 320.437 412.735 320.123 412.735 319.728C412.735 319.44 412.676 319.211 412.559 319.04C412.442 318.859 412.239 318.704 411.951 318.576C411.663 318.437 411.242 318.293 410.687 318.144C409.791 317.909 409.14 317.595 408.735 317.2C408.34 316.805 408.143 316.304 408.143 315.696C408.143 315.259 408.271 314.864 408.527 314.512C408.794 314.149 409.156 313.872 409.615 313.68C410.084 313.477 410.607 313.376 411.183 313.376ZM420.62 321.616C420.065 322 419.436 322.192 418.732 322.192C418.017 322.192 417.457 321.989 417.052 321.584C416.657 321.168 416.46 320.571 416.46 319.792V314.704H414.988V313.568H416.46V311.664L417.932 311.488V313.568H419.932L419.772 314.704H417.932V319.728C417.932 320.165 418.006 320.485 418.156 320.688C418.316 320.88 418.577 320.976 418.94 320.976C419.27 320.976 419.644 320.864 420.06 320.64L420.62 321.616ZM429.179 310.784C429.915 310.784 430.545 310.891 431.067 311.104C431.59 311.307 432.097 311.627 432.587 312.064L431.755 312.992C431.339 312.661 430.929 312.421 430.523 312.272C430.129 312.112 429.702 312.032 429.243 312.032C428.667 312.032 428.193 312.165 427.819 312.432C427.446 312.699 427.259 313.088 427.259 313.6C427.259 313.92 427.323 314.192 427.451 314.416C427.579 314.629 427.814 314.827 428.155 315.008C428.507 315.189 429.014 315.381 429.675 315.584C430.369 315.797 430.945 316.027 431.403 316.272C431.862 316.517 432.23 316.859 432.507 317.296C432.795 317.723 432.939 318.267 432.939 318.928C432.939 319.568 432.779 320.133 432.459 320.624C432.15 321.115 431.697 321.499 431.099 321.776C430.513 322.053 429.814 322.192 429.003 322.192C427.478 322.192 426.23 321.717 425.259 320.768L426.091 319.84C426.539 320.203 426.993 320.48 427.451 320.672C427.91 320.853 428.422 320.944 428.987 320.944C429.67 320.944 430.235 320.779 430.683 320.448C431.131 320.107 431.355 319.616 431.355 318.976C431.355 318.613 431.286 318.315 431.147 318.08C431.009 317.835 430.769 317.616 430.427 317.424C430.097 317.232 429.611 317.04 428.971 316.848C427.841 316.507 427.014 316.096 426.491 315.616C425.969 315.136 425.707 314.485 425.707 313.664C425.707 313.109 425.851 312.613 426.139 312.176C426.438 311.739 426.849 311.397 427.371 311.152C427.905 310.907 428.507 310.784 429.179 310.784ZM439.066 313.376C439.834 313.376 440.431 313.605 440.858 314.064C441.295 314.523 441.514 315.152 441.514 315.952V322H440.042V316.16C440.042 315.563 439.925 315.141 439.69 314.896C439.466 314.651 439.135 314.528 438.698 314.528C438.261 314.528 437.871 314.656 437.53 314.912C437.189 315.168 436.869 315.531 436.57 316V322H435.098V310.192L436.57 310.032V314.736C437.231 313.829 438.063 313.376 439.066 313.376ZM447.641 313.376C448.825 313.376 449.742 313.771 450.393 314.56C451.054 315.349 451.385 316.421 451.385 317.776C451.385 318.651 451.236 319.424 450.937 320.096C450.638 320.757 450.206 321.275 449.641 321.648C449.076 322.011 448.404 322.192 447.625 322.192C446.441 322.192 445.518 321.797 444.857 321.008C444.196 320.219 443.865 319.147 443.865 317.792C443.865 316.917 444.014 316.149 444.313 315.488C444.612 314.816 445.044 314.299 445.609 313.936C446.174 313.563 446.852 313.376 447.641 313.376ZM447.641 314.56C446.18 314.56 445.449 315.637 445.449 317.792C445.449 319.936 446.174 321.008 447.625 321.008C449.076 321.008 449.801 319.931 449.801 317.776C449.801 315.632 449.081 314.56 447.641 314.56ZM457.481 313.376C457.78 313.376 458.057 313.408 458.313 313.472L458.041 314.912C457.785 314.848 457.54 314.816 457.305 314.816C456.782 314.816 456.361 315.008 456.041 315.392C455.721 315.776 455.47 316.373 455.289 317.184V322H453.817V313.568H455.081L455.225 315.28C455.449 314.651 455.753 314.176 456.137 313.856C456.521 313.536 456.969 313.376 457.481 313.376ZM465.872 317.536C465.872 317.781 465.862 318.032 465.84 318.288H460.464C460.528 319.216 460.763 319.899 461.168 320.336C461.574 320.773 462.096 320.992 462.736 320.992C463.142 320.992 463.515 320.933 463.856 320.816C464.198 320.699 464.555 320.512 464.928 320.256L465.568 321.136C464.672 321.84 463.691 322.192 462.624 322.192C461.451 322.192 460.534 321.808 459.872 321.04C459.222 320.272 458.896 319.216 458.896 317.872C458.896 316.997 459.035 316.224 459.312 315.552C459.6 314.869 460.006 314.336 460.528 313.952C461.062 313.568 461.686 313.376 462.4 313.376C463.52 313.376 464.379 313.744 464.976 314.48C465.574 315.216 465.872 316.235 465.872 317.536ZM464.416 317.104C464.416 316.272 464.251 315.637 463.92 315.2C463.59 314.763 463.094 314.544 462.432 314.544C461.227 314.544 460.571 315.429 460.464 317.2H464.416V317.104ZM474.41 309.184V323.568H474.058V309.184H474.41ZM493.237 322H491.765L491.381 317.024C491.221 315.072 491.131 313.573 491.109 312.528L488.725 320.752H487.301L484.789 312.512C484.789 313.845 484.72 315.387 484.581 317.136L484.213 322H482.773L483.685 310.976H485.733L488.053 318.992L490.261 310.976H492.325L493.237 322ZM501.434 320.032C501.434 320.373 501.493 320.629 501.61 320.8C501.728 320.96 501.904 321.083 502.138 321.168L501.802 322.192C501.365 322.139 501.013 322.016 500.746 321.824C500.48 321.632 500.282 321.333 500.154 320.928C499.589 321.771 498.752 322.192 497.642 322.192C496.81 322.192 496.154 321.957 495.674 321.488C495.194 321.019 494.954 320.405 494.954 319.648C494.954 318.752 495.274 318.064 495.914 317.584C496.565 317.104 497.482 316.864 498.666 316.864H499.962V316.24C499.962 315.643 499.818 315.216 499.53 314.96C499.242 314.704 498.8 314.576 498.202 314.576C497.584 314.576 496.826 314.725 495.93 315.024L495.562 313.952C496.608 313.568 497.578 313.376 498.474 313.376C499.466 313.376 500.208 313.621 500.698 314.112C501.189 314.592 501.434 315.28 501.434 316.176V320.032ZM497.978 321.088C498.821 321.088 499.482 320.651 499.962 319.776V317.84H498.858C497.301 317.84 496.522 318.416 496.522 319.568C496.522 320.069 496.645 320.448 496.89 320.704C497.136 320.96 497.498 321.088 497.978 321.088ZM505.981 322.192C505.437 322.192 505.005 322.032 504.685 321.712C504.376 321.381 504.221 320.923 504.221 320.336V310.176L505.693 310V320.304C505.693 320.539 505.731 320.709 505.805 320.816C505.891 320.923 506.029 320.976 506.221 320.976C506.424 320.976 506.605 320.944 506.765 320.88L507.149 321.904C506.797 322.096 506.408 322.192 505.981 322.192ZM510.461 313.568V322H508.989V313.568H510.461ZM509.709 309.52C510.018 309.52 510.269 309.616 510.461 309.808C510.653 310 510.749 310.24 510.749 310.528C510.749 310.816 510.653 311.056 510.461 311.248C510.269 311.429 510.018 311.52 509.709 311.52C509.41 311.52 509.165 311.429 508.973 311.248C508.781 311.056 508.685 310.816 508.685 310.528C508.685 310.24 508.781 310 508.973 309.808C509.165 309.616 509.41 309.52 509.709 309.52ZM517.36 313.376C518.32 313.376 519.083 313.765 519.648 314.544C520.214 315.312 520.496 316.389 520.496 317.776C520.496 318.651 520.363 319.424 520.096 320.096C519.83 320.757 519.446 321.275 518.944 321.648C518.443 322.011 517.856 322.192 517.184 322.192C516.299 322.192 515.552 321.819 514.944 321.072L514.8 322H513.504V310.176L514.976 310V314.624C515.584 313.792 516.379 313.376 517.36 313.376ZM516.832 321.024C517.483 321.024 517.99 320.763 518.352 320.24C518.726 319.707 518.912 318.885 518.912 317.776C518.912 316.635 518.742 315.813 518.4 315.312C518.059 314.8 517.574 314.544 516.944 314.544C516.198 314.544 515.542 314.981 514.976 315.856V319.888C515.2 320.24 515.472 320.517 515.792 320.72C516.123 320.923 516.47 321.024 516.832 321.024ZM529.276 322H528.012L527.9 320.688C527.58 321.211 527.212 321.595 526.796 321.84C526.38 322.075 525.874 322.192 525.276 322.192C524.54 322.192 523.964 321.968 523.548 321.52C523.132 321.072 522.924 320.437 522.924 319.616V313.568H524.396V319.456C524.396 320.032 524.498 320.443 524.7 320.688C524.903 320.923 525.234 321.04 525.692 321.04C526.514 321.04 527.218 320.555 527.804 319.584V313.568H529.276V322ZM532.701 319.968C533.021 319.968 533.288 320.075 533.501 320.288C533.714 320.501 533.821 320.763 533.821 321.072C533.821 321.403 533.725 321.781 533.533 322.208L532.461 324.656H531.405L532.045 322C531.906 321.893 531.794 321.76 531.709 321.6C531.634 321.44 531.597 321.264 531.597 321.072C531.597 320.763 531.704 320.501 531.917 320.288C532.13 320.075 532.392 319.968 532.701 319.968ZM544.331 310.784C544.992 310.784 545.547 310.869 545.995 311.04C546.454 311.211 546.918 311.488 547.387 311.872L546.555 312.848C545.883 312.304 545.174 312.032 544.427 312.032C543.51 312.032 542.768 312.384 542.203 313.088C541.648 313.792 541.371 314.923 541.371 316.48C541.371 317.995 541.648 319.115 542.203 319.84C542.758 320.555 543.494 320.912 544.411 320.912C544.88 320.912 545.291 320.832 545.643 320.672C545.995 320.512 546.368 320.288 546.763 320L547.515 320.96C547.174 321.312 546.736 321.605 546.203 321.84C545.67 322.075 545.056 322.192 544.363 322.192C543.467 322.192 542.667 321.973 541.963 321.536C541.27 321.088 540.726 320.437 540.331 319.584C539.947 318.72 539.755 317.685 539.755 316.48C539.755 315.275 539.958 314.245 540.363 313.392C540.768 312.528 541.318 311.877 542.011 311.44C542.704 311.003 543.478 310.784 544.331 310.784ZM555.3 322L554.468 319.232H550.292L549.46 322H547.924L551.46 310.976H553.38L556.9 322H555.3ZM550.66 318H554.1L552.388 312.24L550.66 318Z" fill="white"/>
<path d="M724.5 464C725.049 455.213 732.847 449.655 734.733 441.097C736.348 433.773 735.454 419.42 744.101 416.332C759.504 410.831 777.013 413.327 792.23 407.646C799.104 405.08 805.271 398.892 810.358 393.879C821.167 383.229 709.175 378.908 714.329 364.5C734.467 308.211 823.5 338.5 744.443 278.811C736.688 274.189 729.336 268.857 721.763 263.944C714.681 259.349 707.593 254.495 702.231 247.863C693.631 237.227 692.193 223.727 691.498 210.619C691.277 206.464 690.326 201.058 691.839 197.004C695.032 188.445 706.742 182.516 714.329 178.913C735.055 169.071 759.019 170.404 780.245 162.377C793.044 157.537 794.85 147.557 793.064 134.994C791.138 121.449 782.147 112.487 771.75 104.578C766.887 100.879 760.159 97.7567 754.607 95.2477C749.738 93.0479 745.854 100.5 740.5 100.5C736.006 100.5 730.5 95.5 727 92" stroke="white" stroke-width="2" stroke-linecap="round"/>
<path d="M727 92C697.756 145.97 697.143 122.83 666.494 122.419C656.585 122.287 652.902 128.846 651.368 143.026C644.556 161.103 581.449 154.167 565.695 154.167C550.409 154.167 534.628 155.244 519.393 153.846C504.948 152.52 491.44 149.837 476.716 149.837C467.028 149.837 439.033 147.634 438.323 162.825C437.73 175.517 448.314 181.381 434.698 191.686C423.26 200.342 409.357 208.247 395.976 213.492C388.674 216.353 379.369 214.124 372.742 217.661C369.156 219.574 371.351 221.369 368 223" stroke="white" stroke-width="2" stroke-linecap="round"/>
<path d="M724.593 101.353L723.624 101.106L724.593 101.353ZM718.732 118.246L719.673 118.585L718.732 118.246ZM712.041 136.521L711.206 135.971L712.041 136.521ZM694.18 150.29L693.738 149.393L693.738 149.393L694.18 150.29ZM684.006 153.553L683.715 152.596L684.006 153.553ZM666.532 160.99L666.081 160.097L666.081 160.097L666.532 160.99ZM649.556 179.929L650.494 180.275L649.556 179.929ZM647.04 200.444L648.029 200.591L647.04 200.444ZM646.183 213.273L647.181 213.21L646.183 213.273ZM651.657 228.811L652.548 228.357L651.657 228.811ZM667.251 261.105L666.306 261.432L667.251 261.105ZM671.868 274.984L670.947 275.373L671.868 274.984ZM680.08 294.78L679.117 295.051L680.08 294.78ZM678.421 333.571L679.408 333.73L679.408 333.73L678.421 333.571ZM675.905 344.215L676.747 344.754L676.747 344.754L675.905 344.215ZM663.865 358.228C663.438 358.578 663.377 359.208 663.728 359.635C664.078 360.062 664.708 360.123 665.135 359.772L663.865 358.228ZM726.571 93.1166C726.013 93.1863 725.652 93.5592 725.452 93.8277C725.237 94.1156 725.071 94.4656 724.939 94.8079C724.671 95.4996 724.457 96.3761 724.286 97.2245C724.113 98.0831 723.973 98.9628 723.862 99.6766C723.745 100.432 723.671 100.922 723.624 101.106L725.562 101.6C725.64 101.294 725.734 100.653 725.838 99.9831C725.949 99.2714 726.083 98.4307 726.246 97.6204C726.412 96.7999 726.599 96.0589 726.804 95.5307C726.907 95.263 726.996 95.1024 727.056 95.0224C727.13 94.923 727.062 95.0708 726.819 95.1012L726.571 93.1166ZM723.624 101.106C722.175 106.795 719.829 112.257 717.791 117.907L719.673 118.585C721.655 113.087 724.082 107.413 725.562 101.6L723.624 101.106ZM717.791 117.907C716.722 120.871 715.883 124.229 714.932 127.328C713.963 130.483 712.854 133.47 711.206 135.971L712.876 137.072C714.686 134.324 715.862 131.114 716.844 127.914C717.843 124.657 718.62 121.503 719.673 118.585L717.791 117.907ZM711.206 135.971C707.069 142.25 700.56 146.035 693.738 149.393L694.622 151.187C701.469 147.816 708.419 143.836 712.876 137.072L711.206 135.971ZM693.738 149.393C692.17 150.165 690.564 150.696 688.892 151.17C687.265 151.631 685.452 152.068 683.715 152.596L684.297 154.509C686.043 153.978 687.67 153.595 689.437 153.094C691.158 152.607 692.897 152.037 694.622 151.187L693.738 149.393ZM683.715 152.596C677.636 154.445 671.668 157.279 666.081 160.097L666.982 161.883C672.556 159.072 678.393 156.305 684.297 154.509L683.715 152.596ZM666.081 160.097C657.568 164.392 651.918 170.617 648.617 179.584L650.494 180.275C653.616 171.794 658.91 165.955 666.982 161.883L666.081 160.097ZM648.617 179.584C647.355 183.013 646.973 186.556 646.772 190.034C646.567 193.557 646.547 196.944 646.051 200.298L648.029 200.591C648.543 197.12 648.572 193.535 648.768 190.15C648.967 186.72 649.337 183.418 650.494 180.275L648.617 179.584ZM646.051 200.298C645.417 204.571 644.903 208.902 645.185 213.336L647.181 213.21C646.913 208.998 647.399 204.843 648.029 200.591L646.051 200.298ZM645.185 213.336C645.557 219.193 648.278 224.39 650.766 229.266L652.548 228.357C650.017 223.398 647.522 218.579 647.181 213.21L645.185 213.336ZM650.766 229.266C656.175 239.863 662.466 250.366 666.306 261.432L668.195 260.777C664.295 249.537 657.871 238.785 652.548 228.357L650.766 229.266ZM666.306 261.432C667.1 263.721 667.767 266.028 668.489 268.376C669.206 270.71 669.972 273.064 670.947 275.373L672.789 274.595C671.855 272.383 671.114 270.109 670.401 267.788C669.692 265.482 669.005 263.11 668.195 260.777L666.306 261.432ZM670.947 275.373C673.793 282.112 677.19 288.192 679.117 295.051L681.042 294.51C679.073 287.499 675.521 281.062 672.789 274.595L670.947 275.373ZM679.117 295.051C682.616 307.509 679.495 320.628 677.433 333.412L679.408 333.73C681.429 321.198 684.693 307.506 681.042 294.51L679.117 295.051ZM677.433 333.412C677.291 334.292 677.183 335.22 677.073 336.134C676.962 337.058 676.849 337.975 676.695 338.876C676.384 340.684 675.921 342.334 675.062 343.676L676.747 344.754C677.82 343.078 678.339 341.117 678.666 339.214C678.83 338.258 678.948 337.294 679.059 336.373C679.171 335.443 679.274 334.561 679.408 333.73L677.433 333.412ZM675.062 343.676C674.098 345.183 673.442 346.893 672.815 348.446C672.171 350.041 671.551 351.487 670.653 352.684L672.253 353.884C673.328 352.45 674.032 350.772 674.669 349.195C675.323 347.577 675.906 346.069 676.747 344.754L675.062 343.676ZM670.653 352.684C669.679 353.983 669.233 354.576 668.978 354.868C668.851 355.012 668.838 355.002 668.892 354.97C668.974 354.921 669.062 354.911 668.956 354.931C668.297 355.06 667.346 355.366 663.865 358.228L665.135 359.772C668.607 356.918 669.218 356.918 669.34 356.894C669.43 356.877 669.664 356.838 669.917 356.687C670.14 356.554 670.32 356.37 670.481 356.186C670.802 355.82 671.313 355.138 672.253 353.884L670.653 352.684Z" fill="white"/>
<path d="M598.378 75.784C599.039 75.784 599.594 75.8693 600.042 76.04C600.501 76.2107 600.965 76.488 601.434 76.872L600.602 77.848C599.93 77.304 599.221 77.032 598.474 77.032C597.557 77.032 596.815 77.384 596.25 78.088C595.695 78.792 595.418 79.9227 595.418 81.48C595.418 82.9947 595.695 84.1147 596.25 84.84C596.805 85.5547 597.541 85.912 598.458 85.912C598.927 85.912 599.338 85.832 599.69 85.672C600.042 85.512 600.415 85.288 600.81 85L601.562 85.96C601.221 86.312 600.783 86.6053 600.25 86.84C599.717 87.0747 599.103 87.192 598.41 87.192C597.514 87.192 596.714 86.9733 596.01 86.536C595.317 86.088 594.773 85.4373 594.378 84.584C593.994 83.72 593.802 82.6853 593.802 81.48C593.802 80.2747 594.005 79.2453 594.41 78.392C594.815 77.528 595.365 76.8773 596.058 76.44C596.751 76.0027 597.525 75.784 598.378 75.784ZM609.401 87H608.137L608.025 85.688C607.705 86.2107 607.337 86.5947 606.921 86.84C606.505 87.0747 605.999 87.192 605.401 87.192C604.665 87.192 604.089 86.968 603.673 86.52C603.257 86.072 603.049 85.4373 603.049 84.616V78.568H604.521V84.456C604.521 85.032 604.623 85.4427 604.825 85.688C605.028 85.9227 605.359 86.04 605.817 86.04C606.639 86.04 607.343 85.5547 607.929 84.584V78.568H609.401V87ZM616.106 78.376C616.405 78.376 616.682 78.408 616.938 78.472L616.666 79.912C616.41 79.848 616.165 79.816 615.93 79.816C615.407 79.816 614.986 80.008 614.666 80.392C614.346 80.776 614.095 81.3733 613.914 82.184V87H612.442V78.568H613.706L613.85 80.28C614.074 79.6507 614.378 79.176 614.762 78.856C615.146 78.536 615.594 78.376 616.106 78.376ZM622.278 78.376C622.576 78.376 622.854 78.408 623.11 78.472L622.838 79.912C622.582 79.848 622.336 79.816 622.102 79.816C621.579 79.816 621.158 80.008 620.838 80.392C620.518 80.776 620.267 81.3733 620.086 82.184V87H618.614V78.568H619.878L620.022 80.28C620.246 79.6507 620.55 79.176 620.934 78.856C621.318 78.536 621.766 78.376 622.278 78.376ZM630.669 82.536C630.669 82.7813 630.659 83.032 630.637 83.288H625.261C625.325 84.216 625.56 84.8987 625.965 85.336C626.371 85.7733 626.893 85.992 627.533 85.992C627.939 85.992 628.312 85.9333 628.653 85.816C628.995 85.6987 629.352 85.512 629.725 85.256L630.365 86.136C629.469 86.84 628.488 87.192 627.421 87.192C626.248 87.192 625.331 86.808 624.669 86.04C624.019 85.272 623.693 84.216 623.693 82.872C623.693 81.9973 623.832 81.224 624.109 80.552C624.397 79.8693 624.803 79.336 625.325 78.952C625.859 78.568 626.483 78.376 627.197 78.376C628.317 78.376 629.176 78.744 629.773 79.48C630.371 80.216 630.669 81.2347 630.669 82.536ZM629.213 82.104C629.213 81.272 629.048 80.6373 628.717 80.2C628.387 79.7627 627.891 79.544 627.229 79.544C626.024 79.544 625.368 80.4293 625.261 82.2H629.213V82.104ZM636.988 78.376C637.756 78.376 638.353 78.6053 638.78 79.064C639.217 79.5227 639.436 80.152 639.436 80.952V87H637.964V81.16C637.964 80.5627 637.852 80.1413 637.628 79.896C637.404 79.6507 637.073 79.528 636.636 79.528C636.188 79.528 635.793 79.656 635.452 79.912C635.111 80.168 634.791 80.536 634.492 81.016V87H633.02V78.568H634.284L634.412 79.816C634.711 79.368 635.079 79.016 635.516 78.76C635.964 78.504 636.455 78.376 636.988 78.376ZM646.651 86.616C646.096 87 645.467 87.192 644.763 87.192C644.048 87.192 643.488 86.9893 643.083 86.584C642.688 86.168 642.491 85.5707 642.491 84.792V79.704H641.019V78.568H642.491V76.664L643.963 76.488V78.568H645.963L645.803 79.704H643.963V84.728C643.963 85.1653 644.038 85.4853 644.187 85.688C644.347 85.88 644.608 85.976 644.971 85.976C645.302 85.976 645.675 85.864 646.091 85.64L646.651 86.616ZM654.011 75.976V85.672H658.539L658.363 87H652.491V75.976H654.011ZM663.141 78.376C664.325 78.376 665.242 78.7707 665.893 79.56C666.554 80.3493 666.885 81.4213 666.885 82.776C666.885 83.6507 666.736 84.424 666.437 85.096C666.138 85.7573 665.706 86.2747 665.141 86.648C664.576 87.0107 663.904 87.192 663.125 87.192C661.941 87.192 661.018 86.7973 660.357 86.008C659.696 85.2187 659.365 84.1467 659.365 82.792C659.365 81.9173 659.514 81.1493 659.813 80.488C660.112 79.816 660.544 79.2987 661.109 78.936C661.674 78.5627 662.352 78.376 663.141 78.376ZM663.141 79.56C661.68 79.56 660.949 80.6373 660.949 82.792C660.949 84.936 661.674 86.008 663.125 86.008C664.576 86.008 665.301 84.9307 665.301 82.776C665.301 80.632 664.581 79.56 663.141 79.56ZM672.389 78.376C672.89 78.376 673.349 78.4507 673.765 78.6C674.181 78.7387 674.581 78.968 674.965 79.288L674.261 80.216C673.962 80.0027 673.669 79.848 673.381 79.752C673.104 79.6453 672.794 79.592 672.453 79.592C671.77 79.592 671.237 79.864 670.853 80.408C670.48 80.952 670.293 81.7573 670.293 82.824C670.293 83.8907 670.48 84.68 670.853 85.192C671.226 85.6933 671.76 85.944 672.453 85.944C672.784 85.944 673.088 85.896 673.365 85.8C673.642 85.6933 673.952 85.528 674.293 85.304L674.965 86.264C674.197 86.8827 673.338 87.192 672.389 87.192C671.248 87.192 670.346 86.808 669.685 86.04C669.034 85.272 668.709 84.2107 668.709 82.856C668.709 81.96 668.858 81.176 669.157 80.504C669.456 79.832 669.877 79.3093 670.421 78.936C670.976 78.5627 671.632 78.376 672.389 78.376ZM682.481 85.032C682.481 85.3733 682.54 85.6293 682.657 85.8C682.775 85.96 682.951 86.0827 683.185 86.168L682.849 87.192C682.412 87.1387 682.06 87.016 681.793 86.824C681.527 86.632 681.329 86.3333 681.201 85.928C680.636 86.7707 679.799 87.192 678.689 87.192C677.857 87.192 677.201 86.9573 676.721 86.488C676.241 86.0187 676.001 85.4053 676.001 84.648C676.001 83.752 676.321 83.064 676.961 82.584C677.612 82.104 678.529 81.864 679.713 81.864H681.009V81.24C681.009 80.6427 680.865 80.216 680.577 79.96C680.289 79.704 679.847 79.576 679.249 79.576C678.631 79.576 677.873 79.7253 676.977 80.024L676.609 78.952C677.655 78.568 678.625 78.376 679.521 78.376C680.513 78.376 681.255 78.6213 681.745 79.112C682.236 79.592 682.481 80.28 682.481 81.176V85.032ZM679.025 86.088C679.868 86.088 680.529 85.6507 681.009 84.776V82.84H679.905C678.348 82.84 677.569 83.416 677.569 84.568C677.569 85.0693 677.692 85.448 677.937 85.704C678.183 85.96 678.545 86.088 679.025 86.088ZM689.76 86.616C689.206 87 688.576 87.192 687.872 87.192C687.158 87.192 686.598 86.9893 686.192 86.584C685.798 86.168 685.6 85.5707 685.6 84.792V79.704H684.128V78.568H685.6V76.664L687.072 76.488V78.568H689.072L688.912 79.704H687.072V84.728C687.072 85.1653 687.147 85.4853 687.296 85.688C687.456 85.88 687.718 85.976 688.08 85.976C688.411 85.976 688.784 85.864 689.2 85.64L689.76 86.616ZM692.758 78.568V87H691.286V78.568H692.758ZM692.006 74.52C692.315 74.52 692.566 74.616 692.758 74.808C692.95 75 693.046 75.24 693.046 75.528C693.046 75.816 692.95 76.056 692.758 76.248C692.566 76.4293 692.315 76.52 692.006 76.52C691.707 76.52 691.462 76.4293 691.27 76.248C691.078 76.056 690.982 75.816 690.982 75.528C690.982 75.24 691.078 75 691.27 74.808C691.462 74.616 691.707 74.52 692.006 74.52ZM698.969 78.376C700.153 78.376 701.071 78.7707 701.721 79.56C702.383 80.3493 702.713 81.4213 702.713 82.776C702.713 83.6507 702.564 84.424 702.265 85.096C701.967 85.7573 701.535 86.2747 700.969 86.648C700.404 87.0107 699.732 87.192 698.953 87.192C697.769 87.192 696.847 86.7973 696.185 86.008C695.524 85.2187 695.193 84.1467 695.193 82.792C695.193 81.9173 695.343 81.1493 695.641 80.488C695.94 79.816 696.372 79.2987 696.937 78.936C697.503 78.5627 698.18 78.376 698.969 78.376ZM698.969 79.56C697.508 79.56 696.777 80.6373 696.777 82.792C696.777 84.936 697.503 86.008 698.953 86.008C700.404 86.008 701.129 84.9307 701.129 82.776C701.129 80.632 700.409 79.56 698.969 79.56ZM709.113 78.376C709.881 78.376 710.478 78.6053 710.905 79.064C711.342 79.5227 711.561 80.152 711.561 80.952V87H710.089V81.16C710.089 80.5627 709.977 80.1413 709.753 79.896C709.529 79.6507 709.198 79.528 708.761 79.528C708.313 79.528 707.918 79.656 707.577 79.912C707.236 80.168 706.916 80.536 706.617 81.016V87H705.145V78.568H706.409L706.537 79.816C706.836 79.368 707.204 79.016 707.641 78.76C708.089 78.504 708.58 78.376 709.113 78.376Z" fill="white"/>
<path fill-rule="evenodd" clip-rule="evenodd" d="M729.5 91C733.09 91 736 88.0899 736 84.5C736 80.9101 733.09 78 729.5 78C725.91 78 723 80.9101 723 84.5C723 88.0899 725.91 91 729.5 91Z" fill="#4AF6CD"/>
</svg>
